<svg version="1.2" xmlns="http://www.w3.org/2000/svg" viewBox="0 0 800 800" width="800" height="800">
	<title>logo(2) (1)</title>
	<style>
		.s0 { fill: #000000 } 
		.s1 { fill: #072554 } 
	</style>
	<g id="Background">
		<path id="Path 0" fill-rule="evenodd" class="s0" d="m402 186.4c75.6 0.1 140.3 0.5 143.8 0.9 3.4 0.4 9.7 1.4 13.9 2.3 4.3 0.9 9.8 2.3 12.3 3.1 2.5 0.8 7.6 2.9 11.5 4.5 3.9 1.7 10.8 5.6 15.5 8.7 4.6 3.1 12.2 9.2 16.9 13.6 4.6 4.4 11 11.6 14.3 16 3.3 4.4 8 12.1 10.4 17 2.4 4.9 5.5 13.1 6.9 18 1.4 4.9 3 11.7 3.5 15 0.6 3.3 1 10.7 1 16.5 0 5.8-0.7 14.3-1.6 19-0.9 4.7-2.9 12.6-4.6 17.5-1.6 4.9-5.8 14.9-9.4 22-4.5 9.2-8.4 15.3-13.1 21-3.8 4.3-10.4 10.6-14.8 13.8-4.4 3.3-14.6 9.2-37.4 20.2l6.2 11c3.5 6.1 9.2 15.9 12.8 22 3.6 6.1 9.8 16.6 13.6 23.5 3.9 6.9 15.7 27.6 26.2 46 10.5 18.4 19.1 34.5 19.1 35.7 0 1.3-0.9 3.2-2 4.3-1.7 1.7-3.4 2-12.3 2-8.4 0.1-10.6-0.3-12.7-1.8-1.4-1-3.9-4.3-5.6-7.3-1.7-3-7.1-12.6-11.9-21.4-4.8-8.8-13.1-23.4-18.5-32.5-5.3-9.1-16.5-28.9-25-44-8.4-15.1-16.1-28.7-17.1-30.3-1.6-2.3-1.9-4.7-1.9-16.2 0-7.4 0.1-13.5 0.2-13.5 0.2 0 4.1-0.7 8.8-1.6 4.7-0.8 12.3-3.2 17-5.1 4.7-2 10.7-4.9 13.5-6.4 2.7-1.6 7.7-5 11-7.6 3.2-2.6 8.1-7.5 10.7-10.8 2.7-3.3 7.1-10.3 9.7-15.5 2.7-5.2 6.2-13.3 7.7-18 2.6-7.9 2.8-9.6 2.8-24.5 0-14.6-0.3-16.8-2.8-25-1.5-4.9-4.5-12.4-6.8-16.5-2.2-4.1-5.9-10-8.3-13-2.3-3-6.9-8-10.2-11-3.4-3-9.6-7.6-14-10.2-4.3-2.6-11.2-5.9-15.3-7.4-4.1-1.4-11.3-3.1-16-3.7-5.9-0.8-27.8-1.1-136-0.7v326h95v30h-59.3c-51.1 0.1-59.6-0.1-62.2-1.5-1.6-0.8-4.4-1.5-6-1.5-1.6 0-8.2-1.2-14.5-2.6-6.3-1.5-15.3-4-20-5.6-4.7-1.7-13.5-5.5-19.5-8.6-6.1-3.1-16-9-22-13-6.1-4.1-14.1-9.9-18-13-3.8-3.2-10.3-8.8-14.4-12.7-4-3.9-10.2-10.6-13.6-15-3.4-4.4-8.7-11.8-11.7-16.5-3.1-4.7-7.8-12.8-10.6-18-2.8-5.2-6.6-13.6-8.5-18.5-1.9-4.9-4.6-13.5-6-19-1.4-5.5-3.3-14.7-4.1-20.5-0.9-6.1-1.6-17.3-1.6-27 0-9.7 0.7-20.8 1.6-27 0.8-5.8 2.2-13.2 3-16.5 0.8-3.3 3.1-10.9 5.1-17 2-6.1 6.6-16.9 10.2-24 3.7-7.1 9.6-17.5 13.3-23 3.7-5.5 10.4-14.3 15-19.5 4.6-5.2 12.2-12.8 16.8-16.8 4.7-4 12.3-9.9 25.2-18.7l-22.8-0.5c-12.6-0.3-23.6-0.8-24.4-1.2-0.8-0.4-2.1-1.9-2.8-3.3-0.6-1.4-1.2-6.2-1.2-10.8-0.1-6.8 0.3-8.7 2-10.9 1.1-1.5 3.1-2.9 4.3-3.1 1.2-0.2 64.1-0.4 139.7-0.3zm-40.5 37.2c-4.4 1.4-11.8 4.2-16.5 6.2-4.7 1.9-12.3 5.8-17 8.5-4.7 2.6-11.2 6.8-14.5 9.2-3.3 2.4-9.4 7.2-13.5 10.7-4.1 3.6-11.1 10.7-15.4 15.9-4.4 5.2-10.3 13-13.2 17.4-2.9 4.4-7.5 12.7-10.3 18.5-2.7 5.8-6.2 14.1-7.6 18.5-1.4 4.4-3.5 12.3-4.6 17.5-1.1 5.2-2.4 14.4-2.8 20.5-0.5 6.1-0.5 16.4 0 23 0.4 6.6 1.5 15.8 2.4 20.5 0.9 4.7 3.2 13.1 5.1 18.7 1.9 5.7 5.8 15.1 8.7 21 3 6 7.4 13.9 9.9 17.8 2.4 3.9 7.8 11.1 12 16 4.1 4.9 10.9 11.9 14.9 15.5 4.1 3.6 9.9 8.4 12.9 10.6 3 2.2 8.9 6 13 8.5 4.1 2.5 10.6 6 14.5 7.8 3.9 1.8 10.6 4.6 15 6.3 4.4 1.6 12.5 4 18 5.4 5.5 1.3 10.3 2.4 10.7 2.4 0.5 0 0.8-72.5 0.8-161 0-88.6-0.3-161-0.8-160.9-0.4 0.1-3.6 0.7-7.2 1.5-3.6 0.8-10.1 2.6-14.5 4z"/>
		<path id="Path 1" class="s1" d="m463 406.5v15.5h31v-31h-31z"/>
	</g>
</svg>