<svg width="156" height="45" viewBox="0 0 156 45" fill="none" xmlns="http://www.w3.org/2000/svg">
<path d="M55.154 30.5153H59.0081C61.1804 30.5153 62.9673 29.8379 64.3688 28.4831C65.7702 27.1284 66.471 25.1663 66.471 22.5969C66.471 20.0276 65.7702 18.0655 64.3688 16.7107C62.9673 15.3326 61.1921 14.6435 59.0431 14.6435H55.154V30.5153ZM59.1833 35H50.3189V10.1588H59.2183C62.8388 10.1588 65.7819 11.2683 68.0476 13.4873C70.3367 15.7063 71.4812 18.7429 71.4812 22.5969C71.4812 26.4276 70.3367 29.4525 68.0476 31.6715C65.7586 33.8905 62.8038 35 59.1833 35ZM77.0718 24.4189H84.7799C84.7332 23.4612 84.3829 22.6553 83.7288 22.0013C83.0982 21.3473 82.1639 21.0203 80.9259 21.0203C79.8047 21.0203 78.8937 21.3706 78.193 22.0714C77.4923 22.7721 77.1185 23.5546 77.0718 24.4189ZM85.2354 28.9036L89.1245 30.0598C88.6574 31.6481 87.7347 32.9562 86.3566 33.9839C85.0018 35.0117 83.3084 35.5256 81.2763 35.5256C78.8003 35.5256 76.6981 34.6963 74.9696 33.0379C73.2411 31.3562 72.3769 29.1138 72.3769 26.3108C72.3769 23.648 73.2178 21.4757 74.8995 19.794C76.5813 18.0888 78.5667 17.2363 80.8558 17.2363C83.5186 17.2363 85.5975 18.0305 87.0924 19.6188C88.6107 21.2071 89.3698 23.3911 89.3698 26.1707C89.3698 26.3576 89.3581 26.5678 89.3347 26.8014C89.3347 27.0349 89.3347 27.2218 89.3347 27.362L89.2997 27.6072H76.9667C77.0134 28.7284 77.4572 29.6627 78.2981 30.4102C79.139 31.1576 80.1434 31.5313 81.3113 31.5313C83.2967 31.5313 84.6048 30.6554 85.2354 28.9036ZM89.816 30.1999L93.8102 29.324C93.8569 30.0715 94.1489 30.7021 94.6861 31.216C95.2467 31.7065 96.0058 31.9518 96.9635 31.9518C97.6876 31.9518 98.2482 31.7883 98.6453 31.4613C99.0423 31.1343 99.2409 30.7255 99.2409 30.235C99.2409 29.3707 98.6219 28.8101 97.3839 28.5532L95.1065 28.0277C93.4948 27.6773 92.2802 27.0466 91.4627 26.1357C90.6685 25.2247 90.2714 24.1386 90.2714 22.8772C90.2714 21.3122 90.8787 19.9808 92.0934 18.883C93.3313 17.7852 94.873 17.2363 96.7182 17.2363C97.8861 17.2363 98.9139 17.4115 99.8015 17.7618C100.689 18.0888 101.378 18.521 101.869 19.0582C102.359 19.5721 102.733 20.0976 102.99 20.6349C103.247 21.1721 103.41 21.6976 103.48 22.2115L99.5913 23.0874C99.4978 22.4801 99.2175 21.9429 98.7504 21.4757C98.3066 21.0086 97.6409 20.775 96.7533 20.775C96.146 20.775 95.6204 20.9385 95.1766 21.2655C94.7562 21.5925 94.5459 22.0013 94.5459 22.4918C94.5459 23.3327 95.0715 23.8466 96.1226 24.0334L98.5752 24.559C100.234 24.9094 101.495 25.5517 102.359 26.486C103.247 27.4203 103.691 28.5415 103.691 29.8496C103.691 31.3912 103.107 32.7226 101.939 33.8438C100.771 34.965 99.1241 35.5256 96.9985 35.5256C95.7839 35.5256 94.6978 35.3504 93.7401 35C92.7824 34.6263 92.035 34.1591 91.4977 33.5985C90.9839 33.0146 90.5868 32.4423 90.3065 31.8817C90.0495 31.2978 89.886 30.7372 89.816 30.1999ZM110.345 35H105.685V17.7618H110.345V35ZM105.125 12.1209C105.125 11.3267 105.405 10.6493 105.966 10.0887C106.526 9.5048 107.204 9.21283 107.998 9.21283C108.792 9.21283 109.469 9.49312 110.03 10.0537C110.591 10.6143 110.871 11.3034 110.871 12.1209C110.871 12.8917 110.591 13.5574 110.03 14.118C109.469 14.6786 108.792 14.9589 107.998 14.9589C107.204 14.9589 106.526 14.6786 105.966 14.118C105.405 13.5574 105.125 12.8917 105.125 12.1209ZM112.356 35.946L116.561 34.8248C116.724 35.7825 117.168 36.565 117.892 37.1723C118.616 37.7796 119.515 38.0832 120.59 38.0832C123.65 38.0832 125.18 36.4832 125.18 33.2832V32.0219C124.783 32.6525 124.175 33.1781 123.358 33.5985C122.54 34.019 121.548 34.2292 120.38 34.2292C118.091 34.2292 116.175 33.435 114.634 31.8467C113.115 30.2583 112.356 28.2612 112.356 25.8554C112.356 23.5196 113.115 21.5341 114.634 19.8991C116.152 18.264 118.067 17.4465 120.38 17.4465C121.641 17.4465 122.692 17.6801 123.533 18.1472C124.374 18.591 124.958 19.14 125.285 19.794V17.7618H129.77V33.143C129.77 35.7358 129.022 37.8847 127.527 39.5898C126.032 41.3183 123.767 42.1826 120.73 42.1826C118.464 42.1826 116.561 41.5753 115.019 40.3606C113.501 39.146 112.613 37.6745 112.356 35.946ZM121.185 30.235C122.377 30.235 123.346 29.8379 124.094 29.0437C124.864 28.2496 125.25 27.1868 125.25 25.8554C125.25 24.5473 124.853 23.4962 124.059 22.702C123.288 21.9079 122.33 21.5108 121.185 21.5108C119.994 21.5108 119.002 21.9079 118.207 22.702C117.437 23.4962 117.051 24.5473 117.051 25.8554C117.051 27.1868 117.437 28.2496 118.207 29.0437C118.978 29.8379 119.971 30.235 121.185 30.235ZM137.396 25.0846V35H132.736V17.7618H137.256V19.8991C137.747 19.0582 138.447 18.4159 139.358 17.9721C140.269 17.5283 141.227 17.3064 142.231 17.3064C144.264 17.3064 145.805 17.9487 146.856 19.2334C147.931 20.4947 148.468 22.1298 148.468 24.1386V35H143.808V24.9444C143.808 23.9167 143.54 23.0874 143.002 22.4568C142.488 21.8261 141.694 21.5108 140.62 21.5108C139.639 21.5108 138.856 21.8495 138.272 22.5269C137.688 23.2042 137.396 24.0568 137.396 25.0846Z" fill="white"/>
<path d="M154.539 34.3257H149.821V33.3235L153.048 29.4857H149.87V28.4468H154.478V29.449L151.251 33.2868H154.539V34.3257Z" fill="white"/>
<rect x="1.6669" y="2.32645" width="41.1169" height="36.6718" rx="6.11197" stroke="white" stroke-width="3.3338"/>
<path d="M17.5386 34.531C14.7159 34.531 12.3836 33.7181 10.5417 32.0922C8.69977 30.4431 7.77881 28.1553 7.77881 25.2287V11.7477C7.77881 10.3803 8.88728 9.27185 10.2546 9.27185V9.27185C11.622 9.27185 12.7305 10.3803 12.7305 11.7477V24.8803C12.7305 26.4829 13.1491 27.714 13.9863 28.5733C14.8475 29.4095 16.0316 29.8276 17.5386 29.8276C19.0696 29.8276 20.2537 29.4095 21.0909 28.5733C21.9521 27.714 22.3826 26.4829 22.3826 24.8803V11.7477C22.3826 10.3803 23.4911 9.27185 24.8585 9.27185V9.27185C26.2258 9.27185 27.3343 10.3803 27.3343 11.7477V25.2287C27.3343 28.1553 26.4133 30.4431 24.5714 32.0922C22.7295 33.7181 20.3852 34.531 17.5386 34.531Z" fill="white"/>
<rect x="31.2451" y="15.0826" width="5.05183" height="19.3925" rx="2.52592" fill="white"/>
<circle cx="33.7712" cy="9.78629" r="3.0148" fill="white"/>
</svg>
