<svg version="1.2" xmlns="http://www.w3.org/2000/svg" viewBox="0 0 800 800" width="800" height="800">
	<title>logo</title>
	<style>
		.s0 { fill: #ffffff } 
		.s1 { fill: #000000 } 
		.s2 { fill: #062554 } 
		.s3 { fill: #3f3f3f } 
		.s4 { fill: #808080 } 
		.s5 { fill: #404040 } 
		.s6 { fill: #c0c0c0 } 
		.s7 { fill: #bfbfbf } 
	</style>
	<g id="Background">
		<path id="Path 0" class="s0" d="m0 400v400h800v-800h-800z"/>
		<path id="Path 1" class="s1" d="m259 189.5c-2.2 2.4-2.5 3.5-2.4 10.3 0 4.2 0.3 8.9 0.7 10.4 0.4 1.6 1.5 3.2 2.5 3.7 0.9 0.5 11.7 1.3 24 1.8 12.2 0.4 22.2 1 22.2 1.3 0 0.3-4.6 3.8-10.2 7.9-5.7 4.1-14.7 11.8-20.2 17-5.4 5.3-12.6 13.2-16 17.6-3.5 4.4-8.6 11.5-11.4 15.7-2.9 4.3-5.2 8.1-5.2 8.5 0 0.5-1 2.4-2.3 4.3-1.3 1.9-4.6 8.9-7.4 15.5-2.8 6.6-6.6 16.5-8.3 22-1.7 5.5-4 15.2-5.2 21.5-1.5 8.9-2 15.9-2 31.5 0 11 0.2 21.8 0.6 24 0.3 2.2 1.5 8.5 2.6 14 1.1 5.5 3.2 13.8 4.6 18.5 1.5 4.7 4.5 12.8 6.8 18 2.3 5.2 6.8 14 10 19.5 3.2 5.5 9.3 14.7 13.5 20.5 4.2 5.8 11.9 14.7 17.1 19.8 5.2 5.1 9.7 9.3 10 9.2 0.3 0 2.1 1.4 4.1 3.2 1.9 1.8 7.8 6.2 13 9.8 5.2 3.6 12.3 8.2 15.9 10.4 3.6 2.1 11 6 16.5 8.6 5.5 2.6 14.5 6.2 20 7.9 5.5 1.7 15.7 4.2 22.8 5.6 7 1.4 13.5 2.9 14.4 3.3 1 0.5 28.2 1 60.5 1l58.8 0.2v-30h-95v-325.5c57-1.3 87.7-1.4 105-1 21.7 0.5 33.7 1.1 38.5 2.2 3.9 0.8 11 3.4 16 5.8 5 2.4 11.9 6.5 15.5 9.2 3.6 2.8 9.2 7.9 12.5 11.5 3.3 3.6 7.8 9.7 10.1 13.4 2.2 3.8 5.3 10 6.9 13.9 1.5 3.9 3.3 9.9 4.1 13.5 0.8 3.6 1.4 11.9 1.4 18.5 0 6.6-0.7 14.9-1.4 18.5-0.8 3.6-3.2 10.6-5.3 15.5-2.2 4.9-6.1 12.4-8.7 16.5-2.6 4.1-6.9 9.7-9.4 12.3-2.6 2.7-7.4 6.8-10.7 9.2-3.3 2.4-9.8 6.2-14.5 8.4-4.7 2.2-9.4 4.2-10.5 4.4-1.1 0.1-2.5 0.6-3 0.9-0.5 0.4-4.8 1.6-9.5 2.6l-8.5 1.9 0.1 25.8c16 28.7 28.7 50.9 38.4 68 9.8 17.1 22.1 38.9 27.5 48.5 5.3 9.6 11 18.9 12.6 20.5 2.9 3 3.1 3 13.3 3 7.7 0 10.7-0.4 12-1.5 0.9-0.8 1.7-2.6 1.6-4 0-1.4-2.6-7.2-5.7-13-3.1-5.8-17-30.3-30.9-54.5-13.8-24.2-28.6-50-32.8-57.3-4.2-7.2-7.6-13.4-7.6-13.7 0-0.3 6.2-3.6 13.7-7.3 7.6-3.8 16.5-8.6 19.8-10.7 3.3-2.1 8.9-6.5 12.4-9.9 3.5-3.4 8-8.6 10.1-11.6 2-3 5.8-9.7 8.4-14.8 2.5-5 6-12.7 7.7-17 1.7-4.2 4.2-12.4 5.6-18.2 2.1-8.7 2.6-12.9 2.6-24.5 0-10.8-0.5-16-2.1-22.5-1.1-4.7-3.3-11.9-4.7-16-1.5-4.1-4.3-10.4-6.2-14-2-3.6-5.7-9.4-8.2-13-2.5-3.6-8.2-10.1-12.7-14.5-4.4-4.4-11.6-10.5-16-13.5-4.3-3-11.9-7.3-16.9-9.6-5-2.3-10.8-4.7-13-5.4-2.2-0.7-4.7-1.5-5.5-1.8-0.8-0.2-2.6-0.6-4-0.8-1.4-0.2-4.8-0.9-7.5-1.5-3.7-0.9-41.7-1.3-149-1.6l-144.1-0.4z"/>
		<path id="Path 2" class="s2" d="m463.5 392.3c-0.4 0.8-0.5 7.7-0.3 15.3l0.3 13.9 30.5 0.5-0.5-30.5c-26.8-0.6-29.5-0.4-30 0.8z"/>
		<path id="Path 3" class="s3" d="m468.5 215.7c9.4 0.2 24.2 0.2 33 0 8.8-0.1 1.1-0.3-17-0.3-18.1 0-25.4 0.2-16 0.3z"/>
		<path id="Path 4" class="s4" d="m285 186.7c10.7 0.2 27.8 0.2 38 0 10.2-0.1 1.4-0.2-19.5-0.2-20.9 0-29.2 0.1-18.5 0.2zm121 0c13.5 0.2 35.8 0.2 49.5 0 13.8-0.1 2.7-0.2-24.5-0.2-27.2 0-38.5 0.1-25 0.2z"/>
		<path id="Path 5" class="s5" d="m352 186.7c4.7 0.2 12.6 0.2 17.5 0 4.9-0.1 1.1-0.3-8.5-0.3-9.6 0-13.7 0.2-9 0.3z"/>
		<path id="Path 6" class="s6" d="m491 186.7c5.8 0.2 14.8 0.2 20 0 5.2-0.1 0.5-0.3-10.5-0.3-11 0-15.3 0.2-9.5 0.3z"/>
		<path id="Path 7" class="s0" d="m370.5 221.5c-4.9 1.3-13.1 3.9-18 5.8-4.9 1.9-12.6 5.3-17 7.6-4.4 2.2-10 5.2-12.5 6.6-2.5 1.4-8.6 5.6-13.5 9.4-4.9 3.8-12.8 10.9-17.5 15.7-4.7 4.9-11 12.3-14.1 16.4-3 4.1-7.2 10.2-9.2 13.5-1.9 3.3-5.1 9.4-7 13.5-1.9 4.1-4.3 9.3-5.2 11.5-1 2.2-1.9 4.4-2 5-0.2 0.6-1.5 5.3-2.9 10.5-1.5 5.2-2.9 10.9-3.2 12.5-0.3 1.6-0.7 4.4-0.9 6-0.2 1.6-0.7 8.2-1.1 14.5-0.4 7.3-0.2 16.2 0.6 24.5 0.6 7.1 2.3 17.3 3.6 22.5 1.4 5.2 3.9 13.1 5.6 17.5 1.7 4.4 5.1 12.1 7.6 17 2.5 4.9 6.3 11.9 8.5 15.5 2.3 3.6 6.9 9.9 10.2 14 3.4 4.1 10.4 11.5 15.6 16.4 5.2 4.8 13.7 11.7 18.9 15.2 5.2 3.4 15.1 9 22 12.3 6.9 3.2 17.2 7.3 23 9.1 5.8 1.7 11.2 3.4 12 3.7 0.8 0.3 3.1 0.8 5 1l3.5 0.4c1.2-84.2 1.5-132.2 1.5-161.1 0-28.9-0.3-76.5-0.6-105.8-0.6-48-0.8-53.2-2.3-53.2-0.9 0.1-5.7 1.2-10.6 2.5z"/>
		<path id="Path 8" class="s7" d="m383.4 264c0 13.5 0.2 18.9 0.3 12 0.2-6.9 0.2-17.9 0-24.5-0.1-6.6-0.3-1-0.3 12.5zm0 228.5c0 13.2 0.2 18.4 0.3 11.5 0.2-6.9 0.2-17.7 0-24-0.1-6.3-0.3-0.7-0.3 12.5z"/>
	</g>
</svg>