<?xml version="1.0" encoding="UTF-8"?>
<svg id="Capa_1" data-name="Capa 1" xmlns="http://www.w3.org/2000/svg" viewBox="0 0 640.17 392.86">
  <defs>
    <style>
      .cls-1 {
        fill: #eee;
        stroke-width: 0px;
      }
    </style>
  </defs>
  <path class="cls-1" d="M297.32,170.8c-2.5,5.09-4.88,9.92-7.45,15.13-6.91-6.49-14.23-12.05-24.54-10.76-6.77.85-12.27,3.77-16.65,8.95-8.36,9.88-7.93,24.03,1.21,33.49,5.91,6.12,13.43,9.61,21.6,7.12,7.17-2.19,13.64-6.67,20.42-10.14,2,3.42,4.75,8.09,7.51,12.8-16.06,17.97-42.47,19.48-59.83,3.33-16.89-15.73-17.82-42.48-2.03-59.02,16.48-17.28,42.64-17.72,59.76-.91Z"/>
  <path class="cls-1" d="M194.88,158.7h20.68v16.08h-20.55c0,5.43,0,10.34,0,15.25,0,4.82-.05,9.64,0,14.46.15,12.59,7.89,20.53,20.43,20.98,2.3.08,4.61.01,7.3.01v15.52c-21.12,5.3-42.9-10.64-43.81-32.34-.39-9.3-.18-18.62-.24-27.92-.01-1.77,0-3.54,0-5.46-2.47-.25-4.26-.43-6.35-.64v-15.72c2-.18,3.79-.35,6.1-.56v-38.16h16.44v38.5Z"/>
  <path class="cls-1" d="M388.54,239.6h-17.62v-34.12h8.99c.5-10.09.75-20.03-4.86-28.15-5.29-7.66-4.36-15.57-4.36-24.12h17.59c.16,1.25.33,2.66.59,4.72,15.72-7.93,30.78-6.37,45.65,2.89-2.44,5.27-4.85,10.48-7.3,15.76-4.1-1.7-7.83-3.53-11.74-4.81-13.49-4.44-27.99,5.38-27.14,19.39.88,14.41.19,28.91.19,43.38,0,1.61,0,3.22,0,5.08Z"/>
  <path class="cls-1" d="M363.27,190.45h-57.29c.42-11.68,14.14-22.65,28.35-22.79,14.44-.15,28.15,10.59,28.94,22.79Z"/>
  <path class="cls-1" d="M364.58,205.7c-.68,10.91-15.16,22.04-29.12,22.62-13.84.57-28.06-10.2-29.54-22.62h58.66Z"/>
</svg>