<svg version="1.2" xmlns="http://www.w3.org/2000/svg" viewBox="0 0 600 200" width="600" height="200">
	<title>prue</title>
	<style>
		.s0 { fill: #000000 } 
		.s1 { fill: #072554 } 
	</style>
	<g id="Background">
		<path id="Path 0" fill-rule="evenodd" class="s0" d="m74.5 38.2c18.7 0 42.3 0.3 52.5 0.7 17.1 0.8 19 1 25.5 3.7 4.8 2 8.9 4.6 12.8 8.4 4.2 3.9 7 7.7 9.5 13 3 6.1 3.7 8.9 4 15 0.4 6.2 0 8.9-2.3 15.5-1.5 4.4-4.3 10.4-6.3 13.4-2.3 3.4-5.9 6.8-9.7 9.3-3.3 2.1-6.4 3.8-7 3.8-0.6-0.1-1.6 0.6-2.3 1.5-1 1.3 1.1 5.5 12.9 26.2 7.7 13.7 13.8 25.4 13.5 26-0.4 0.8-2.5 1.3-5.1 1.3-4.2 0-4.7-0.3-7-4.3-1.4-2.3-8-13.6-14.5-25.2-11-19.4-11.9-21.4-12-31.5l5.2-1.5c2.9-0.8 7.3-2.7 9.8-4.3 2.5-1.7 5.7-4.5 7.1-6.3 1.5-1.9 3.6-5.5 4.8-8.2 1.6-3.5 2.1-6.7 2.1-13 0-6.7-0.5-9.2-2.5-13.5-1.4-2.8-4.2-6.9-6.3-9-2-2-6-4.8-8.7-6.2-4.9-2.5-5.5-2.5-58.5-3v120h35l-0.5 10.5-21.5 0.3c-12 0.1-22.4-0.2-23.5-0.7-1.1-0.5-5-1.6-8.8-2.5-3.7-0.9-9.5-3-13-4.7-3.4-1.7-8.2-4.7-10.7-6.7-2.5-1.9-6.5-5.4-8.8-7.6-2.4-2.3-6.1-6.6-8.2-9.6-2-3-4.8-7.5-6-10-1.3-2.5-3.2-7.7-4.2-11.5-1-3.9-2.1-10.8-2.4-15.5-0.5-6.8-0.2-10.2 1.5-16.8 1.2-4.5 3.1-10.6 4.4-13.5 1.3-2.8 4.1-7.9 6.4-11.2 2.2-3.3 7.6-9.3 19.8-20.5h-7.5c-4.1 0-8.1-0.4-8.8-0.8-0.8-0.4-1.2-2.3-1-5.2 0.3-4.1 0.6-4.5 3.3-5.1 1.6-0.4 18.3-0.7 37-0.7zm-15.9 20.8c-3.2 1.9-8.7 6.5-12.2 10.2-3.6 3.9-7.9 9.7-9.8 13.5-1.9 3.8-4.1 10.3-5 14.5-0.9 4.3-1.6 9.8-1.6 12.3 0 2.5 0.6 7.8 1.4 11.7 0.7 4 3.1 10.7 5.1 14.8 2.4 4.8 6.1 9.9 10.4 14.3 3.6 3.8 9.1 8.3 12.1 10.1 3 1.8 8.1 4.2 11.2 5.4 3.2 1.2 6.7 2.2 7.8 2.2 2 0 2-0.7 2-58.5 0-46.1-0.3-58.5-1.3-58.5-0.6 0-4.1 1.1-7.7 2.3-3.6 1.2-9.2 3.8-12.4 5.7zm483.7 11c22.8 0 23.3 0.1 28.7 2.6 3 1.4 7 3.6 8.7 5 1.8 1.3 4.7 4.4 6.3 6.9 1.6 2.5 3.7 7.1 4.5 10.2 0.8 3.2 1.5 7.1 1.5 8.8 0 1.6-1.1 5.9-2.5 9.5-1.4 3.6-4 8.3-5.8 10.4-1.8 2.2-5.6 5.3-8.5 7-3.8 2.2-5.2 3.5-4.7 4.6 0.3 0.8 4.9 8.9 10 18 5.2 9.1 9.5 17.3 9.5 18.2 0 1.5-0.7 1.8-7.5 1.3l-21-37.4-35-0.1-2 38.5h-6l-0.8-22c-0.4-12.1-0.6-34.8-0.5-50.5 0.2-15.7 0.7-29.1 1.1-29.8 0.6-0.9 6.5-1.2 24-1.2zm-17.3 57h40.5c9.5-5.6 11.8-7.9 14.2-12 1.8-3 3.5-7.3 3.9-9.5 0.3-2.2 0.1-6-0.5-8.5-0.6-2.5-2.6-6.5-4.4-8.9-1.7-2.4-5.2-5.6-7.7-7-4.4-2.5-5-2.6-25.2-2.9l-20.7-0.3zm-258.3-57c20 0 37 0.2 37.8 0.5 0.9 0.2 1.6 1.7 1.6 3.2 0 2.3-0.6 2.9-3.3 3.5-1.8 0.4-9.7 0.8-31.8 0.8l0.1 46.7c0 41-0.2 46.9-1.5 48-0.9 0.7-2.7 1-6.6 0.3v-95l-13.2-0.1c-7.3 0-14.9-0.3-17-0.7-3.2-0.6-3.8-1.2-3.9-3.3-0.1-1.4 0.2-2.9 0.6-3.3 0.5-0.3 17.2-0.6 37.2-0.6zm101.3 0.1c2-0.1 6.5 0.3 10 0.7 3.8 0.5 9.5 2.2 13.5 4.1 3.9 1.7 9.3 4.9 12 7 2.8 2.2 6.5 5.9 8.3 8.5 1.8 2.5 3.2 5.2 3.2 6.1 0 0.8-1.1 2-2.6 2.7-2.3 1.1-2.8 1-4.5-1.2-1.1-1.4-3.7-4.3-5.7-6.5-2-2.1-5.7-5.2-8.2-6.8-2.4-1.5-7.6-3.8-11.5-4.9-5.4-1.7-8.8-2-15-1.7-6.6 0.4-9.3 1.1-15.7 4.1-4.9 2.4-9.7 5.7-13.1 9-3.2 3.1-6.7 8.1-8.7 12.2-3.3 6.7-3.5 7.5-3.5 18.1 0 10.7 0.2 11.3 3.7 18.5 2.5 5.1 5.5 9.1 9.3 12.7 3 2.9 8.4 6.6 11.8 8.3 3.4 1.6 9.4 3.5 13.2 4 4.9 0.8 8.9 0.7 13 0 3.3-0.6 9.3-2.6 13.3-4.5 5.5-2.7 8.6-5.1 13-10 3.2-3.6 6.4-6.6 7.2-6.6 0.9 0 2.1 0.7 2.8 1.5 0.9 1.1 1 2.3 0.3 4.3-0.6 1.5-3.4 5-6.3 7.9-2.9 2.8-7.5 6.5-10.3 8.2-2.7 1.8-7.9 4.1-11.5 5.2-4.4 1.4-9.3 2-15.5 2-6.1 0-11-0.6-15.5-2-3.5-1.1-9.2-3.7-12.5-5.8-3.3-2.2-7.3-5.2-9.1-6.8-1.7-1.6-4.9-5.9-7.3-9.4-2.3-3.6-5-9.5-6.1-13-1.3-4.1-2-9.3-2-14 0.1-4.2 0.6-9.6 1.1-12 0.6-2.5 2.5-7.5 4.2-11 2-4.2 5.5-8.9 9.7-13.1 3.8-3.8 9.3-7.9 13-9.9 3.6-1.8 9.2-3.9 12.5-4.6 3.3-0.7 7.6-1.3 9.5-1.3z"/>
		<path id="Path 1" class="s1" d="m428.5 70.7c-0.5 0.3-0.8 23.1-0.7 50.5 0.1 27.4 0.4 50.5 0.7 51.3 0.4 1.3 5.4 1.5 36.8 1.5 27.6 0 36.6-0.3 38-1.2 1.2-0.8 1.7-2.2 1.5-3.8l-0.3-2.5-69.5-0.5c0-19 0.3-28 0.7-32.3l0.8-7.7h64.5v-6.5c-19-1.2-33.6-1.5-44.8-1.5h-20.2v-40h69c0-5-0.7-6.3-2-7-1.2-0.6-15.9-1-37.8-1-19.7 0-36.2 0.3-36.7 0.7zm-319.5 49.3v6h12v-12h-12z"/>
	</g>
</svg>