<svg version="1.2" xmlns="http://www.w3.org/2000/svg" viewBox="0 0 500 500" width="500" height="500">
	<title>tcer blanco</title>
	<style>
		.s0 { fill: #ffffff } 
	</style>
	<path id="Path 0" fill-rule="evenodd" class="s0" d="m253.6 154.8c33 0.1 62.6 0.6 65.9 1.1 3.3 0.5 8.9 2.2 12.5 3.9 3.6 1.7 8.9 5.3 11.9 7.9 3 2.6 7.2 7.5 9.3 10.8 2.2 3.3 4.8 9.1 6 13 1.7 5.8 2 8.6 1.5 16.5-0.3 5.2-1.3 11.5-2.2 14-0.9 2.5-3.1 7.2-4.8 10.5-1.8 3.2-5 7.7-7.2 9.8-2.2 2.1-7 5.4-10.8 7.3-3.7 1.9-6.9 3.8-7.2 4.4-0.3 0.5 0.1 2.2 0.9 3.7 0.7 1.6 4.4 8.3 8.2 15 3.8 6.7 9.8 17.5 13.4 24 3.6 6.4 7.1 13.1 7.8 14.8 0.7 1.6 1 3.6 0.7 4.2-0.3 0.8-2.4 1.3-5.2 1.3-3.3 0.1-5.3-0.5-6.5-1.7-0.9-1-8-13.1-15.8-26.8-7.8-13.8-15.3-27.1-16.6-29.8-1.3-2.6-2.4-6.4-2.4-8.5 0-2 0.4-4.2 0.8-4.8 0.4-0.6 2.3-1.4 4.2-1.8 1.9-0.3 6.2-1.9 9.5-3.5 3.3-1.5 7.8-4.6 10-6.8 2.2-2.2 5.5-7.1 7.4-10.9 3.2-6.4 3.5-7.6 3.5-16.4 0.1-8.7-0.2-10.1-3.1-16-2.1-4.4-5-8.2-9-11.8-3.5-3.3-7.9-6.1-11.3-7.4-4.9-1.8-7.8-2.1-26.5-2.1-11.6 0-25.2 0.1-39.5 0.3v139h41v7c0 4.9-0.4 7-1.2 7.1-0.7 0-12.8 0-26.8-0.1-22.9-0.1-26.4-0.4-34.5-2.4-4.9-1.3-12.6-4.2-17-6.4-4.4-2.3-11.8-7.2-16.4-10.9-4.7-3.7-10.9-9.9-13.8-13.8-3-3.9-7.1-10.4-9.2-14.5-2.2-4.3-4.8-11.7-6.1-17.5-2-8.6-2.2-11.7-1.8-22 0.5-9.5 1.2-13.7 3.3-20 1.5-4.4 3.9-10.3 5.3-13 1.3-2.8 4.1-7.5 6.2-10.5 2-3 7.6-9.1 20.8-21.5l-4.6-0.8c-2.6-0.4-6.3-0.7-8.2-0.7-1.9 0-4.1-0.5-4.8-1.2-0.7-0.7-1.3-3.2-1.4-5.5 0-3.2 0.4-4.5 1.9-5.5 1.6-1 13.9-1.2 61.9-1zm-29.1 22.5c-3.8 2-9.5 5.5-12.5 7.9-3 2.4-7.6 7.1-10.2 10.3-2.5 3.3-6.2 9.4-8.2 13.5-1.9 4.1-4.3 10.4-5.2 14-1.3 5-1.5 9.3-1.1 18.5 0.3 7.5 1.1 13.7 2.2 16.5 0.9 2.5 3.2 7.6 5.1 11.5 1.8 3.9 5.4 9.5 7.9 12.5 2.5 3 6.9 7.4 9.8 9.8 2.9 2.3 8.1 5.7 11.7 7.6 3.6 1.9 9.4 4.4 13 5.5 3.6 1.2 6.8 2.1 7.3 2.1 0.4 0 0.7-30.8 0.7-68.5 0-53.4-0.3-68.5-1.3-68.4-0.6 0-3.7 0.9-6.7 1.8-3 1-8.7 3.4-12.5 5.4zm61.5 66.3c1.9 0.2 4.3 0.4 5.3 0.4 1.5 0 2 1 2.3 4.7 0.3 2.7 0.2 5.6-0.1 6.5-0.4 1.5-1.7 1.8-14.5 1.8l-0.2-6.4c-0.3-5.7-0.1-6.5 1.7-7 1.1-0.2 3.6-0.3 5.5 0z"/>
</svg>