<?xml version="1.0" encoding="UTF-8"?>
<svg id="Capa_1" data-name="Capa 1" xmlns="http://www.w3.org/2000/svg" viewBox="0 0 470.15 747.24">
  <defs>
    <style>
      .cls-1, .cls-2, .cls-3 {
        fill: none;
      }

      .cls-4 {
        fill: #fad6bd;
      }

      .cls-5 {
        fill: #010101;
      }

      .cls-6, .cls-7 {
        fill: #fff;
      }

      .cls-8 {
        fill: #bfbebf;
      }

      .cls-9 {
        fill: #c0c0bf;
      }

      .cls-10 {
        fill: #1e2b4f;
      }

      .cls-11 {
        fill: #404040;
      }

      .cls-12 {
        fill: #1d1d1b;
      }

      .cls-13 {
        fill: #3f3f3f;
      }

      .cls-14 {
        fill: #808181;
      }

      .cls-15 {
        fill: #7a5132;
      }

      .cls-2 {
        stroke: #1d1d1b;
      }

      .cls-2, .cls-3 {
        stroke-miterlimit: 10;
        stroke-width: 1.36px;
      }

      .cls-3 {
        stroke: #696961;
      }

      .cls-7 {
        font-family: BigCaslon-Medium, 'Big Caslon';
        font-size: 50.87px;
        font-weight: 500;
      }
    </style>
  </defs>
  <text class="cls-7" transform="translate(149.17 712.83)"><tspan x="0" y="0">Firmeza </tspan></text>
  <path class="cls-15" d="m348.39,484.01c3.9,4.85,7.4,9.51,10.52,13.97,2.51,3.58,4.79,7.04,6.86,10.36,13.08,21.06,17.6,36.8,19.43,46.35,2.96,15.51,5.65,50.59,5.77,52.22.64,8.56.15,6.61.72,13.19,1.1,12.62,2.49,14.98,0,18.46-4.17,5.85-15.59,9.75-22.37,7.39-6.59-2.3-7.55-10.05-7.94-13.72-4.21-39.4-.93-59.35-5.05-75.44-9.47-36.89-27.43-65.52-41.86-84.4l-15.83-19.58,1.08-8.11,9.17-3.23,13.07,15.84,4.23-3.21s36.81,46.96,38.38,52.33"/>
  <path class="cls-15" d="m175.16,281.32s10.07,14.85,3.72,22.5l43.92,26.67,15.87,14.56,7.44-10.55,35.87-25.48s-8.98-5.35-.08-21.01c0,0-33.34,11.11-106.74-6.69Z"/>
  <path class="cls-15" d="m130.4,442.4c-5.05-3.87-10.29-7.22-15.46-10.9-4.97-3.54-9.19-7.81-14.35-11.15-.6-.39-1.11-.82-1.54-1.28-.56-.46-1.05-.98-1.46-1.57-.66-.38-1.31-.75-1.97-1.12-1.65-.64-3.17-1.59-4.5-2.92-.44-.44-.79-.94-1.1-1.45l-45.5,108.24-.19,3.5,2.13,2.8,3.01-1.52,7.16-15.17-2.21,11.03-1.79,9.89-.42,5.31,1.83,2.78,2.47.17,4.03-2.23,1.13-4.71,1.39-8.15,1.68-8.08.15-2.35-.82,13.6-.16,3.32.17,4.3-.43,5.75.32,2,2.29,2.05,3.81-.34,2.22-1.66.92-3.8-.14-5.37.31-7.63v-5.89l.35-5.04,1.17,8.55,1.08,7.79.89,6.26.64,4.25,1.16,2.88,3.39,1.19,2.52-.74,1.63-1.59.38-2.83-1.64-30.69.81-3.92.98-.39,2.07,4.81,2.88,6.86,1.06,5.75,4.21,3.48,2.4-.35h2.07l3.78-.51-.9-4.68-2.76-5.18-2.92-9.73-.77-9.28.77-3.87,1.99-4.89,4.58-6.43,20.57-30.99,4.99-7.95c-.11-.07-.22-.13-.33-.21Z"/>
  <path class="cls-15" d="m414.68,518.18l-7.24-17.68-13.07-26.53-16.69-35.01-9.14-19.55c-.68.74-1.39,1.43-2.12,2.11-.18.55-.42,1.11-.75,1.67-3.15,5.41-10.07,8.58-14.71,12.61-7.03,6.11-13.84,12.45-21.06,18.33-.69.57-2.18,2.47-2.18,2.47l26.76,35.75,2.64,5.01,1.5,6.6-2.4,9.98-6.9,14.87.42,1.79,2.52,1.03,5.42.31,3.81-1,2.28-2.65,1.76-3.71,2.58-7.2,1.97-5.82,1.31-.7.48,4.32.19,5.28-1.82,24.47.79,3.82,3.25.51,2.9-.06,2.14-.69,1.39-2.63,1.38-8.68,1.12-7.31,1.55-9.99.44,22.44,1.13,4.2,2.72,1.91,4.11-.27,1.27-.78-.06-3.42.06-12.05.36-9.11,3.87,14.5,1.56,4.86,4,1.45,2.66-1.16.41-3.76-1.15-7.95-3.74-18.31,9.65,17.36,3.35,1.33,1.74-4.25-2.43-8.75Z"/>
  <polygon class="cls-15" points="368.49 564.76 367.62 563.05 368.35 562.87 368.49 564.76"/>
  <polygon class="cls-15" points="368.49 564.76 367.62 563.05 368.35 562.87 368.49 564.76"/>
  <polygon class="cls-15" points="371.44 526.16 367.19 517.92 371.05 508.6 372.93 516.52 371.44 526.16"/>
  <path class="cls-15" d="m421.04,174.54c0,36.32-11.86,66.85-37.26,66.85s-28.6-7.56-28.6-7.56c-11.1,19.25-26.69,33.37-48.63,44.42-34,17.13-68.72,16.65-76.72,16.39-11.5-.39-58.83-1.95-90.96-29.72-5.41-4.65-10.39-10.08-14.69-16.36-3.76-5.49-6.2-10.45-7.67-13.81,0,.68-.62,6.63-22.39,6.63-23.07,0-33.84-30.54-33.84-66.85s41.85-27.09,41.85-27.09C105.72-41.02,308.48,11.8,313.02,17.24c4.53,5.44,45.36-17.24,45.36-17.24,0,4.24-16.34,23.3-16.34,23.3,23.59.29,22.96,27.51,22.96,27.51-6.66-16.59-20.04-7.22-20.04-7.22,14.01,23.5,24.29,49.34,28.65,76.41,1.61,10.05,2.4,20.21,2.33,30.35,6.69-1.55,45.08-8.97,45.08,24.2Z"/>
  <path class="cls-15" d="m313.27,615.92c-.94,1.5-1.92,3.01-2.98,4.45-3.28-.36-7.03,1.14-8.72,4.45-3.94-2.58-10.28-1.89-12.01,4,.43-1.44.25-.4-1.25.15-1.21.45-2.5.63-3.77.79-5.23.6-10.47.32-15.71,1.08-1.96.29-3.48,1.61-4.44,3.29l-1.16-1.99-4.07-9.66-12.42-6.56.56-16.2-1.44-47.59.91-54.49c-9.46,2.04-24.69,3.62-35.3,1.07l.29,2.01-2.88,31.59-5.24,57.3-1.44,28.59c-.42.91-.65,1.93-.65,3.03v7.59l-1.45,3.03-5.83,2.8c-5.72-.34-11.39,1.04-16.39,3.73l-.17-.43-.19.63c-2.35,1.31-4.56,2.92-6.52,4.81-2.18.15-4.34.31-6.49.46-.34.03-.68.06-1.04.09-8.16-6.93-15.04-15.52-24.94-20.44,1.21-1.86,2.29-3.68,3.25-5.58.34.05.68.06,1.02.05,1.93-.08,3.71-.73,5.16-2.01.06-.05.12-.08.2-.12.66-.26,1.28-.59,1.81-1.08.85-.54,1.52-1.27,1.99-2.16.56-.88.87-1.82.91-2.84,1.5-1.67,2.27-4,1.55-6.86-3.29-13.02-5.4-26.92-6.91-40.63l-.19-8.66-1.04-48.5-1.27-64.18.8-1.05,19.26,6.34,15.21,3.88,11.55,2.44,32.25,4.58,11.18,1.14,18.26-.6,11.15-.49,16.06-1.33,15.92-3.51,11.92-4.76c-.02.11-.02.22-.02.34.03,2.23.14,4.47.29,6.68-.03.23-.05.48-.06.71-.43,14.32.68,28.74.54,43.11-.31,32.07-2.97,64.12-7.96,95.78-.91,5.78-2.58,12.14,3.17,15.63,2.09,2.74,5.41,4.87,8.69,6.12Z"/>
  <path class="cls-4" d="m137.59,262.99c-5.76-22.68-10.63-45.73-12.08-69.13-2.07-33.41,2.5-71.3,28.09-95.19,4.49-4.19,9.39-7.99,14.85-10.8,11.43-5.88,25.16-7.1,37.45-3.33,6.97,2.14,13.42,5.87,18.83,10.75,2.78,2.52,5.29,5.34,7.45,8.41.99,1.41,2.14,3.93,4.12,2.99,1.38-.65,2.71-4.17,3.63-5.44,2.58-3.56,5.7-6.72,9.17-9.42,7.11-5.53,15.68-9.17,24.55-10.63,15.42-2.53,31.41,1.08,45.41,8.02,5.15,2.55,10.12,5.58,14.25,9.57,3.1,2.99,5.67,6.48,7.92,10.15,8.85,14.42,12.59,31.44,14.08,48.3,1.42,16.01.92,32.18-1.44,48.08-2.27,15.3-6.87,29.89-11.27,44.62l-.16,1.1-6.59,6.47-2.44,2.77-5.98,5.08-3.56,2.43-3.16,2.33-4.97,2.62-6.14,3.95-7.33,3.46-10.63,4.3-10.55,3.68-12.74,3.18-12.7,1.92-15.77,1.23-13.85.27-15.27-1.19-16.73-2.76-13.08-3.41-16.31-5.87-10.59-5.6-14.2-9.32-2.26-3.56Z"/>
  <path class="cls-4" d="m59.16,485.77c-.13.26,0,.9,0,1.2,1.88.26,4.44-.34,6.09.71.42.27.77.63,1.21.85,1.56.78,3.65-.46,5.12.48.39.25.69.63,1.02.95,1.52,1.46,4.09,1.66,5.82.45,1.77,1.7,4.3,2.57,6.74,2.31,0,.54,0,1.08,0,1.62,1.93-.16,3.81-.79,5.46-1.81-.17.11,3.76,1.66,4.37,1.63,1.43-.06,2.51-.85,3.78-1.46l-.95,4.58.72,6.74,1.49,6.2,1.62,4.72,2.28,5.53,1.46,3.33v2.18l-3.08.55-4.33.66-4.06-1.76-1.32-3.19-3.7-9.45-1.51-5.48-.68-1.37-1.11,1.78-.39,5.82.61,10.61.33,6.31.24,5.2.16,5.45-.38,2.83-2.31,1.79h-4.4l-1.88-2.93-.72-5.09-2.05-14.1-.68-2.87-.65,6.43-.08,5.61-.1,3.83-.27,4.49-2.14,3.18-2.91.64-2.63-.21-1.72-3.22.08-6.38v-5.89l.14-7.94-1.44,6.77-1.54,8.57-4.39,2.95-2.47-.17-1.83-2.78v-4.25l.85-5.48,1.64-7.26.85-3.89-1.8.74-1.94,4.1-2.85,5.45-2.5,1.05-2.3-1.01-.89-3.66.76-4.97s14.96-31.29,15.15-31.68Z"/>
  <path class="cls-4" d="m357.33,510.02c-.27,1.22-.62,2.42-1.06,3.58-.84,2.24-1.97,4.37-2.85,6.59-.66,1.66-1.18,3.38-2.05,4.94-.96,1.72-2.39,3.62-1.64,5.44,2.49.92,5.15,1.57,7.79,1.3,2.64-.27,5.28-1.57,6.66-3.84.51-.83.83-1.76,1.15-2.68,1.68-4.84,3.33-9.7,5.05-14.53,1.78,1.67,1.45,3.98,1.5,6.35.08,3.13-.05,6.25-.25,9.37-.39,6.16-1.06,12.3-1.07,18.48,0,1.58.11,3.33,1.25,4.43.56.54,1.31.84,2.07,1.03,2,.5,4.4.13,5.65-1.51.76-1,.98-2.3,1.18-3.54,1.24-7.78,2.55-15.54,3.75-23.33-.17,1.12.22,2.73.26,3.92.05,1.76.1,3.52.16,5.28.1,3.52.21,7.04.31,10.56.08,2.62.39,5.67,2.61,7.06.81.51,1.78.71,2.74.78,1.45.11,3.04-.12,4.06-1.16,1.22-1.23,1.26-3.16,1.21-4.89-.18-6.54-.72-13.07-.83-19.61.04,2.09,1.02,4.54,1.48,6.59.63,2.8,1.25,5.61,1.88,8.41.27,1.21.57,2.48,1.4,3.39.92,1.02,2.34,1.42,3.69,1.63,1.44.23,3.16.19,4.07-.96.69-.87.67-2.09.58-3.2-.31-4.1-.98-8.16-1.83-12.18-.8-3.79-2.57-7.95-2.79-11.78.04.6,1.48,2.05,1.83,2.62.61,1,1.16,2.03,1.69,3.06,1.13,2.18,2.23,4.38,3.33,6.57.42.83.85,1.67,1.52,2.31,1.21,1.15,3.16,1.43,4.64.66.21-.11.41-.23.55-.41.16-.2.26-.44.34-.69,1.06-3.08.03-5.35-.98-8.27-1.14-3.28-2.36-6.53-3.69-9.74l-5.52-12.15-2.19-4.63-1-1.83-2.11-.07-1.17,1.35-3.25.72-2.01-.45-1.96,1.09h-2.53l-2.8-.72v1.73s-1.98,1.42-1.98,1.42l-2.8-1.42-2.54-.38-1.25,1.98-2.07.18-2.53-.54-.99,1.17-1.89.72-2.59-.59-.83-.59-.81.99-2.43.67h-2.62l-1.71-.22h-1.08c-.67,0-1.37-.1-2.04-.17-.44,1.92.04,4.08-.12,6.07-.1,1.22-.28,2.42-.54,3.61Z"/>
  <path class="cls-4" d="m147.59,650.18c-1.04,0-2.12.08-3.16,0-1.56-.13-2.94-.92-4.39-1.54-.16-.07-.33-.14-.44-.27-.12-.13-.17-.32-.22-.49-.29-1.05-.98-2.47-.99-3.54-.01-1.16.75-2.63,1.04-3.76-1.91-1.08-3.24-3.13-3.45-5.31s.71-4.45,2.38-5.87c-2.48-1.51-3.34-4.64-3.98-7.48-.13-.57-.26-1.16-.12-1.73.37-1.56,2.31-2.02,3.87-2.37,6.79-1.55,12.18-6.55,17.22-11.36.99,2.13,2.29,4.52,4.59,4.95-.53.68-.52,1.72.03,2.39,1.37-.71,2.92.52,3.93,1.68s2.37,2.51,3.84,2.05c.41,1.15.82,2.31,1.23,3.46,1.32-.36,2.7.32,3.75,1.2,1.05.87,1.93,1.96,3.11,2.65,1.12.66,2.43.91,3.71,1.16,2.77.53,5.54,1.05,8.31,1.58,1.26.24,2.81.37,3.56-.67,2.31,1.27,4.93,1.97,7.57,2.04.11-.56.21-1.12.32-1.68.97-.16,1.91.59,2.29,1.5s.35,1.93.31,2.91c-.18,4.41-.35,8.82-.53,13.24-.07,1.88-.29,4.04-1.83,5.12-1.83,1.29-4.39.27-6.21-1.05-3.54-2.55-6.32-6.15-7.91-10.21-2,4.02-5.32,7.27-9.1,9.7-3.77,2.43-8,4.07-12.28,5.43-2.69.85-5.4,1.6-8.12,2.33-2.13.57-6.68,1.78-8.12-.68-.48-.82-.55-1.82-.47-2.76.17-2.24,1.14-7.15,3.51-7.99,3.32-1.19,6.64-2.38,9.96-3.58"/>
  <path class="cls-4" d="m303.08,609.1c.11-.09,8.43,4.52,9.18,4.95,1.26.71,2.54,1.43,3.61,2.41,1.07.98,1.94,2.24,2.17,3.68.12.78.06,1.58-.19,2.33-.44,1.3-1.5,2.42-2.84,2.75-.86.21-1.76.1-2.64-.04-2.05-.33-4.18-1.13-6.19-1.3.76.06,2.68,1.99,3.25,2.47,1.32,1.09,2.52,2.32,3.59,3.65.92,1.15,1.77,2.51,1.63,3.97-.06.69-.36,1.36-.83,1.88-1.2,1.32-3.19,1.43-4.97,1.45-.84,0-1.69.02-2.49-.24-.51-.17-.98-.44-1.44-.7-2-1.16-3.99-2.54-6.1-3.46.27.76.55,1.53.82,2.29.54,1.51,1.58,3.11,1.16,4.76-.25.96-.84,1.8-1.55,2.49-.15.15-.32.29-.52.35-.18.05-.38.03-.57.01-2.15-.24-4.32-.43-6.45-.77-.02,0,.07,2.45-.01,2.67-.54,1.42-3.02,2.98-4.32,3.64-1.51.77-3.27,1.13-4.93.78-2.11-.45-3.84-2-5.12-3.74-1.02-1.39-1.96-4.89-4.02-4.89,0,0-4.04.5-4.06.5-2.74.34-5.72.19-8.43-.22-.61-.09-1.23-.21-1.75-.53-.49-.31-.86-.77-1.21-1.24-2.54-3.41-4.51-7.2-6.23-11.08-.89-2-1.71-4.03-2.51-6.06-.29-.74-1.99-3.29-1.82-4.02.15-.61-.72-1.28-.56-1.88,3.23,1.05,7.22,2.4,10.33.05,1.32,1.08,2.84,2.04,4.54,2.18,1.7.14,3.58-.79,4.05-2.43.98.39,1.98.79,3.03.89s2.19-.13,2.96-.85c1.48.79,3.1,1.57,4.77,1.38s3.28-1.79,2.84-3.42c1.94,1.16,4.01,2.1,6.16,2.8.35-.51.7-1.02,1.05-1.53,2.25.27,4.53.25,6.78-.05.19-.42.37-.84.56-1.26.08-.18,3.35-.41,3.76-.5,1.22-.26,2.77-.53,3.82-1.23,1.03-.69,1.27-1.78,1.71-2.88Z"/>
  <line class="cls-3" x1="280.05" y1="310.39" x2="246.17" y2="334.48"/>
  <path class="cls-2" d="m116.14,234.74v-.03"/>
  <line class="cls-2" x1="215.92" y1="201.23" x2="221.63" y2="199.6"/>
  <line class="cls-2" x1="242.42" y1="198.16" x2="247.32" y2="200.41"/>
  <polygon class="cls-6" points="162.65 318.49 173.84 300.22 194.31 313.19 220.54 329.12 228.58 334.48 238.68 345.06 242.89 339.09 247.04 333.66 254.91 327.59 274.2 314.55 283.7 307.79 286.25 305.97 292.39 314.51 300.56 325.87 309.76 332.73 320.87 340.77 332.94 350.84 343.31 362.47 347.25 368.65 351.68 379.05 352.91 384.28 357.79 392.04 361.89 399.35 368.07 410.37 372.42 418.03 367.53 422.23 348.24 438.21 333.32 451.78 323.55 460.25 318.44 452.15 315.57 447.19 314.01 444.99 306.14 448.49 284 454.98 254.6 458.27 222.99 457.12 189.62 452.54 153.2 443.23 142.5 439.28 139.05 447.96 132.03 443.45 107.82 425.85 89.27 412.66 94.99 404.8 100.65 398.84 107.85 384 111.54 374.67 116.8 362.07 121.21 354.95 135.02 340.54 150.82 327.52 162.65 318.49"/>
  <g>
    <path class="cls-1" d="m104.58,377.74c-15.14,32.93-27.78,66.34-43.5,99.08,0,0-17.56,38.61-17.82,45.06-.26,6.45,5.53,5.52,7.24,1.58s6.59-14.6,6.59-14.6c0,0-5.27,21.97-4.87,27.23.4,5.26,8.03,2.63,8.69,0,.66-2.63,4.08-23.94,4.08-23.94,0,0-1.58,22.89-1.32,28.81.26,5.92,8.69,4.08,9.35,0s.53-27.62.53-27.62c0,0,3.16,23.42,4.08,28.94.92,5.52,8.69,3.68,8.96,0,.26-3.68-1.32-29.33-1.32-29.33,0,0,.13-7.24,1.05-7.89s4.74,18.55,8.56,20.65c3.82,2.1,11.05.81,11.06-.92.01-1.69-14.06-24.97-4.69-37.68,19.12-25.94,34.96-53.92,53.28-81.97l3.53,164.31s-11.56,11.54-18.25,11.9c-6.68.36-2.17,11.73,1.26,11.37,3.43-.36,11.2-1.8,11.2-1.8"/>
    <path class="cls-3" d="m163.41,317.58c-11.1,9.08-22.95,17.32-33.14,27.47-4.94,4.92-9.45,10.3-13.04,16.3-3.24,5.41-5.13,11.43-6.96,17.42-1.4,4.58-3.58,8.8-5.86,12.99-1.28,2.35-2.58,4.69-3.76,7.09"/>
    <path class="cls-3" d="m300.02,325.87c22.51,16.08,47.2,30.74,52.9,57.97"/>
    <path class="cls-3" d="m280.05,310.39l6.21-4.41,14.88,20.69s-3.75,2.25-14.33,4.75c-10.58,2.51-30.34,25.61-30.34,23.38s-10.3-20.32-10.3-20.32l-7.49,10.58,1.65,9.74"/>
    <polyline class="cls-3" points="238.68 345.06 222.84 330.46 223.96 354.95 208.97 348.54 198.68 341.61 168.7 319.68 162.65 318.49 173.84 300.22 222.84 330.46"/>
    <line class="cls-3" x1="139.05" y1="448.51" x2="142.5" y2="439.28"/>
    <path class="cls-3" d="m142.5,359.95s.35,63.56-12.57,69.85c-12.92,6.29,120.84,52.04,188.94,12.57,0,0,4.54-4.93-1.75-10.85"/>
    <path class="cls-3" d="m311.54,436.66s16.67.91-4.79-58.93"/>
    <polyline class="cls-3" points="315.32 446.76 323.28 460.52 372.16 417.67 352.74 383.04"/>
    <path class="cls-3" d="m101.06,398.39c-4.7,4.07-8.31,9.15-11.67,14.34l49.66,35.78"/>
  </g>
  <path class="cls-15" d="m327.77,457.59l-2.19,1.37,2.19-1.37Z"/>
  <ellipse class="cls-6" cx="178.86" cy="175.39" rx="34.79" ry="28.03"/>
  <ellipse class="cls-12" cx="180.07" cy="169.4" rx="29.67" ry="24.24"/>
  <ellipse class="cls-6" cx="291.02" cy="173.19" rx="34.79" ry="28.03"/>
  <ellipse class="cls-12" cx="291.02" cy="168.35" rx="29.67" ry="24.24"/>
  <path class="cls-15" d="m250.42,134s-6.57,35.32,85.02,20.95c0,0-22.68-23-34.54-23s-42.67,5.34-50.47,2.05Z"/>
  <path class="cls-15" d="m215.62,136.19s6.26,35.32-81.02,20.95c0,0,21.61-23,32.92-23s40.66,5.34,48.1,2.05Z"/>
  <line class="cls-2" x1="197.72" y1="241.88" x2="272.43" y2="241.88"/>
  <g id="Background">
    <path id="Path_0" data-name="Path 0" class="cls-6" d="m189.29,341.04h-46.01v63.76h63.76v-51.9"/>
    <path id="Path_1" data-name="Path 1" class="cls-5" d="m163.93,356.14c-.18.19-.2.28-.19.82,0,.33.02.71.06.83.03.13.12.26.2.29.07.04.93.1,1.91.14.97.03,1.77.08,1.77.1s-.37.3-.81.63c-.45.33-1.17.94-1.61,1.35-.43.42-1,1.05-1.28,1.4-.28.35-.69.92-.91,1.25-.23.34-.41.65-.41.68,0,.04-.08.19-.18.34s-.37.71-.59,1.24c-.22.53-.53,1.31-.66,1.75-.14.44-.32,1.21-.41,1.71-.12.71-.16,1.27-.16,2.51,0,.88.02,1.74.05,1.91.02.18.12.68.21,1.12s.26,1.1.37,1.47c.12.37.36,1.02.54,1.43s.54,1.12.8,1.55c.26.44.74,1.17,1.08,1.63s.95,1.17,1.36,1.58c.41.41.77.74.8.73.02,0,.17.11.33.26.15.14.62.49,1.04.78s.98.65,1.27.83c.29.17.88.48,1.31.69s1.16.49,1.59.63,1.25.33,1.82.45c.56.11,1.08.23,1.15.26.08.04,2.25.08,4.82.08l4.69.02v-2.39h-7.57v-25.94c4.54-.1,6.99-.11,8.37-.08,1.73.04,2.69.09,3.07.18.31.06.88.27,1.28.46.4.19.95.52,1.24.73.29.22.73.63,1,.92s.62.77.8,1.07c.18.3.42.8.55,1.11.12.31.26.79.33,1.08s.11.95.11,1.47-.06,1.19-.11,1.47c-.06.29-.26.84-.42,1.24-.18.39-.49.99-.69,1.31-.21.33-.55.77-.75.98-.21.22-.59.54-.85.73-.26.19-.78.49-1.16.67-.37.18-.75.33-.84.35-.09,0-.2.05-.24.07-.04.03-.38.13-.76.21l-.68.15v2.06c1.28,2.29,2.3,4.06,3.07,5.42.78,1.36,1.76,3.1,2.19,3.87.42.77.88,1.51,1,1.63.23.24.25.24,1.06.24.61,0,.85-.03.96-.12.07-.06.14-.21.13-.32,0-.11-.21-.57-.45-1.04-.25-.46-1.35-2.41-2.46-4.34-1.1-1.93-2.28-3.98-2.61-4.57-.33-.57-.61-1.07-.61-1.09s.49-.29,1.09-.58c.61-.3,1.31-.69,1.58-.85s.71-.52.99-.79c.28-.27.64-.69.8-.92.16-.24.46-.77.67-1.18.2-.4.48-1.01.61-1.35.14-.33.33-.99.45-1.45.17-.69.21-1.03.21-1.95,0-.86-.04-1.28-.17-1.79-.09-.37-.26-.95-.37-1.28-.12-.33-.34-.83-.49-1.12-.16-.29-.45-.75-.65-1.04s-.65-.8-1.01-1.16c-.35-.35-.92-.84-1.28-1.08-.34-.24-.95-.58-1.35-.77s-.86-.37-1.04-.43-.37-.12-.44-.14c-.06-.02-.21-.05-.32-.06s-.38-.07-.6-.12c-.29-.07-3.32-.1-11.87-.13l-11.48-.03-.19.21Z"/>
    <path id="Path_2" data-name="Path 2" class="cls-10" d="m180.22,372.31c-.03.06-.04.61-.02,1.22l.02,1.11,2.43.04-.04-2.43c-2.14-.05-2.35-.03-2.39.06h0Z"/>
    <path id="Path_3" data-name="Path 3" class="cls-13" d="m180.62,358.23c.75.02,1.93.02,2.63,0,.7,0,.09-.02-1.35-.02s-2.02.02-1.28.02Z"/>
    <path id="Path_4" data-name="Path 4" class="cls-14" d="m166,355.92c.85.02,2.22.02,3.03,0,.81,0,.11-.02-1.55-.02s-2.33,0-1.47.02Zm9.64,0c1.08.02,2.85.02,3.94,0,1.1,0,.22-.02-1.95-.02s-3.07,0-1.99.02Z"/>
    <path id="Path_5" data-name="Path 5" class="cls-11" d="m171.34,355.92c.37.02,1,.02,1.39,0,.39,0,.09-.02-.68-.02s-1.09.02-.72.02Z"/>
    <path id="Path_6" data-name="Path 6" class="cls-9" d="m182.41,355.92c.46.02,1.18.02,1.59,0,.41,0,.04-.02-.84-.02s-1.22.02-.76.02Z"/>
    <path id="Path_7" data-name="Path 7" class="cls-6" d="m172.81,358.69c-.39.1-1.04.31-1.43.46-.39.15-1,.42-1.35.61-.35.18-.8.41-1,.53-.2.11-.69.45-1.08.75-.39.3-1.02.87-1.39,1.25-.37.39-.88.98-1.12,1.31-.24.33-.57.81-.73,1.08-.15.26-.41.75-.56,1.08s-.34.74-.41.92c-.08.18-.15.35-.16.4-.02.05-.12.42-.23.84-.12.41-.23.87-.26,1s-.06.35-.07.48-.06.65-.09,1.16c-.03.58-.02,1.29.05,1.95.05.57.18,1.38.29,1.79.11.41.31,1.04.45,1.39.14.35.41.96.61,1.35s.5.95.68,1.24c.18.29.55.79.81,1.12.27.33.83.92,1.24,1.31.41.38,1.09.93,1.51,1.21.41.27,1.2.72,1.75.98.55.26,1.37.58,1.83.73.46.14.89.27.96.29s.25.06.4.08l.28.03c.1-6.71.12-10.54.12-12.84s-.02-6.1-.05-8.43c-.05-3.83-.06-4.24-.18-4.24-.07,0-.45.1-.84.2h0Z"/>
    <path id="Path_8" data-name="Path 8" class="cls-8" d="m173.84,362.08c0,1.08.02,1.51.02.96.02-.55.02-1.43,0-1.95,0-.53-.02-.08-.02,1Zm0,18.21c0,1.05.02,1.47.02.92.02-.55.02-1.41,0-1.91,0-.5-.02-.06-.02,1Z"/>
  </g>
</svg>