<?xml version="1.0" encoding="UTF-8"?>
<svg id="Capa_1" data-name="Capa 1" xmlns="http://www.w3.org/2000/svg" viewBox="0 0 449.27 725.86">
  <defs>
    <style>
      .cls-1 {
        font-family: BigCaslon-Medium, 'Big Caslon';
        font-size: 48.62px;
        font-weight: 500;
      }

      .cls-1, .cls-2 {
        fill: #fff;
      }

      .cls-3 {
        fill: #fad6bd;
      }

      .cls-4 {
        fill: #010101;
      }

      .cls-5 {
        fill: #bfbebf;
      }

      .cls-6 {
        fill: #c0c0bf;
      }

      .cls-7 {
        fill: #1e2b4f;
      }

      .cls-8 {
        fill: #404040;
      }

      .cls-9 {
        fill: #3f3f3f;
      }

      .cls-10 {
        fill: #808181;
      }

      .cls-11 {
        fill: #7a5132;
      }

      .cls-12 {
        stroke: #1d1d1b;
      }

      .cls-12, .cls-13, .cls-14 {
        fill: none;
        stroke-miterlimit: 10;
        stroke-width: 1.32px;
      }

      .cls-13 {
        stroke: #6a6a61;
      }

      .cls-14 {
        stroke: #696961;
      }
    </style>
  </defs>
  <polygon class="cls-2" points="90.4 409 92 402.68 92.67 391.11 94.18 382.41 99.02 373.5 103.68 363.96 107.59 350.57 113.68 340.01 119.98 331.74 131.16 320.61 149.07 305.94 163.26 294.79 165.65 292.85 163.26 291.03 165.65 282.22 168.95 270.12 171.11 262.17 171.36 261.27 174.46 263.15 186.65 270.12 214.89 286.47 230.62 300.24 238.84 289.65 250.13 282.09 272.7 266.88 274.39 267.53 285.72 285.43 288.58 289.96 283.55 294.77 297.22 304.57 315.27 318.47 331.45 333.25 344.75 349.89 349.26 358.76 356.86 381.52 362.91 399.31 367.96 414.17 365.05 415.75 338.76 424.95 305.23 437.12 305.01 430.51 299.02 433.17 280.61 437.82 258.4 441.01 234.27 441.01 199.36 437.69 157.68 428.65 152.39 426.79 140.19 422.65 141.38 433 126.25 425.42 103.17 414.86 90.4 409"/>
  <g id="Background">
    <path id="Path_0" data-name="Path 0" class="cls-2" d="m142.26,352.36v23.89h47.79v-47.79h-47.79v23.89Z"/>
    <path id="Path_1" data-name="Path 1" class="cls-4" d="m157.73,339.79c-.13.14-.15.21-.14.62,0,.25.02.53.04.62.02.1.09.19.15.22.05.03.7.08,1.43.11.73.02,1.33.06,1.33.08s-.27.23-.61.47c-.34.24-.88.7-1.21,1.02-.32.32-.75.79-.96,1.05-.21.26-.51.69-.68.94-.17.26-.31.48-.31.51,0,.03-.06.14-.14.26s-.27.53-.44.93c-.17.39-.39.99-.5,1.31s-.24.91-.31,1.28c-.09.53-.12.95-.12,1.88,0,.66.01,1.3.04,1.43.02.13.09.51.16.84s.19.82.27,1.11c.09.28.27.76.41,1.08s.41.84.6,1.16.56.88.81,1.22.71.88,1.02,1.18c.31.3.58.56.6.55.02,0,.13.08.24.19.11.11.47.37.78.59s.73.49.95.62c.22.13.66.36.99.51s.87.37,1.19.47.94.25,1.36.33c.42.08.81.17.86.2.06.03,1.68.06,3.61.06h3.51s0-1.78,0-1.78h-5.67v-19.44c3.4-.08,5.24-.08,6.27-.06,1.3.03,2.01.07,2.3.13.23.05.66.2.96.35.3.14.71.39.93.55.22.17.55.47.75.69s.47.58.6.8c.13.23.32.6.41.83.09.23.2.59.24.81s.08.71.08,1.11-.04.89-.08,1.11c-.05.22-.19.63-.32.93-.13.29-.36.74-.52.99-.16.24-.41.58-.56.73-.16.16-.44.41-.64.55-.2.14-.59.37-.87.5-.28.13-.56.25-.63.26-.07,0-.15.04-.18.05-.03.02-.29.1-.57.16l-.51.11v1.54c.96,1.71,1.72,3.04,2.3,4.06.59,1.02,1.32,2.32,1.64,2.9.32.57.66,1.13.75,1.22.17.18.19.18.79.18.46,0,.64-.02.72-.09.05-.05.1-.16.1-.24,0-.08-.16-.43-.34-.78-.19-.35-1.02-1.81-1.85-3.26-.82-1.45-1.71-2.99-1.96-3.42-.25-.43-.45-.8-.45-.82s.37-.22.82-.44c.45-.23.99-.51,1.18-.64s.53-.39.74-.59.48-.51.6-.69c.12-.18.35-.58.5-.88.15-.3.36-.76.46-1.02.1-.25.25-.74.33-1.09.13-.52.16-.77.16-1.46,0-.65-.03-.96-.13-1.34-.07-.28-.2-.71-.28-.96-.09-.24-.26-.62-.37-.84-.12-.22-.34-.56-.49-.78s-.49-.6-.76-.87c-.26-.26-.69-.63-.96-.81-.26-.18-.71-.44-1.01-.57s-.65-.28-.78-.32-.28-.09-.33-.11c-.05-.01-.16-.04-.24-.05s-.29-.05-.45-.09c-.22-.05-2.49-.08-8.9-.1l-8.61-.02-.14.16Z"/>
    <path id="Path_2" data-name="Path 2" class="cls-7" d="m169.95,351.9s-.03.46-.02.91l.02.83,1.82.03-.03-1.82c-1.6-.04-1.76-.02-1.79.05h0Z"/>
    <path id="Path_3" data-name="Path 3" class="cls-9" d="m170.25,341.35c.56.01,1.45.01,1.97,0,.53,0,.07-.02-1.02-.02s-1.52.01-.96.02Z"/>
    <path id="Path_4" data-name="Path 4" class="cls-10" d="m159.28,339.62c.64.01,1.66.01,2.27,0,.61,0,.08-.01-1.16-.01s-1.74,0-1.11.01Zm7.23,0c.81.01,2.14.01,2.96,0,.82,0,.16-.01-1.46-.01s-2.3,0-1.49.01Z"/>
    <path id="Path_5" data-name="Path 5" class="cls-8" d="m163.29,339.62c.28.01.75.01,1.05,0,.29,0,.07-.02-.51-.02s-.82.01-.54.02Z"/>
    <path id="Path_6" data-name="Path 6" class="cls-6" d="m171.59,339.62c.35.01.88.01,1.19,0,.31,0,.03-.02-.63-.02s-.91.01-.57.02Z"/>
    <path id="Path_7" data-name="Path 7" class="cls-2" d="m164.39,341.7c-.29.08-.78.23-1.08.35-.29.11-.75.32-1.02.45-.26.13-.6.31-.75.39-.15.08-.51.33-.81.56-.29.23-.76.65-1.05.94-.28.29-.66.73-.84.98-.18.24-.43.61-.55.81-.11.2-.3.56-.42.81s-.26.56-.31.69c-.06.13-.11.26-.12.3-.01.04-.09.32-.17.63-.09.31-.17.65-.19.75s-.04.26-.05.36-.04.49-.07.87c-.02.44-.01.97.04,1.46.04.42.14,1.03.22,1.34.08.31.23.78.33,1.05.1.26.3.72.45,1.02s.38.71.51.93c.14.22.41.59.61.84.2.24.62.69.93.98.31.29.82.7,1.13.91.31.2.9.54,1.31.73.41.19,1.03.44,1.37.54.35.1.67.2.72.22s.19.05.3.06l.21.02c.07-5.03.09-7.9.09-9.62s-.02-4.57-.04-6.32c-.04-2.87-.05-3.18-.14-3.18-.05,0-.34.07-.63.15h0Z"/>
    <path id="Path_8" data-name="Path 8" class="cls-5" d="m165.16,344.24c0,.81.01,1.13.02.72.01-.41.01-1.07,0-1.46,0-.39-.02-.06-.02.75Zm0,13.65c0,.79.01,1.1.02.69.01-.41.01-1.06,0-1.43,0-.38-.02-.04-.02.75Z"/>
  </g>
  <path class="cls-11" d="m167.52,240.57s9.98,14.03,3.68,21.26l43.53,25.21,15.73,13.76,7.37-9.97,35.55-24.08s-8.9-5.06-.08-19.86c0,0-33.04,10.5-105.78-6.33Z"/>
  <path class="cls-11" d="m354.73,419.66c-14.58,59.31-62.5,100.72-58.21,100.03l8.55-82.01,49.66-18.02Z"/>
  <path class="cls-11" d="m95.05,411.79c5.4-4.29,27.09,87,63.08,103.95l-1.87-75.95-61.2-27.99Z"/>
  <path class="cls-11" d="m329.48,468.91c2.29,9.21,6.79,18.12,10.72,26.72,4.33,9.48,8.96,18.82,13.02,28.42,6.13,14.49,10.99,29.82,11.11,45.55.13,15.73-4.96,32-16.3,42.91-2.86,2.75-6.22,5.19-10.12,5.91-3.89.71-7.96-.41-11.28-2.55-3.41-2.2-6.24-5.81-6.2-9.87.03-2.74,1.37-5.33,3.08-7.47,6.02-7.51,16.67-10.74,21.27-19.19,3.36-6.16,2.66-13.7,1.14-20.55-5.18-23.31-18.62-43.82-32.18-63.48"/>
  <path class="cls-11" d="m387.93,152.37c0,31.71-10.35,58.36-32.53,58.36s-24.97-6.6-24.97-6.6c-9.69,16.8-23.3,29.13-42.45,38.78-29.68,14.96-60,14.54-66.98,14.31-10.04-.34-51.36-1.7-79.41-25.94-4.72-4.06-9.07-8.8-12.82-14.28-3.28-4.79-5.41-9.12-6.69-12.05,0,.59-.54,5.79-19.54,5.79-20.14,0-29.55-26.66-29.55-58.36s36.54-23.65,36.54-23.65C112.66-35.81,289.67,10.3,293.63,15.05c3.95,4.75,39.6-15.05,39.6-15.05,0,3.7-14.27,20.34-14.27,20.34,20.6.26,20.04,24.01,20.04,24.01-5.82-14.48-17.49-6.3-17.49-6.3,12.23,20.52,21.2,43.07,25.01,66.71,1.4,8.77,2.09,17.64,2.04,26.5,5.84-1.35,39.36-7.83,39.36,21.12Z"/>
  <path class="cls-3" d="m132.79,221.3c-1.51-2.99-2.13-6.12-2.95-9.88-1.28-5.88-2.43-11.78-3.42-17.71-2.02-12.07-3.41-24.25-4.14-36.47-1.89-31.44,2.28-67.1,25.6-89.59,4.09-3.94,8.56-7.52,13.54-10.16,10.41-5.53,22.94-6.68,34.13-3.13,6.35,2.01,12.24,5.52,17.16,10.12,2.54,2.37,4.82,5.02,6.79,7.92.9,1.33,1.95,3.7,3.76,2.82,1.26-.62,2.47-3.93,3.31-5.12,2.35-3.35,5.2-6.32,8.36-8.86,6.48-5.21,14.29-8.63,22.38-10.01,14.05-2.39,28.63,1.02,41.39,7.55,4.69,2.4,9.22,5.25,12.98,9.01,2.82,2.82,5.17,6.1,7.22,9.55,8.06,13.58,11.47,29.59,12.84,45.45,1.3,15.07.84,30.29-1.31,45.25-2.07,14.4-6.26,28.13-10.27,41.99l-.15,1.03s-3.41,11.46-3.42,11.46c-.13.44-.83,1.16-1.15,1.52-.71.78-1.6,1.46-2.39,2.17-1.56,1.4-3.14,2.77-4.76,4.1-3.23,2.66-6.59,5.16-10.15,7.36-4.56,2.82-9.42,5.14-14.26,7.44-2.14,1.02-4.29,2.04-6.5,2.9-2.19.85-4.43,1.53-6.69,2.17-5.32,1.49-10.79,2.78-16.26,3.6-2.96.44-5.97.64-8.94.96l-2.64.28-15.68,1.28-13.01-.25-13.74-1.27-15.87-2.6s-12.61-3.34-12.62-3.34c-7.47-1.98-15.99-5.46-22.38-9.77-5.4-3.64-9.71-8.65-13.96-13.59-1.2-1.39-2.09-2.76-2.79-4.16Z"/>
  <path class="cls-11" d="m309.24,589.17c-.89,1.41-1.8,2.84-2.81,4.19-3.08-.33-6.62,1.08-8.2,4.19-3.71-2.43-9.67-1.77-11.3,3.77.41-1.35.23-.38-1.18.15-1.13.42-2.36.6-3.55.74-4.92.57-9.85.31-14.78,1.02-1.85.28-3.27,1.51-4.18,3.1l-1.09-1.88-3.83-9.09-11.68-6.17.52-15.25-1.35-44.78.86-51.26c-8.9,1.92-23.23,3.4-33.21,1l.28,1.89-2.71,29.72-4.93,53.91-1.35,26.9c-.39.86-.61,1.82-.61,2.85v7.14l-1.37,2.85-5.48,2.63c-5.38-.32-10.72.97-15.42,3.51l-.16-.41-.17.6c-2.21,1.24-4.29,2.75-6.14,4.52-2.05.15-4.09.29-6.11.44-.32.03-.64.06-.97.09-7.68-6.52-14.15-14.61-23.46-19.23,1.13-1.75,2.15-3.46,3.05-5.25.32.04.64.06.96.04,1.82-.07,3.49-.68,4.86-1.89.06-.04.12-.07.19-.12.63-.25,1.21-.55,1.7-1.02.8-.51,1.43-1.19,1.88-2.04.52-.83.81-1.72.86-2.68,1.41-1.57,2.14-3.77,1.45-6.46-3.1-12.25-5.08-25.33-6.5-38.23l-.17-8.15-5.66-45.31-7.43-62,13.67,4.64,16.32,4.44,15.22,3.33,10.46,1.87,29.4,3.43,10.78-.11,17.18-.57,10.49-.47,15.11-1.25,14.98-3.3,11.22-4.48c-.01.1-.01.2-.01.32.03,2.09.13,4.2.28,6.28-.03.22-.04.45-.06.67-.41,13.47.64,27.04.51,40.56-.29,30.17-2.79,60.33-7.49,90.12-.86,5.44-2.43,11.42,2.98,14.71,1.96,2.57,5.09,4.58,8.18,5.76Z"/>
  <path class="cls-3" d="m153.35,621.41c-.98,0-2,.08-2.98,0-1.47-.12-2.76-.87-4.14-1.45-.15-.06-.31-.13-.42-.25-.11-.13-.16-.3-.21-.46-.27-.99-.92-2.32-.93-3.33,0-1.09.7-2.48.98-3.53-1.8-1.02-3.05-2.94-3.25-5-.2-2.06.67-4.19,2.24-5.53-2.34-1.42-3.14-4.37-3.74-7.04-.12-.54-.24-1.1-.12-1.63.34-1.47,2.17-1.9,3.64-2.23,6.39-1.46,11.46-6.16,16.21-10.69.93,2,2.16,4.25,4.32,4.66-.5.64-.49,1.62.02,2.25,1.29-.66,2.75.49,3.7,1.58.95,1.1,2.23,2.36,3.61,1.93l1.16,3.26c1.24-.34,2.54.31,3.53,1.13s1.82,1.85,2.93,2.5c1.06.62,2.29.86,3.49,1.09,2.61.49,5.21.99,7.82,1.48,1.18.22,2.64.34,3.35-.63,2.18,1.19,4.64,1.86,7.12,1.92l.3-1.58c.91-.15,1.79.56,2.16,1.41s.33,1.81.3,2.74c-.16,4.15-.33,8.3-.49,12.45-.07,1.77-.27,3.8-1.72,4.82-1.73,1.22-4.13.25-5.84-.98-3.33-2.4-5.95-5.78-7.44-9.61-1.88,3.78-5.01,6.84-8.56,9.13-3.55,2.28-7.53,3.83-11.55,5.11-2.53.8-5.08,1.5-7.64,2.19-2,.54-6.29,1.68-7.64-.64-.45-.77-.51-1.71-.45-2.6.16-2.1,1.07-6.72,3.3-7.52,3.13-1.12,6.25-2.24,9.37-3.36"/>
  <path class="cls-3" d="m313.55,595.33c-.41,1.23-1.41,2.28-2.67,2.58-.81.2-1.66.1-2.48-.04-1.92-.3-3.94-1.06-5.83-1.23.71.06,2.52,1.88,3.06,2.33,1.24,1.03,2.37,2.18,3.37,3.44.86,1.08,1.67,2.36,1.54,3.74-.06.65-.34,1.28-.78,1.77-1.13,1.24-3.01,1.35-4.68,1.37-.79,0-1.59.02-2.34-.23-.48-.16-.92-.41-1.36-.66-1.88-1.09-3.75-2.39-5.74-3.25.26.71.51,1.43.78,2.14.5,1.43,1.48,2.93,1.09,4.48-.24.91-.79,1.7-1.46,2.35-.15.15-.3.27-.49.34-.17.05-.36.03-.54,0-2.02-.23-4.06-.4-6.07-.72-.03,0,.06,2.3-.02,2.51-.5,1.34-2.84,2.8-4.06,3.43-1.42.72-3.07,1.06-4.64.73-1.99-.42-3.61-1.89-4.82-3.52-.96-1.31-1.84-4.61-3.77-4.61,0,0-.05,0-.13.02-1.1,5.89-9.14,7.06-14.41-1.42-2.39-3.22-4.25-6.78-5.86-10.43-.84-1.88-1.61-3.79-2.37-5.7-.27-.7-1.87-3.1-1.7-3.78.14-.58-.68-1.21-.53-1.78,3.04.99,6.79,2.26,9.73.05,1.24,1.02,2.67,1.92,4.26,2.05,1.6.13,3.37-.74,3.81-2.28.93.37,1.86.73,2.85.83,1,.09,2.06-.13,2.79-.81,1.39.75,2.91,1.48,4.49,1.3,1.58-.18,3.09-1.69,2.68-3.22,1.82,1.09,3.77,1.97,5.79,2.64.33-.49.66-.96.99-1.44,2.12.25,4.26.24,6.38-.05.17-.39.35-.79.52-1.19.07-.16,3.15-.38,3.54-.47,1.15-.25,2.6-.49,3.59-1.15.97-.65,1.2-1.68,1.6-2.71.11-.08,7.93,4.26,8.64,4.65,1.19.68,2.39,1.36,3.4,2.27,1.01.92,1.83,2.11,2.04,3.46.12.72.05,1.48-.18,2.18Z"/>
  <polyline class="cls-13" points="273.38 266.75 288.42 290.52 253.49 323.93 237.55 300.8 231.45 319.02 230.46 300.8 237.83 290.83 273.38 266.75"/>
  <polyline class="cls-13" points="171.2 261.83 163.1 291.6 205.67 323.93 217.93 299.49 231.45 319.02"/>
  <polyline class="cls-13" points="230.46 300.8 214.73 287.04 171.2 261.83"/>
  <path class="cls-14" d="m165.5,293.42c-11.27,9.22-30.04,22.93-40.38,33.23-5.01,4.99-9.6,10.46-13.24,16.54-3.28,5.49-5.21,11.6-7.06,17.69-1.42,4.65-3.63,8.93-5.95,13.19-1.3,2.38-2.62,4.76-3.81,7.2"/>
  <path class="cls-14" d="m283.39,295.34c22.85,16.32,61.98,43.05,67.76,70.7"/>
  <path class="cls-14" d="m137.53,341.78s.35,64.53-12.76,70.91c-13.12,6.38,122.68,52.83,191.81,12.76,0,0,4.61-5.01-1.77-11.01"/>
  <path class="cls-14" d="m309.15,419.66s16.92.92-4.86-59.82"/>
  <polyline class="cls-14" points="305.33 431.56 305.07 438.03 367.96 415.2 350.97 365.22"/>
  <path class="cls-14" d="m141.22,433.15l-50.98-23.59c3.42-5.27.45-24.63,5.22-28.76"/>
  <line class="cls-12" x1="210.61" y1="169.79" x2="213.99" y2="168.83"/>
  <line class="cls-12" x1="226.31" y1="167.97" x2="229.21" y2="169.31"/>
  <path class="cls-11" d="m205.57,105.3s-46.51,1.98-65.2,1.28c-18.68-.71,41.48,58.72,65.2-1.28Z"/>
  <path class="cls-11" d="m244.75,105.36s47.44,1.51,66.53.61c19.08-.91-43.26,59.63-66.53-.61Z"/>
  <path class="cls-12" d="m153.17,141.36c0,38.68,38.92,34.65,38.92,0"/>
  <path class="cls-12" d="m259.44,141.36c0,38.68,38.92,34.65,38.92,0"/>
  <polyline class="cls-12" points="210.24 196.73 220.45 221.44 230.46 196.37"/>
  <text class="cls-1" transform="translate(153.68 692.98)"><tspan x="0" y="0">orgullo</tspan></text>
</svg>