<?xml version="1.0" encoding="UTF-8"?>
<svg id="Capa_1" data-name="Capa 1" xmlns="http://www.w3.org/2000/svg" viewBox="0 0 433.03 729.4">
  <defs>
    <style>
      .cls-1, .cls-2, .cls-3 {
        fill: none;
      }

      .cls-4 {
        fill: #fad6bd;
      }

      .cls-5 {
        fill: #010101;
      }

      .cls-6, .cls-7 {
        fill: #fff;
      }

      .cls-8 {
        fill: #bfbebf;
      }

      .cls-9 {
        fill: #c0c0bf;
      }

      .cls-10 {
        fill: #1e2b4f;
      }

      .cls-11 {
        fill: #404040;
      }

      .cls-12 {
        fill: #3f3f3f;
      }

      .cls-13 {
        fill: #808181;
      }

      .cls-14 {
        fill: #7a5132;
      }

      .cls-7 {
        font-family: BigCaslon-Medium, 'Big Caslon';
        font-size: 46.86px;
        font-weight: 500;
      }

      .cls-2 {
        stroke: #1d1d1b;
      }

      .cls-2, .cls-3 {
        stroke-miterlimit: 10;
        stroke-width: 1.31px;
      }

      .cls-3 {
        stroke: #696961;
      }
    </style>
  </defs>
  <path class="cls-14" d="m292.43,502.38s.03.01.05.02c1.94.6,9.67-6.19,11.34-7.41,14.64-10.68,27.33-24.05,37.18-39.27,2.03-3.14,3.95-6.37,5.43-9.8,1.67-3.88,2.76-7.97,3.85-12.06,1.53-5.76,3.07-11.53,4.6-17.29,1.37-5.14-2.83-11.47-5.48-16.07-18.38-1.85-31.27-3.15-49.64-5.01-2.48,4.1-5.04,9.01-3.24,13.45.57,1.42,1.55,2.63,2.47,3.85,3.71,4.9,6.74,10.31,9.01,16.03.36.9.7,1.83.65,2.8-.07,1.43-.97,2.67-1.83,3.81-5.43,7.2-10.87,14.4-16.3,21.6-8.48,11.23-2.54,25.09-.35,37.91.35,2.08.28,6.75,2.27,7.44Z"/>
  <path class="cls-14" d="m105.26,389.27c-.18.17-.36.35-.54.53-7.45,7.45-13.78,16.29-19.02,25.4-.86,1.49-1.7,3.03-2.07,4.72-.64,2.88.15,5.89,1.21,8.65,4.04,10.54,11.85,19.16,19.92,27.06,12.91,12.65,26.92,24.18,41.82,34.42,1.7,1.17,8.53,7.16,10.5,6.27,2.35-1.06,1.56-11.32,1.7-13.7.58-9.79,1.16-19.57,1.74-29.36.06-1.07.12-2.17-.28-3.17-.45-1.12-1.41-1.94-2.34-2.71-8.47-7.04-16.94-14.08-25.41-21.12.35.29,11.24-12.85,12.09-14.18,2.32-3.62,3.05-7.54,4.29-11.71,1.91-6.42,3.82-12.83,5.73-19.25,0,0-26.81-6.33-26.81-6.33-7.64,4.74-15.98,8.18-22.53,14.46Z"/>
  <polygon class="cls-6" points="230.27 340.87 238.33 329.94 277.17 302.26 283.99 312.09 288.82 318.03 292.31 322.86 304.36 331.27 315.13 339.75 325.83 348.86 332.25 355.99 338.75 366.53 341.92 373.66 342.56 377.87 346.68 384.21 353.73 397.04 361.34 411.31 362.13 412.34 355.71 411.94 333.12 409.57 307.17 407.18 308.95 420.26 307.69 426.53 311.05 430.96 310.62 435.72 306.34 438.97 282.8 447.61 251.73 452.44 239.85 452.44 207.51 450.7 178.51 446.26 151.24 439.6 125.49 429.62 132.25 403.02 127.43 403.74 82.9 407.65 90.63 396.75 94.32 393.55 98.54 385.2 102.9 376.12 106.35 364.67 111.14 355.58 121.98 342.07 137.43 328.32 154.97 314.68 160.33 306.78 166.27 296.58 179.23 304.78 199.02 316.82 211.68 324.59 218.31 329.59 230.27 340.87"/>
  <path class="cls-14" d="m167.52,277.91s9.95,14.67,3.67,22.22l43.39,26.35,15.68,14.39,7.35-10.43,35.44-25.17s-8.87-5.29-.08-20.76c0,0-32.94,10.98-105.45-6.61Z"/>
  <polygon class="cls-14" points="356.15 546.78 355.34 545.2 356.02 545.03 356.15 546.78"/>
  <polygon class="cls-14" points="356.15 546.78 355.34 545.2 356.02 545.03 356.15 546.78"/>
  <polyline class="cls-14" points="358.43 557.23 346.67 555.25 346.67 543.63 352.55 541.55 358.33 543.63"/>
  <path class="cls-14" d="m430.44,609.52c-1.39,12.54-8.87,24.54-19.69,31.28-14.64,9.13-34.12,8.98-49.52,1.2-15.4-7.78-26.75-22.48-32.23-38.84-5.49-16.36-5.45-34.25-1.85-51.13,1.62-7.6,3.94-15.08,4.48-22.83.64-9.4-1.37-18.81-4.5-27.71-4.19-11.93-10.37-23.08-17.42-33.56-3.29-4.88-8.85-10.04-11.19-15.36-.37-.85-1.51-9.99-.87-10.27.35-.16.72-.3,1.09-.47l.6,1.14v-.54s5.43-2.92,5.43-2.92l.54.88c.93-1.27,2.01-2.47,3.18-3.55.68-.63,1.51-1.26,2.44-1.25.81.01,1.54.5,2.21.97,2.59,1.83,5.18,3.67,7.74,5.52,16.25,11.74,33.2,24.96,40.03,44.6,1.83,5.24,3.09,10.66,4.13,16.11,2.78,14.62,2.15,28.46-1.72,42.81-1.26,4.68-2.38,9.38-3.11,14.22-1.3,8.46-2.26,17.09-1.16,25.59,1.1,8.49,4.44,16.94,10.67,22.82,6.23,5.88,15.63,8.74,23.71,5.93,5.3-1.85,9.98-6.68,9.79-12.29-.17-4.98-3.96-10.27-1.34-14.51,1.16-1.87,3.29-2.89,5.39-3.52,6.26-1.89,13.77-.81,18.14,4.07,2.08,2.31,3.29,5.3,4.09,8.31,1.14,4.36,1.42,8.86.92,13.29Z"/>
  <polygon class="cls-14" points="355.71 578.57 351.51 570.43 355.33 561.22 357.18 569.04 355.71 578.57"/>
  <g id="Background">
    <path id="Path_0" data-name="Path 0" class="cls-6" d="m136.03,368.39v31.49h62.98v-62.98h-62.98v31.49Z"/>
    <path id="Path_1" data-name="Path 1" class="cls-5" d="m156.42,351.82c-.17.19-.2.28-.19.81,0,.33.02.7.06.82.03.13.12.25.2.29.07.04.92.1,1.89.14.96.03,1.75.08,1.75.1s-.36.3-.8.62c-.45.32-1.16.93-1.59,1.34-.43.42-.99,1.04-1.26,1.39-.28.35-.68.91-.9,1.24-.23.34-.41.64-.41.67,0,.04-.08.19-.18.34s-.36.7-.58,1.22c-.22.52-.52,1.3-.65,1.73s-.31,1.2-.41,1.69c-.12.7-.16,1.25-.16,2.48,0,.87.02,1.72.05,1.89.02.17.12.67.2,1.1s.25,1.09.36,1.46c.12.37.35,1.01.54,1.42s.54,1.1.79,1.54.73,1.16,1.06,1.61c.33.46.94,1.16,1.35,1.56.41.4.76.73.79.72.02,0,.17.11.32.25.15.14.61.49,1.02.77s.97.65,1.25.82c.28.17.87.47,1.3.68s1.14.49,1.57.62,1.24.33,1.8.44c.55.11,1.06.23,1.13.26.08.04,2.22.08,4.76.08l4.63.02v-2.36h-7.48v-25.63c4.49-.1,6.9-.11,8.27-.08,1.71.04,2.65.09,3.03.17.31.06.87.27,1.26.46.39.19.94.51,1.22.72.28.22.72.62.98.91s.61.76.8,1.05c.17.3.42.79.54,1.09.12.31.26.78.32,1.06s.11.94.11,1.46-.06,1.17-.11,1.46c-.06.28-.25.83-.42,1.22-.17.39-.48.98-.68,1.3-.2.32-.54.76-.74.97-.2.21-.58.54-.84.72-.26.19-.77.49-1.14.66-.37.17-.74.33-.83.35-.09,0-.2.05-.24.07-.04.03-.38.13-.75.2l-.67.15v2.03c1.27,2.26,2.27,4.01,3.03,5.35.77,1.35,1.74,3.06,2.17,3.82.42.76.87,1.49.99,1.61.23.24.24.24,1.05.24.61,0,.84-.03.94-.12.07-.06.13-.2.13-.31,0-.11-.2-.57-.45-1.02-.24-.46-1.34-2.39-2.43-4.29-1.09-1.91-2.25-3.94-2.58-4.51-.33-.57-.6-1.05-.6-1.08s.49-.28,1.08-.57c.6-.3,1.3-.68,1.56-.84s.7-.51.98-.78.63-.68.8-.91c.16-.24.46-.76.66-1.17.2-.39.47-1,.61-1.34.13-.33.33-.98.44-1.43.17-.68.2-1.02.2-1.93,0-.85-.04-1.26-.17-1.77-.09-.37-.26-.94-.37-1.26-.12-.32-.34-.82-.49-1.1-.16-.28-.45-.74-.65-1.02s-.65-.8-1-1.14c-.35-.35-.91-.83-1.26-1.06-.34-.24-.94-.57-1.33-.76s-.85-.37-1.02-.43-.37-.12-.43-.14c-.06-.02-.2-.05-.31-.06s-.38-.07-.59-.12c-.29-.07-3.28-.1-11.73-.13l-11.34-.03-.19.2Z"/>
    <path id="Path_2" data-name="Path 2" class="cls-10" d="m172.52,367.79c-.03.06-.04.61-.02,1.2l.02,1.09,2.4.04-.04-2.4c-2.11-.05-2.32-.03-2.36.06h0Z"/>
    <path id="Path_3" data-name="Path 3" class="cls-12" d="m172.92,353.88c.74.02,1.91.02,2.6,0,.69,0,.09-.02-1.34-.02s-2,.02-1.26.02Z"/>
    <path id="Path_4" data-name="Path 4" class="cls-13" d="m158.47,351.6c.84.02,2.19.02,2.99,0,.8,0,.11-.02-1.54-.02s-2.3,0-1.46.02Zm9.53,0c1.06.02,2.82.02,3.9,0,1.09,0,.21-.02-1.93-.02s-3.03,0-1.97.02Z"/>
    <path id="Path_5" data-name="Path 5" class="cls-11" d="m163.75,351.6c.37.02.99.02,1.38,0,.39,0,.09-.02-.67-.02s-1.08.02-.71.02Z"/>
    <path id="Path_6" data-name="Path 6" class="cls-9" d="m174.69,351.6c.46.02,1.17.02,1.57,0,.41,0,.04-.02-.83-.02s-1.2.02-.75.02Z"/>
    <path id="Path_7" data-name="Path 7" class="cls-6" d="m165.2,354.34c-.39.1-1.03.31-1.42.46-.39.15-.99.42-1.34.6-.35.17-.79.41-.98.52-.2.11-.68.44-1.06.74-.39.3-1.01.86-1.38,1.24-.37.39-.87.97-1.11,1.29-.24.32-.57.8-.72,1.06-.15.26-.4.74-.55,1.06s-.34.73-.41.91c-.08.17-.15.35-.16.39-.02.05-.12.42-.23.83-.12.41-.23.86-.25.98s-.06.35-.07.47-.06.65-.09,1.14c-.03.57-.02,1.28.05,1.93.05.56.18,1.36.28,1.77.11.41.31,1.03.44,1.38.13.35.4.95.6,1.34s.5.94.67,1.22c.18.28.54.78.8,1.1.27.32.82.91,1.23,1.29.41.38,1.08.92,1.49,1.2.41.27,1.19.71,1.73.97.54.25,1.35.57,1.81.72.46.13.88.27.94.29s.24.06.39.08l.28.03c.09-6.63.12-10.41.12-12.68s-.02-6.02-.05-8.33c-.05-3.78-.06-4.19-.18-4.19-.07,0-.45.09-.83.2h0Z"/>
    <path id="Path_8" data-name="Path 8" class="cls-8" d="m166.22,357.69c0,1.06.02,1.49.02.94.02-.54.02-1.41,0-1.93,0-.52-.02-.08-.02.98Zm0,17.99c0,1.04.02,1.45.02.91.02-.54.02-1.39,0-1.89,0-.5-.02-.06-.02.98Z"/>
  </g>
  <path class="cls-14" d="m410.41,172.42c0,35.88-11.71,66.04-36.81,66.04s-28.26-7.47-28.26-7.47c-10.97,19.02-26.36,32.96-48.04,43.88-33.59,16.92-67.89,16.45-75.79,16.19-11.36-.38-58.12-1.92-89.85-29.36-5.35-4.6-10.26-9.96-14.51-16.16-3.71-5.42-6.12-10.32-7.58-13.64,0,.67-.61,6.55-22.12,6.55-22.79,0-33.43-30.17-33.43-66.04s41.35-26.76,41.35-26.76C98.93-40.52,299.22,11.65,303.71,17.03c4.48,5.38,44.81-17.03,44.81-17.03,0,4.18-16.14,23.02-16.14,23.02,23.31.29,22.68,27.17,22.68,27.17-6.58-16.39-19.79-7.13-19.79-7.13,13.84,23.22,23.99,48.74,28.3,75.48,1.59,9.93,2.37,19.96,2.31,29.98,6.61-1.53,44.54-8.86,44.54,23.9Z"/>
  <path class="cls-14" d="m303.96,608.44c-.93,1.48-1.89,2.98-2.95,4.4-3.24-.35-6.95,1.13-8.61,4.4-3.89-2.55-10.16-1.86-11.87,3.96.43-1.42.24-.4-1.24.15-1.19.44-2.47.63-3.73.78-5.16.6-10.34.32-15.52,1.07-1.94.29-3.44,1.59-4.38,3.25l-1.15-1.97-4.02-9.55-12.26-6.48.55-16.01-1.42-47.01.9-53.82c-9.35,2.02-24.39,3.57-34.87,1.05l.29,1.99-2.84,31.2-5.18,56.6-1.42,28.24c-.41.9-.64,1.91-.64,2.99v7.5l-1.44,2.99-5.76,2.76c-5.65-.34-11.26,1.02-16.19,3.68l-.17-.43-.18.63c-2.32,1.3-4.51,2.89-6.45,4.75-2.15.15-4.29.31-6.41.46-.34.03-.67.06-1.02.09-8.06-6.84-14.86-15.33-24.64-20.19,1.19-1.83,2.26-3.64,3.21-5.51.34.05.67.06,1.01.05,1.91-.08,3.67-.72,5.1-1.99.06-.05.12-.08.2-.12.66-.26,1.27-.58,1.79-1.07.84-.53,1.5-1.25,1.97-2.14.55-.87.86-1.8.9-2.81,1.48-1.65,2.25-3.96,1.53-6.78-3.25-12.86-5.33-26.59-6.83-40.14l-.18-8.55-1.02-47.91-1.25-63.4.79-1.04,19.03,6.26,15.03,3.83,11.41,2.41,31.86,4.52,11.04,1.13,18.04-.6,11.01-.49,15.87-1.31,15.73-3.47,11.78-4.7c-.02.11-.02.21-.02.34.03,2.2.14,4.41.29,6.6-.03.23-.05.47-.06.7-.43,14.14.67,28.39.53,42.58-.31,31.68-2.93,63.34-7.87,94.62-.9,5.71-2.55,11.99,3.13,15.44,2.06,2.7,5.35,4.81,8.58,6.05Z"/>
  <path class="cls-4" d="m130.41,259.8c-5.69-22.4-10.5-45.17-11.94-68.29-2.04-33.01,2.47-70.43,27.75-94.04,4.43-4.14,9.28-7.89,14.67-10.67,11.29-5.81,24.86-7.01,36.99-3.29,6.88,2.11,13.26,5.8,18.6,10.62,2.75,2.48,5.23,5.27,7.36,8.31.98,1.4,2.12,3.88,4.07,2.96,1.37-.65,2.67-4.12,3.58-5.38,2.55-3.52,5.63-6.63,9.06-9.3,7.02-5.47,15.49-9.06,24.26-10.5,15.23-2.5,31.03,1.07,44.86,7.92,5.08,2.52,9.99,5.51,14.07,9.45,3.06,2.95,5.61,6.4,7.83,10.03,8.74,14.25,12.43,31.06,13.91,47.71,1.4,15.81.91,31.79-1.42,47.5-2.24,15.11-6.79,29.53-11.13,44.08l-.16,1.08-6.51,6.39-2.41,2.73-5.91,5.02-3.52,2.4-3.13,2.3-4.91,2.59-6.07,3.9-7.24,3.42-10.5,4.25-10.42,3.64-12.58,3.15-12.55,1.9-15.58,1.21-13.68.27-15.09-1.17-16.53-2.73-12.92-3.37-16.11-5.8-10.46-5.53-14.02-9.21-2.23-3.52Z"/>
  <path class="cls-4" d="m140.28,642.29c-1.03,0-2.1.08-3.13,0-1.54-.12-2.9-.91-4.34-1.52-.16-.07-.32-.14-.44-.27-.12-.13-.17-.31-.22-.48-.28-1.03-.97-2.44-.98-3.49,0-1.14.74-2.6,1.03-3.71-1.89-1.07-3.21-3.09-3.41-5.25s.7-4.4,2.35-5.8c-2.45-1.49-3.3-4.59-3.93-7.39-.13-.56-.25-1.15-.12-1.71.36-1.54,2.28-1.99,3.82-2.34,6.71-1.53,12.04-6.47,17.01-11.22.97,2.1,2.26,4.46,4.54,4.89-.52.67-.51,1.7.03,2.36,1.35-.7,2.88.51,3.88,1.66s2.34,2.48,3.79,2.03l1.22,3.42c1.3-.35,2.67.32,3.71,1.18s1.91,1.94,3.07,2.62c1.11.65,2.4.9,3.66,1.14,2.74.52,5.47,1.04,8.21,1.56,1.24.24,2.77.36,3.51-.66,2.29,1.25,4.87,1.95,7.48,2.01l.32-1.66c.96-.16,1.88.59,2.26,1.48s.35,1.9.31,2.87c-.17,4.36-.35,8.72-.52,13.08-.07,1.86-.29,3.99-1.81,5.06-1.81,1.28-4.34.26-6.13-1.03-3.5-2.52-6.24-6.07-7.81-10.09-1.97,3.97-5.26,7.19-8.99,9.58-3.73,2.4-7.9,4.02-12.13,5.36-2.65.84-5.34,1.58-8.03,2.3-2.1.56-6.6,1.76-8.02-.67-.47-.81-.54-1.79-.47-2.73.17-2.21,1.12-7.06,3.46-7.9,3.28-1.17,6.56-2.35,9.84-3.53"/>
  <path class="cls-4" d="m293.89,601.71c.11-.09,8.32,4.47,9.07,4.89,1.25.7,2.51,1.42,3.57,2.38,1.06.96,1.92,2.22,2.15,3.63.12.77.06,1.56-.19,2.3-.43,1.29-1.49,2.39-2.8,2.71-.85.21-1.74.1-2.61-.04-2.02-.32-4.13-1.12-6.12-1.29.75.06,2.65,1.97,3.22,2.44,1.3,1.08,2.49,2.29,3.54,3.61.91,1.13,1.75,2.48,1.61,3.93-.06.69-.36,1.35-.82,1.86-1.18,1.3-3.15,1.41-4.91,1.43-.83,0-1.67.02-2.46-.24-.5-.16-.96-.43-1.42-.7-1.98-1.14-3.94-2.5-6.03-3.42.27.75.54,1.51.81,2.26.54,1.49,1.56,3.08,1.15,4.7-.24.95-.83,1.78-1.53,2.46-.15.15-.31.29-.51.35-.18.05-.38.03-.57.01-2.13-.24-4.26-.42-6.38-.76-.02,0,.07,2.42-.01,2.64-.53,1.41-2.98,2.94-4.26,3.6-1.49.76-3.23,1.12-4.87.77-2.09-.45-3.79-1.98-5.06-3.7-1.01-1.37-1.94-4.83-3.97-4.83,0,0-3.99.49-4.01.49-2.7.33-5.65.19-8.33-.22-.6-.09-1.21-.21-1.73-.53-.49-.3-.85-.76-1.19-1.22-2.51-3.37-4.46-7.11-6.16-10.94-.88-1.98-1.69-3.98-2.48-5.99-.29-.73-1.97-3.25-1.79-3.97.14-.6-.71-1.27-.55-1.86,3.19,1.04,7.13,2.37,10.21.05,1.3,1.07,2.8,2.02,4.48,2.15s3.54-.78,4-2.4c.97.39,1.96.78,3,.88s2.16-.13,2.92-.84c1.47.78,3.06,1.55,4.71,1.36,1.65-.19,3.24-1.77,2.81-3.38,1.92,1.14,3.96,2.07,6.08,2.77.35-.5.69-1.01,1.04-1.51,2.22.27,4.48.25,6.7-.05.18-.41.37-.83.55-1.24.08-.18,3.31-.41,3.71-.5,1.2-.26,2.74-.52,3.77-1.21s1.26-1.76,1.69-2.84Z"/>
  <path class="cls-3" d="m155.91,313.73c-10.96,8.97-22.67,17.11-32.74,27.14-4.88,4.86-9.34,10.18-12.88,16.1-3.2,5.34-5.07,11.29-6.87,17.21-1.38,4.52-3.53,8.69-5.79,12.83-1.26,2.32-2.55,4.63-3.71,7"/>
  <path class="cls-3" d="m290.87,321.92c22.24,15.88,46.62,30.37,52.25,57.27"/>
  <path class="cls-3" d="m271.14,306.62l6.13-4.36,14.7,20.44s-3.7,2.22-14.15,4.69c-10.45,2.47-29.97,25.3-29.97,23.1s-10.17-20.07-10.17-20.07l-7.4,10.45,1.63,9.62"/>
  <line class="cls-3" x1="271.14" y1="306.62" x2="237.67" y2="330.42"/>
  <polyline class="cls-3" points="230.27 340.87 214.62 326.45 215.73 350.65 200.92 344.31 190.75 337.46 161.14 315.8 155.17 314.62 166.22 296.58 214.62 326.45"/>
  <path class="cls-2" d="m103.52,290.68v-.03"/>
  <path class="cls-1" d="m410.05,172.43c0,35.88-11.71,66.04-36.81,66.04s-28.26-7.47-28.26-7.47c-10.97,19.02-26.36,32.96-48.04,43.88-33.59,16.92-67.89,16.45-75.79,16.19-11.36-.38-58.12-1.92-89.85-29.36-5.35-4.6-10.26-9.96-14.51-16.16-3.71-5.42-6.12-10.32-7.58-13.64,0,.67-.61,6.55-22.12,6.55-22.79,0-33.43-30.17-33.43-66.04s41.35-26.76,41.35-26.76C98.56-40.51,298.86,11.66,303.35,17.04,307.82,22.41,348.16,0,348.16,0c0,4.18-16.14,23.02-16.14,23.02,23.31.29,22.68,27.17,22.68,27.17-6.58-16.39-19.79-7.13-19.79-7.13,13.84,23.22,23.99,48.74,28.3,75.48,1.59,9.93,2.37,19.96,2.31,29.98,6.61-1.53,44.54-8.86,44.54,23.9Z"/>
  <path class="cls-3" d="m135.26,355.58s.35,62.79-12.42,69c-12.77,6.21,119.37,51.41,186.65,12.42,0,0,4.49-4.87-1.73-10.72"/>
  <path class="cls-3" d="m302.25,431.37s16.47.9-4.73-58.21"/>
  <polyline class="cls-3" points="307.17 407.01 362.13 412.6 342.95 378.39"/>
  <path class="cls-3" d="m94.93,392.8c-4.65,4.02-8.2,9.04-11.53,14.16l49.06-4.46"/>
  <path class="cls-14" d="m318.28,452.04l-2.16,1.35,2.16-1.35Z"/>
  <path class="cls-14" d="m139.06,117.18s44.93.9,62.99-.16c18.05-1.08-40.29,56.93-62.99.16Z"/>
  <path class="cls-14" d="m311.89,114.73s-48.24,1.48-67.79.6c-19.54-.87,49.37,57.95,67.79-.6Z"/>
  <path class="cls-2" d="m148.32,157.82c0,55.02,54.27,53.08,54.27,0"/>
  <path class="cls-2" d="m252.01,157.95c0,54.68,53.93,52.75,53.93,0"/>
  <path class="cls-2" d="m213.02,203.87c0,40.12,27.63,38.7,27.63,0"/>
  <text class="cls-7" transform="translate(118.53 697.71)"><tspan x="0" y="0">Confianza</tspan></text>
</svg>