<?xml version="1.0" encoding="UTF-8"?>
<svg id="Capa_1" data-name="Capa 1" xmlns="http://www.w3.org/2000/svg" viewBox="0 0 446.32 709.36">
  <defs>
    <style>
      .cls-1 {
        fill: #fad6bd;
      }

      .cls-2 {
        fill: #010101;
      }

      .cls-3, .cls-4 {
        fill: #fff;
      }

      .cls-5 {
        fill: #bfbebf;
      }

      .cls-6 {
        fill: #c0c0bf;
      }

      .cls-7 {
        fill: #1e2b4f;
      }

      .cls-8 {
        fill: #404040;
      }

      .cls-9 {
        fill: #1d1d1b;
      }

      .cls-10 {
        fill: #3f3f3f;
      }

      .cls-11 {
        fill: #808181;
      }

      .cls-12 {
        fill: #352316;
      }

      .cls-13 {
        fill: #7a5132;
      }

      .cls-4 {
        font-family: BigCaslon-Medium, 'Big Caslon';
        font-size: 48.3px;
        font-weight: 500;
      }

      .cls-14 {
        fill: none;
        stroke: #696961;
        stroke-miterlimit: 10;
        stroke-width: 1.19px;
      }

      .cls-15 {
        fill: #683c11;
        opacity: .66;
      }
    </style>
  </defs>
  <circle class="cls-3" cx="168.1" cy="162.58" r="5.76"/>
  <circle class="cls-3" cx="180.36" cy="172.85" r="2.61"/>
  <circle class="cls-3" cx="274.59" cy="164.76" r="5.76"/>
  <circle class="cls-3" cx="286.85" cy="175.04" r="2.61"/>
  <g id="Background">
    <path id="Path_0" data-name="Path 0" class="cls-3" d="m151.97,353.24v24.59h49.17v-49.17h-49.17v24.59Z"/>
    <path id="Path_1" data-name="Path 1" class="cls-2" d="m167.89,340.3c-.14.15-.15.22-.15.63,0,.26.02.55.04.64.02.1.09.2.15.23.06.03.72.08,1.48.11.75.02,1.36.06,1.36.08s-.28.23-.63.49c-.35.25-.9.73-1.24,1.04-.33.33-.77.81-.98,1.08-.22.27-.53.71-.7.96-.18.26-.32.5-.32.52,0,.03-.06.15-.14.26s-.28.55-.45.95c-.17.41-.41,1.01-.51,1.35s-.25.93-.32,1.32c-.09.55-.12.98-.12,1.94,0,.68.01,1.34.04,1.48.02.14.09.52.16.86s.2.85.28,1.14c.09.29.28.79.42,1.11s.42.86.61,1.2.57.9.83,1.26.73.9,1.05,1.22c.32.31.6.57.61.57.02,0,.13.09.25.2.12.11.48.38.8.6s.76.5.98.64c.22.13.68.37,1.01.53s.89.38,1.23.49.96.26,1.4.34c.43.09.83.18.89.2.06.03,1.73.06,3.72.06h3.61s0-1.83,0-1.83h-5.84v-20.01c3.5-.08,5.39-.09,6.45-.06,1.33.03,2.07.07,2.37.14.24.05.68.21.98.36.31.15.73.4.95.57.22.17.57.49.77.71s.48.6.62.82c.14.23.33.61.42.85.09.24.2.61.25.83s.09.73.09,1.14-.04.92-.09,1.14c-.05.22-.2.65-.33.95-.14.3-.37.76-.53,1.01-.16.25-.42.6-.58.76-.16.17-.45.42-.66.57-.2.15-.6.38-.89.52-.29.14-.58.26-.65.27-.07,0-.15.04-.18.06-.03.02-.3.1-.58.16l-.52.12v1.59c.99,1.76,1.77,3.13,2.37,4.18.6,1.05,1.36,2.39,1.69,2.98.33.59.68,1.16.77,1.26.18.18.19.18.82.18.47,0,.66-.02.74-.09.06-.05.1-.16.1-.25,0-.09-.16-.44-.35-.8-.19-.36-1.04-1.86-1.9-3.35-.85-1.49-1.76-3.07-2.02-3.52-.26-.44-.47-.82-.47-.84s.38-.22.84-.45c.47-.23,1.01-.53,1.22-.66s.55-.4.76-.61.49-.53.62-.71c.12-.18.36-.6.52-.91.15-.31.37-.78.47-1.04.1-.26.26-.76.34-1.12.13-.53.16-.79.16-1.51,0-.66-.03-.98-.13-1.38-.07-.29-.2-.73-.29-.98-.09-.25-.26-.64-.38-.86-.12-.22-.35-.58-.5-.8s-.5-.62-.78-.89c-.27-.27-.71-.65-.98-.83-.26-.18-.73-.45-1.04-.59s-.66-.29-.8-.33-.29-.09-.34-.11c-.05-.01-.16-.04-.25-.05s-.3-.06-.46-.09c-.23-.06-2.56-.08-9.16-.1l-8.86-.02-.15.16Z"/>
    <path id="Path_2" data-name="Path 2" class="cls-7" d="m180.46,352.77s-.03.47-.02.94l.02.85,1.87.03-.03-1.87c-1.65-.04-1.81-.02-1.84.05h0Z"/>
    <path id="Path_3" data-name="Path 3" class="cls-10" d="m180.77,341.92c.58.01,1.49.01,2.03,0,.54,0,.07-.02-1.04-.02s-1.56.01-.98.02Z"/>
    <path id="Path_4" data-name="Path 4" class="cls-11" d="m169.49,340.13c.66.01,1.71.01,2.34,0,.63,0,.09-.01-1.2-.01s-1.79,0-1.14.01Zm7.44,0c.83.01,2.2.01,3.04,0,.85,0,.17-.01-1.51-.01s-2.37,0-1.54.01Z"/>
    <path id="Path_5" data-name="Path 5" class="cls-8" d="m173.61,340.13c.29.01.77.01,1.08,0,.3,0,.07-.02-.52-.02s-.84.01-.55.02Z"/>
    <path id="Path_6" data-name="Path 6" class="cls-6" d="m182.15,340.13c.36.01.91.01,1.23,0,.32,0,.03-.02-.65-.02s-.94.01-.58.02Z"/>
    <path id="Path_7" data-name="Path 7" class="cls-3" d="m174.75,342.27c-.3.08-.81.24-1.11.36-.3.12-.77.33-1.04.47-.27.14-.61.32-.77.41-.15.09-.53.34-.83.58-.3.23-.79.67-1.08.96-.29.3-.68.76-.87,1.01-.18.25-.44.63-.57.83-.12.2-.31.58-.43.83s-.26.57-.32.71c-.06.14-.12.27-.12.31-.01.04-.09.33-.18.65-.09.32-.18.67-.2.77s-.04.27-.06.37-.04.5-.07.89c-.02.45-.01,1,.04,1.51.04.44.14,1.06.22,1.38.09.32.24.81.34,1.08.1.27.31.74.47,1.04s.39.73.52.95c.14.22.42.61.63.86.21.25.64.71.96,1.01.32.3.84.72,1.16.93.32.21.93.55,1.35.76.42.2,1.06.45,1.41.56.36.1.69.21.74.23s.19.05.31.06l.22.02c.07-5.18.09-8.13.09-9.9s-.02-4.7-.04-6.5c-.04-2.95-.05-3.27-.14-3.27-.06,0-.35.07-.65.15h0Z"/>
    <path id="Path_8" data-name="Path 8" class="cls-5" d="m175.54,344.88c0,.83.01,1.16.02.74.01-.42.01-1.1,0-1.51,0-.41-.02-.06-.02.77Zm0,14.04c0,.81.01,1.13.02.71.01-.42.01-1.09,0-1.48,0-.39-.02-.04-.02.77Z"/>
  </g>
  <path class="cls-13" d="m155.94,480.01c-54.57-66.57-123.05-163.74-56.13-241.19,10.91-12.63,37.16-1.84,30.44,12.96-2.11,4.64-8.22,6.81-13.11,9.59-17.06,9.69-20.55,30.27-18.85,46.47,2.79,26.62,14.81,51.96,28.46,75.82,6.44,11.26,13.3,22.36,20.46,33.3,3.99,6.1,8.1,12.16,11.91,18.34,1.66,2.69,11.29,15.18,9.86,17.86-1.84,3.46-15.06,24.4-13.05,26.84Z"/>
  <path class="cls-13" d="m407.87,167.27c0,34.81-11.36,64.07-35.71,64.07s-27.3-15.98-27.3-15.98c-10.64,18.45-25.69,40.71-46.71,51.31-32.58,16.42-65.86,15.96-73.52,15.71-11.02-.37-56.38-1.87-87.17-28.48-5.19-4.46-9.96-9.66-14.08-15.68-3.6-5.26-6.15-12.94-7.56-16.15,0,.65-.38,9.28-21.24,9.28-22.11,0-32.43-29.26-32.43-64.07s40.11-25.96,40.11-25.96C105.69-39.31,300.01,11.31,304.36,16.52c4.34,5.22,43.47-16.52,43.47-16.52,0,4.06-15.66,22.33-15.66,22.33,22.61.28,22,26.36,22,26.36-6.39-15.9-19.2-6.92-19.2-6.92,13.42,22.52,23.28,47.28,27.46,73.23,1.54,9.63,2.3,19.37,2.24,29.09,6.42-1.48,43.21-8.59,43.21,23.19Z"/>
  <path class="cls-13" d="m176.09,272.07s8.94,13.18,3.3,19.97l39,23.68,14.09,12.93,6.61-9.37,31.85-22.62s-8.76-6.73-.86-20.64c0,0-28.82,11.85-93.98-3.96Z"/>
  <path class="cls-1" d="m136.23,252.04c-5.52-21.73-10.19-43.82-11.58-66.25-1.98-32.02,2.39-68.33,26.92-91.23,4.3-4.02,9-7.66,14.23-10.35,10.95-5.63,24.12-6.8,35.89-3.19,6.68,2.05,12.87,5.62,18.04,10.3,2.67,2.41,5.07,5.12,7.14,8.06.95,1.36,2.05,3.77,3.95,2.87,1.33-.63,2.59-4,3.48-5.21,2.47-3.41,5.46-6.44,8.78-9.02,6.81-5.3,15.02-8.79,23.53-10.19,14.77-2.43,30.1,1.04,43.52,7.69,4.93,2.44,9.69,5.35,13.65,9.17,2.97,2.87,5.44,6.21,7.59,9.73,8.48,13.82,12.06,30.13,13.5,46.29,1.36,15.34.88,30.84-1.38,46.08-2.18,14.66-4.29,20.96-8.5,35.07,0,0-6.97,9.2-6.97,9.2-3.48,3.41-6.32,7.14-9.39,10.33-3.29,3.42-6.81,6.27-10.3,8.97-6.33,4.89-13.48,8.33-22.25,11.66-6.46,2.46-13.22,4.24-19.94,5.82-12.72,2.99-25.8,4.45-38.84,4.49-17.06.06-34.2-2.21-50.48-7.37-12.96-4.11-33.01-10.95-40.59-22.91Z"/>
  <path class="cls-12" d="m275.91,254.23c-38.54,23.95-81.44,5.48-84.33,4.18-12.72-5.74-49.59-29.58-25.95-45.39,4.72-3.15,10.83-3.49,16.41-2.49,5.58,1,10.88,3.18,16.33,4.73,22.71,6.46,47.13,1.6,69.47-6.04,6.67-2.28,13.56-4.85,20.57-4.08,12.33,1.36,17.27,13.62,12.73,24.19-4.61,10.74-15.59,18.9-25.22,24.89Z"/>
  <path class="cls-13" d="m305.04,582.45c-.88,1.51-1.79,3.03-2.79,4.47-3.07-.36-6.58,1.15-8.16,4.47-3.69-2.59-9.62-1.89-11.24,4.02.41-1.44.23-.4-1.17.16-1.13.45-2.34.64-3.53.79-4.89.61-9.8.33-14.7,1.09-1.84.29-3.26,1.61-4.15,3.31l-1.09-2-3.81-9.7-11.62-6.58.52-16.27-1.35-47.78.85-54.7c-8.85,2.05-23.11,3.63-33.03,1.07l.27,2.02-2.69,31.71-4.9,57.52-1.35,28.7c-.39.92-.61,1.94-.61,3.04v7.62l-1.36,3.04-5.45,2.81c-5.35-.34-10.66,1.04-15.34,3.74l-.16-.43-.17.64c-2.2,1.32-4.27,2.93-6.11,4.83-2.04.16-4.07.31-6.08.47-.32.03-.64.06-.97.09-7.64-6.95-14.08-15.58-23.34-20.52,1.13-1.86,2.14-3.69,3.04-5.6.32.05.64.06.95.05,1.81-.08,3.47-.73,4.83-2.02.06-.05.12-.08.19-.12.62-.26,1.2-.59,1.69-1.09.8-.54,1.42-1.27,1.87-2.17.52-.88.81-1.83.85-2.86,1.4-1.68,2.13-4.02,1.45-6.89-3.08-13.07-5.05-27.02-6.47-40.79l-.17-8.69-5.63-48.35-2.86-66.36,9.07,5.15,16.23,4.74,15.14,3.55,10.4,2,29.24,3.66,10.72-.11,17.09-.61,10.43-.5,15.03-1.33,14.9-3.52,11.16-4.78c-.01.11-.01.22-.01.34.03,2.24.13,4.49.27,6.71-.03.23-.04.48-.06.71-.41,14.37.64,28.85.51,43.27-.29,32.19-2.78,64.37-7.45,96.16-.85,5.81-2.42,12.18,2.97,15.69,1.95,2.75,5.06,4.89,8.13,6.15Z"/>
  <polyline class="cls-3" points="146.77 341.41 146.68 348.68 146.15 361.47 145.39 371.36 144.22 381.13 142.66 389.51 141.17 394.89 138.1 401.3 135.58 403.54 134.8 405.17 135.35 414.18 126.39 407.95 117.96 401.65 112.08 397.41 105.64 392.77 99.52 389.04 102.93 383.36 107.59 377.79 111.04 373.09 115.79 364.04 118.49 356.85 120.45 350.92 121.68 347.81 125.4 340.86 130.52 333.96 141.55 322.86 148.01 317.43 155.24 311.72 164.4 304.5 166.28 301.94 168.78 297.86 173.17 290.69 174.65 288.27 178.38 290.57 191.56 298.71 201.09 304.59 205.82 307.51 212.13 311.41 217.93 314.99 222.72 319.31 227.07 323.32 230.7 326.66 232.32 327.47 236.75 321.91 240.1 316.86 257.24 304.66 261.7 302.6 269.13 297.32 273.01 294.56 274.42 293.55 277.12 296.83 281.59 303.04 283.35 305.49 286.32 309.62 287.89 311.8 286.85 312.62 289.99 314.75 297 319.47 307.91 327.19 315.43 333.29 325.21 343.67 327.52 346.98 332.49 357.23 333.8 361.95 336.81 367.32 342.19 376.91 346.8 385.13 351.08 392.75 340.23 402.26 333.8 407.9 315.8 423.67 308.92 429.71 307.59 430.88 306.42 428.86 305.07 426.91 304.47 413.99 300.82 416.3 296.1 418.05 286.43 422.32 278.29 424.63 257.78 428.02 234.26 428.79 211.27 427.16 181.47 422.17 172.33 420.01 152.79 414.18 145.36 411.34 138.47 408 134.8 405.17"/>
  <path class="cls-3" d="m158,222.25c10.37,2.2,60.27,10.35,77.05,7.93,16.78-2.42,64.57-12.06,66.77-14.84,2.19-2.78,0,0,0,0,0,0-2.56-7.31-10.53-9.56-8.25-2.33-15.17,1.06-22.96,3.54-8.35,2.66-16.78,5.09-25.39,6.76-13.54,2.62-27.66,3.3-41.05-.01-6.26-1.55-12.3-3.96-18.64-5.16-3.84-.73-7.84-1-11.65-.13-5.07,1.16-12.75,5.77-13.6,11.47"/>
  <line class="cls-14" x1="270.07" y1="295.54" x2="239.29" y2="317.43"/>
  <path class="cls-1" d="m149.99,616.85c-.98,0-1.99.08-2.96,0-1.46-.13-2.75-.93-4.11-1.55-.15-.07-.31-.14-.41-.27-.11-.14-.16-.32-.2-.49-.27-1.05-.92-2.48-.93-3.55,0-1.16.7-2.64.97-3.77-1.79-1.08-3.04-3.14-3.23-5.33s.66-4.47,2.23-5.9c-2.33-1.51-3.12-4.66-3.72-7.51-.12-.57-.24-1.17-.12-1.74.34-1.57,2.16-2.02,3.62-2.38,6.36-1.55,11.4-6.58,16.12-11.4.92,2.14,2.14,4.53,4.3,4.97-.49.68-.48,1.73.02,2.4,1.28-.71,2.73.52,3.68,1.69.94,1.17,2.21,2.52,3.59,2.06.38,1.16.77,2.32,1.15,3.48,1.23-.36,2.53.33,3.51,1.2s1.81,1.97,2.91,2.67c1.05.66,2.27.92,3.47,1.16,2.59.53,5.18,1.05,7.77,1.58,1.17.24,2.63.37,3.33-.67,2.16,1.27,4.62,1.98,7.08,2.05.1-.56.2-1.12.3-1.68.91-.16,1.78.6,2.14,1.51s.33,1.93.29,2.92c-.16,4.43-.33,8.86-.49,13.29-.07,1.89-.27,4.05-1.71,5.14-1.72,1.3-4.11.27-5.81-1.05-3.31-2.56-5.91-6.17-7.4-10.25-1.87,4.03-4.98,7.3-8.51,9.74-3.53,2.44-7.48,4.09-11.49,5.45-2.51.85-5.06,1.6-7.6,2.33-1.99.57-6.25,1.79-7.6-.68-.45-.82-.51-1.82-.44-2.77.16-2.25,1.06-7.17,3.28-8.02,3.11-1.19,6.22-2.39,9.32-3.59"/>
  <path class="cls-1" d="m309.32,589.01c-.41,1.31-1.4,2.43-2.65,2.76-.8.22-1.65.11-2.47-.04-1.91-.32-3.92-1.13-5.8-1.31.71.07,2.51,2,3.04,2.48,1.23,1.09,2.36,2.33,3.35,3.67.86,1.15,1.66,2.52,1.53,3.99-.06.69-.34,1.37-.77,1.89-1.12,1.32-2.99,1.44-4.66,1.46-.78,0-1.59.02-2.32-.24-.47-.17-.91-.44-1.35-.7-1.87-1.16-3.73-2.55-5.71-3.47.26.75.51,1.53.77,2.29.5,1.53,1.48,3.13,1.08,4.78-.24.97-.78,1.82-1.45,2.5-.15.16-.3.29-.49.36-.17.05-.36.03-.54,0-2.01-.24-4.04-.43-6.03-.77-.03,0,.06,2.45-.02,2.68-.5,1.43-2.82,2.99-4.04,3.66-1.41.77-3.05,1.13-4.61.78-1.98-.45-3.59-2.01-4.79-3.75-.96-1.4-1.83-4.92-3.75-4.92,0,0-.05,0-.13.02-1.09,6.29-9.09,7.54-14.33-1.52-2.38-3.43-4.23-7.23-5.83-11.13-.84-2-1.6-4.05-2.36-6.08-.27-.74-1.86-3.3-1.69-4.04.14-.62-.67-1.29-.53-1.9,3.03,1.06,6.75,2.41,9.68.06,1.23,1.09,2.65,2.05,4.24,2.19,1.59.14,3.35-.79,3.79-2.43.92.39,1.85.78,2.83.89.99.1,2.05-.14,2.77-.86,1.39.8,2.9,1.58,4.47,1.39,1.57-.2,3.07-1.8,2.66-3.43,1.81,1.16,3.75,2.1,5.76,2.82.33-.52.66-1.03.98-1.53,2.1.26,4.24.25,6.34-.05.17-.42.35-.84.52-1.27.07-.18,3.13-.41,3.52-.5,1.14-.26,2.59-.53,3.57-1.23.97-.69,1.19-1.79,1.59-2.89.11-.09,7.89,4.55,8.59,4.97,1.18.72,2.38,1.45,3.38,2.42,1,.98,1.82,2.25,2.03,3.7.12.77.05,1.58-.18,2.33Z"/>
  <path class="cls-13" d="m136,414.76c-4.49-3.44-9.16-6.42-13.75-9.69-4.42-3.15-8.18-6.95-12.77-9.92-.53-.34-.98-.73-1.37-1.14-.49-.41-.94-.87-1.29-1.4-.58-.34-1.17-.67-1.76-1-1.47-.57-2.82-1.41-4-2.6-.39-.39-.7-.84-.98-1.29l-40.48,96.29-.17,3.11,1.89,2.49,2.68-1.36,6.37-13.5-1.96,9.82-1.59,8.79-.37,4.73,1.62,2.47,2.19.15,3.58-1.99,1-4.19,1.23-7.25,1.5-7.19.14-2.09-.73,12.1-.15,2.95.15,3.83-.38,5.11.29,1.78,2.03,1.83,3.39-.3,1.98-1.47.82-3.38-.12-4.78.28-6.79v-5.24l.31-4.48,1.04,7.6.96,6.93.79,5.57.57,3.78,1.03,2.56,3.02,1.06,2.24-.66,1.45-1.41.33-2.52-1.46-27.3.72-3.48.88-.35,1.84,4.28,2.56,6.1.94,5.11,3.74,3.1,2.13-.31h1.84l3.36-.45-.8-4.16-2.46-4.61-2.6-8.66-.68-8.25.69-3.44,1.77-4.35,4.08-5.72,18.3-27.57,4.44-7.07c-.1-.06-.2-.12-.29-.19Z"/>
  <path class="cls-13" d="m388.9,482.17l-6.44-15.73-11.62-23.6-14.84-31.15-8.13-17.39c-.6.66-1.24,1.28-1.88,1.88-.16.49-.38.99-.67,1.49-2.8,4.82-8.96,7.63-13.09,11.22-6.25,5.43-12.31,11.08-18.74,16.31-.62.5-1.94,2.2-1.94,2.2l23.81,31.8,2.35,4.46,1.33,5.87-2.13,8.88-6.14,13.23.37,1.59,2.24.92,4.82.28,3.39-.89,2.03-2.36,1.56-3.3,2.3-6.4,1.75-5.18,1.17-.62.43,3.84.17,4.69-1.62,21.77.7,3.4,2.89.45,2.58-.05,1.91-.62,1.23-2.34,1.23-7.72.99-6.51,1.38-8.88.4,19.96,1,3.74,2.42,1.7,3.66-.24,1.13-.69-.05-3.04.05-10.72.32-8.1,3.44,12.9,1.39,4.33,3.55,1.29,2.37-1.03.36-3.35-1.03-7.07-3.33-16.28,8.58,15.44,2.98,1.18,1.54-3.78-2.16-7.78Z"/>
  <path class="cls-1" d="m72.63,453.34c-.11.23,0,.8,0,1.07,1.67.23,3.95-.3,5.41.63.37.24.68.56,1.08.75,1.39.69,3.24-.41,4.56.43.35.22.61.56.91.84,1.35,1.3,3.64,1.47,5.18.4,1.57,1.51,3.83,2.28,6,2.06,0,.48,0,.96,0,1.44,1.71-.14,3.39-.7,4.85-1.61-.15.1,3.34,1.48,3.89,1.45,1.27-.05,2.23-.76,3.36-1.3l-.84,4.07.64,6,1.33,5.52,1.44,4.2,2.03,4.92,1.3,2.96v1.94l-2.74.49-3.85.59-3.61-1.57-1.17-2.84-3.29-8.4-1.34-4.87-.61-1.22-.99,1.58-.35,5.17.54,9.44.29,5.61.21,4.62.14,4.85-.33,2.52-2.05,1.59h-3.92l-1.68-2.6-.64-4.53-1.83-12.54-.61-2.56-.58,5.72-.07,4.99-.09,3.41-.24,4-1.9,2.83-2.59.57-2.34-.19-1.53-2.87.08-5.68v-5.24l.12-7.06-1.28,6.02-1.37,7.63-3.91,2.62-2.19-.15-1.62-2.47v-3.78l.76-4.87,1.46-6.45.75-3.46-1.61.65-1.72,3.65-2.54,4.85-2.23.93-2.04-.9-.79-3.26.68-4.42s13.31-27.84,13.48-28.18Z"/>
  <path class="cls-1" d="m337.88,474.91c-.24,1.08-.55,2.15-.94,3.19-.74,2-1.75,3.88-2.54,5.86-.58,1.47-1.05,3.01-1.82,4.39-.85,1.53-2.12,3.22-1.45,4.84,2.22.81,4.58,1.39,6.93,1.16,2.35-.24,4.69-1.39,5.92-3.41.45-.74.74-1.57,1.02-2.39,1.49-4.31,2.96-8.63,4.49-12.92,1.59,1.48,1.29,3.54,1.34,5.65.07,2.78-.05,5.56-.22,8.34-.34,5.48-.95,10.94-.96,16.44,0,1.4.1,2.97,1.11,3.94.5.48,1.17.75,1.84.92,1.78.44,3.91.12,5.02-1.35.68-.89.87-2.05,1.05-3.15,1.11-6.92,2.27-13.83,3.33-20.75-.15,1,.2,2.43.23,3.49.05,1.57.09,3.13.14,4.7.09,3.13.19,6.26.28,9.39.07,2.33.35,5.04,2.32,6.28.72.45,1.59.63,2.44.69,1.29.09,2.7-.11,3.61-1.03,1.08-1.09,1.12-2.81,1.08-4.35-.16-5.82-.64-11.63-.74-17.45.03,1.86.91,4.04,1.31,5.87.56,2.49,1.11,4.99,1.67,7.48.24,1.08.51,2.2,1.25,3.02.82.9,2.08,1.26,3.29,1.45,1.29.2,2.81.17,3.62-.85.61-.78.59-1.86.52-2.85-.27-3.65-.87-7.26-1.63-10.83-.71-3.37-2.28-7.08-2.49-10.48.03.54,1.32,1.82,1.63,2.33.54.89,1.03,1.8,1.51,2.72,1.01,1.94,1.98,3.89,2.97,5.84.37.73.76,1.48,1.35,2.05,1.07,1.02,2.81,1.27,4.13.59.18-.09.36-.21.49-.36.15-.18.23-.39.3-.61.94-2.74.03-4.76-.88-7.36-1.01-2.92-2.1-5.81-3.28-8.67l-4.91-10.81-1.95-4.12-.89-1.63-1.87-.06-1.04,1.2-2.89.64-1.79-.4-1.74.97h-2.25l-2.49-.64v1.54s-1.76,1.26-1.76,1.26l-2.49-1.26-2.26-.34-1.11,1.76-1.85.16-2.25-.48-.88,1.04-1.68.64-2.31-.52-.74-.52-.72.88-2.17.6h-2.33l-1.52-.19h-.96c-.6,0-1.22-.09-1.82-.15-.39,1.7.04,3.63-.11,5.4-.09,1.08-.25,2.16-.48,3.22Z"/>
  <path class="cls-14" d="m165.36,303.71c-9.87,8.08-20.42,15.41-29.48,24.44-4.39,4.38-8.41,9.17-11.6,14.5-2.88,4.81-4.56,10.17-6.19,15.5-1.24,4.07-3.18,7.83-5.21,11.56-1.14,2.09-2.3,4.17-3.34,6.3"/>
  <path class="cls-14" d="m269.13,297.32l5.52-3.93,13.24,18.41s-3.34,2-12.75,4.23c-9.41,2.23-26.99,22.78-26.99,20.8s-9.16-18.08-9.16-18.08l-6.67,9.41,1.47,8.67"/>
  <line class="cls-14" x1="269.13" y1="297.32" x2="238.99" y2="318.75"/>
  <polyline class="cls-14" points="232.32 328.16 218.23 315.18 219.23 336.96 205.89 331.26 196.74 325.09 170.07 305.59 164.69 304.52 174.65 288.27 218.23 315.18"/>
  <path class="cls-14" d="m146.77,341.41s.31,56.55-11.18,62.14c-11.5,5.59,107.5,46.29,168.08,11.18,0,0,4.04-4.39-1.55-9.65"/>
  <path class="cls-14" d="m297.15,409.65s14.83.81-4.26-52.42"/>
  <polyline class="cls-14" points="333.8 361.95 351.08 392.75 307.59 430.88 305.94 428.02 300.82 416.3"/>
  <path class="cls-14" d="m135.35,414.18l-35.84-25.82c3-4.62,6.2-9.13,10.38-12.75"/>
  <path class="cls-14" d="m286.85,312.62c19.98,13.68,41.89,26.16,46.95,49.33"/>
  <path class="cls-3" d="m216.57,176.3c0,5.81-1.35,11.3-3.74,16.18-2.61-1.66-5.54-3.12-8.73-4.36-7.06-2.73-15.38-4.3-24.28-4.3s-17.31,1.6-24.4,4.35c-3.14,1.22-6.03,2.67-8.62,4.32-2.4-4.88-3.74-10.37-3.74-16.18,0-20.29,16.46-36.76,36.76-36.76s36.75,16.47,36.75,36.76Z"/>
  <path class="cls-9" d="m209.79,170.55c0,6.57-2.1,12.63-5.69,17.56-7.06-2.73-15.38-4.3-24.28-4.3s-17.31,1.6-24.4,4.35c-3.6-4.95-5.72-11.03-5.72-17.61,0-16.6,13.45-30.05,30.04-30.05s30.05,13.45,30.05,30.05Z"/>
  <path class="cls-3" d="m326.92,174.63c0,5.81-1.35,11.3-3.74,16.18-2.61-1.66-5.54-3.12-8.73-4.36-7.06-2.73-15.38-4.3-24.28-4.3s-17.31,1.6-24.4,4.35c-3.14,1.22-6.03,2.67-8.62,4.32-2.4-4.88-3.74-10.37-3.74-16.18,0-20.29,16.46-36.76,36.76-36.76s36.75,16.47,36.75,36.76Z"/>
  <path class="cls-9" d="m320.13,168.88c0,6.57-2.1,12.63-5.69,17.56-7.06-2.73-15.38-4.3-24.28-4.3s-17.31,1.6-24.4,4.35c-3.6-4.95-5.72-11.03-5.72-17.61,0-16.6,13.45-30.05,30.04-30.05s30.05,13.45,30.05,30.05Z"/>
  <path class="cls-13" d="m250.34,136.13s47.66-14.02,66.35-21.16c18.67-7.15-23.5,73.44-66.35,21.16Z"/>
  <path class="cls-13" d="m219.3,135.96s-47.09-12.49-65.55-19.01c-18.45-6.52,23.18,71.59,65.55,19.01Z"/>
  <polygon class="cls-15" points="122.38 436.29 143.85 464.99 134.8 414.61 122.38 436.29"/>
  <circle class="cls-3" cx="163.89" cy="158.19" r="2.78"/>
  <circle class="cls-3" cx="172.17" cy="166.33" r="2"/>
  <circle class="cls-3" cx="270.07" cy="158.19" r="2.78"/>
  <circle class="cls-3" cx="278.35" cy="166.33" r="2"/>
  <text class="cls-4" transform="translate(130.99 676.69)"><tspan x="0" y="0">Felicidad</tspan></text>
  <g id="Background-2" data-name="Background">
    <path id="Path_0-2" data-name="Path 0" class="cls-3" d="m153.81,349.75v20.87h41.73v-41.73h-41.73v20.87Z"/>
    <path id="Path_1-2" data-name="Path 1" class="cls-2" d="m167.32,338.77c-.11.13-.13.18-.13.54,0,.22.02.46.04.54.02.08.08.17.13.19.05.03.61.07,1.25.09.64.02,1.16.05,1.16.07s-.24.2-.53.41c-.3.21-.77.62-1.05.89-.28.28-.66.69-.83.92-.18.23-.45.6-.59.82-.15.22-.27.42-.27.44,0,.03-.05.13-.12.22s-.24.46-.39.81c-.15.34-.34.86-.43,1.15s-.21.79-.27,1.12c-.08.46-.1.83-.1,1.64,0,.57.01,1.14.03,1.25.02.11.08.44.14.73s.17.72.24.97c.08.25.23.67.35.94s.35.73.52,1.02.49.77.7,1.07.62.77.89,1.03c.27.27.51.49.52.48.02,0,.11.07.21.17.1.09.41.32.68.51s.64.43.83.54c.19.11.57.31.86.45s.76.32,1.04.41.82.22,1.19.29c.37.07.7.15.75.17.05.03,1.47.05,3.16.05h3.07s0-1.55,0-1.55h-4.96v-16.98c2.97-.07,4.57-.07,5.48-.05,1.13.03,1.76.06,2.01.11.2.04.57.18.83.3.26.13.62.34.81.48.19.15.48.41.65.6s.41.51.53.7c.11.2.28.52.36.73.08.2.17.52.21.7s.07.62.07.97-.04.78-.07.97c-.04.19-.17.55-.28.81-.11.26-.32.65-.45.86-.14.21-.36.51-.49.64-.14.14-.39.35-.56.48-.17.13-.51.32-.76.44-.25.11-.49.22-.55.23-.06,0-.13.03-.16.05-.03.02-.25.08-.5.14l-.44.1v1.35c.84,1.5,1.5,2.66,2.01,3.55.51.89,1.15,2.03,1.43,2.53.28.5.57.99.66,1.07.15.16.16.16.69.16.4,0,.56-.02.63-.08.05-.04.09-.14.08-.21,0-.07-.14-.38-.3-.68-.16-.3-.89-1.58-1.61-2.84-.72-1.26-1.49-2.61-1.71-2.99-.22-.38-.4-.7-.4-.71s.32-.19.71-.38c.4-.2.86-.45,1.03-.56s.46-.34.65-.52.42-.45.53-.61c.1-.16.3-.51.44-.77.13-.26.31-.66.4-.89.09-.22.22-.65.29-.95.11-.45.14-.67.14-1.28,0-.56-.03-.83-.11-1.17-.06-.25-.17-.62-.25-.83-.08-.21-.22-.54-.32-.73-.1-.19-.3-.49-.43-.68s-.43-.53-.66-.76c-.23-.23-.61-.55-.83-.7-.22-.16-.62-.38-.88-.5s-.56-.25-.68-.28-.25-.08-.29-.09c-.04-.01-.14-.03-.21-.04s-.25-.05-.39-.08c-.19-.05-2.18-.07-7.77-.08l-7.52-.02-.13.14Z"/>
    <path id="Path_2-2" data-name="Path 2" class="cls-7" d="m177.99,349.34s-.03.4-.02.8l.02.73,1.59.03-.03-1.59c-1.4-.03-1.54-.02-1.56.04h0Z"/>
    <path id="Path_3-2" data-name="Path 3" class="cls-10" d="m178.25,340.13c.49.01,1.26.01,1.72,0,.46,0,.06-.02-.89-.02s-1.32.01-.83.02Z"/>
    <path id="Path_4-2" data-name="Path 4" class="cls-11" d="m168.68,338.62c.56.01,1.45.01,1.98,0,.53,0,.07-.01-1.02-.01s-1.52,0-.97.01Zm6.31,0c.7.01,1.87.01,2.58,0,.72,0,.14-.01-1.28-.01s-2.01,0-1.3.01Z"/>
    <path id="Path_5-2" data-name="Path 5" class="cls-8" d="m172.17,338.62c.25.01.66.01.91,0,.26,0,.06-.02-.44-.02s-.71.01-.47.02Z"/>
    <path id="Path_6-2" data-name="Path 6" class="cls-6" d="m179.42,338.62c.3.01.77.01,1.04,0,.27,0,.03-.02-.55-.02s-.8.01-.5.02Z"/>
    <path id="Path_7-2" data-name="Path 7" class="cls-3" d="m173.14,340.44c-.26.07-.68.2-.94.3-.26.1-.66.28-.89.4-.23.11-.52.27-.65.34-.13.07-.45.29-.7.49-.26.2-.67.57-.91.82-.25.26-.57.64-.74.86-.16.21-.38.53-.48.7-.1.17-.27.49-.37.7s-.22.49-.27.6c-.05.11-.1.23-.1.26-.01.03-.08.28-.15.55-.08.27-.15.57-.17.65s-.04.23-.05.31-.04.43-.06.76c-.02.38-.01.85.03,1.28.03.37.12.9.19,1.17.07.27.2.68.29.91.09.23.27.63.4.89s.33.62.44.81c.12.19.36.52.53.73.18.21.54.6.81.86.27.25.71.61.99.79.27.18.79.47,1.15.64.36.17.9.38,1.2.47.3.09.58.18.63.19s.16.04.26.05l.18.02c.06-4.39.08-6.9.08-8.4s-.02-3.99-.03-5.52c-.03-2.5-.04-2.78-.12-2.78-.05,0-.3.06-.55.13h0Z"/>
    <path id="Path_8-2" data-name="Path 8" class="cls-5" d="m173.81,342.65c0,.7.01.99.02.63.01-.36.01-.93,0-1.28,0-.34-.02-.05-.02.65Zm0,11.92c0,.69.01.96.02.6.01-.36.01-.92,0-1.25,0-.33-.02-.04-.02.65Z"/>
  </g>
</svg>