<?xml version="1.0" encoding="UTF-8"?>
<svg id="Capa_2" data-name="Capa 2" xmlns="http://www.w3.org/2000/svg" xmlns:xlink="http://www.w3.org/1999/xlink" viewBox="0 0 460.91 726.18">
  <defs>
    <style>
      .cls-1 {
        font-family: BigCaslon-Medium, 'Big Caslon';
        font-size: 49.87px;
        font-weight: 500;
      }

      .cls-1, .cls-2 {
        fill: #fff;
      }

      .cls-3 {
        clip-path: url(#clippath);
      }

      .cls-4 {
        fill: #fad6bd;
      }

      .cls-5 {
        fill: #694f42;
      }

      .cls-6 {
        fill: #c96667;
      }

      .cls-7 {
        fill: #1d1d1b;
      }

      .cls-8 {
        fill: #281d1d;
      }

      .cls-9 {
        fill: #7a5132;
      }

      .cls-10 {
        fill: none;
        stroke: #696961;
        stroke-miterlimit: 10;
        stroke-width: 1.44px;
      }

      .cls-11 {
        fill: #432918;
        opacity: .57;
      }
    </style>
    <clipPath id="clippath">
      <path class="cls-8" d="m180.73,280.49s-.06-.03-.08-.04c-7.63-3.66-1.88-20.91-.21-26.7,1.67-5.78,4.01-16.9,9.38-20.61,5.69-3.94,15.22-4.57,21.99-5.14,9-.76,18.1-.33,27.02,1.07,18.17,2.85,33.85,25.27,37.94,43.46.55,2.45-1,4.89-3.45,5.41-17.8,3.82-35.93,6.3-54.15,6.49-5.42.06-10.84-.15-16.24-.54-6.71-.49-16.08-.5-22.19-3.39Z"/>
    </clipPath>
  </defs>
  <path class="cls-9" d="m321.94,457.07c34.37-15.66,74.1-10.85,101.44,12.44,37.69,32.11,31.28,81.82,29.67,91.87-4.53,28.21-22.01,54.15-45.77,69.85-7.15,4.73-15.91,7.81-24.31,6.06-5.2-1.08-9.9-3.96-13.76-7.61-4.48-4.23-8.08-10.21-7.04-16.29,3.01-17.54,34.22-26.28,45.39-38.35,20.71-22.37,16.63-58.83-5.24-78.73-17.57-15.99-44.28-19.85-68.9-10.53l-11.48-28.71Z"/>
  <circle class="cls-5" cx="230.87" cy="462.66" r="96.7"/>
  <path class="cls-9" d="m418.64,184.63c0,38.42-12.54,70.72-39.42,70.72s-30.26-8-30.26-8c-11.74,20.36-28.23,35.29-51.44,46.99-35.97,18.12-72.7,17.61-81.15,17.34-12.17-.41-62.23-2.06-96.22-31.43-5.72-4.92-10.99-10.66-15.54-17.3-3.97-5.81-6.56-11.06-8.11-14.61,0,.72-.65,7.02-23.68,7.02-24.4,0-35.8-32.3-35.8-70.72s44.27-28.65,44.27-28.65C85.1-43.39,299.58,12.48,304.39,18.24c4.79,5.76,47.99-18.24,47.99-18.24,0,4.48-17.29,24.65-17.29,24.65,24.96.31,24.29,29.1,24.29,29.1-7.05-17.55-21.2-7.64-21.2-7.64,14.82,24.86,25.69,52.19,30.31,80.83,1.7,10.63,2.54,21.38,2.47,32.11,7.08-1.64,47.69-9.49,47.69,25.6Z"/>
  <path class="cls-9" d="m168.66,299.5s9.96,14.68,3.67,22.24l43.42,26.37,15.69,14.4,7.35-10.43,35.46-25.18s-9.76-7.5-.96-22.98c0,0-32.08,13.19-104.64-4.41Z"/>
  <path class="cls-9" d="m143.11,446.31c-3.36.07-6.72-.01-10.08-.02-1.06,0-2.17,0-3.13.47-1.05.51-1.77,1.5-2.44,2.45-4.83,6.79-9.69,13.51-13.08,21.16-2.88,6.51-5.04,13.32-6.91,20.18-1.78,6.54-4.34,13.82-3.1,20.66.78,4.26,3.04,8.05,5.53,11.52,7.2,10.05,14.11,20.3,21.08,30.51,5.99,8.78,11.98,17.56,17.96,26.35,1.77,2.6,3.75,5.04,5.37,7.74,1.7,2.82,3.2,5.76,5.2,8.38,4.44,5.84,10.99,9.73,17.79,12.47,5.81,2.34,12.43,3.11,18.4,4.99,3.31,1.04,5.98,3.15,9.19,4.47,2.96,1.22,5.79,2.84,9.07,2.94,3.59.11,7.19.06,10.78.09,1.41.01,2.56-.21,3.11-1.65.79-2.06.28-4.28-1.02-6-1.42-1.88-6.21-5.05-8.29-6.11,3.55.91,8.53.69,12.09,1.52,1.03-2.97-.06-2,.97-4.97.1-.29,2.76-2.35,1.57-1.18-1.31,1.28-4.36,1.15-2.53-.18,1.98-1.44-8.73-5.02-9.69-6.73,4.15-1.58,12.14-1.15,16.11-3.15-.7-1.04,1.44-2.03.74-3.07-.58-.87-8.89-3.51-9.23-4.52-.75-2.18,11.68-2.17,13.04-2.82.4-.19.8-.38,1.11-.7,1.22-1.29.84-4.51.69-6.1-.14-1.46-1.36-1.04-2.67-1.68-.91-.44-1.96-.37-2.94-.13-3.63.9-5.92.83-9.02,2.83-3.22-5.09-6.52-10.14-9.79-15.2-4.4-6.82-8.8-13.64-13.2-20.46-3.37-5.22-6.73-10.43-10.1-15.65-.53-.83-1.07-1.66-1.6-2.49"/>
  <path class="cls-9" d="m319.57,446.31c2.74.07,5.49-.01,8.23-.02.87,0,1.77,0,2.55.47.86.51,1.44,1.5,1.99,2.45,3.94,6.79,7.91,13.51,10.67,21.16,2.35,6.51,4.12,13.32,5.64,20.18,1.45,6.54,3.55,13.82,2.53,20.66-.63,4.26-2.48,8.05-4.52,11.52-5.88,10.05-11.52,20.3-17.21,30.51-4.89,8.78-9.78,17.56-14.67,26.35-1.45,2.6-3.06,5.04-4.39,7.74-1.39,2.82-2.62,5.76-4.25,8.38-3.62,5.84-8.97,9.73-14.52,12.47-4.75,2.34-9.7,3.92-14.58,5.8-2.7,1.04-5.33,2.34-7.94,3.66-2.42,1.22-4.73,2.84-7.4,2.94-2.93.11-5.87.06-8.8.09-1.15.01-2.09-.21-2.54-1.65-.64-2.06,7.88-6.32,8.94-8.04,1.16-1.88-5.25-1.3-3.55-2.37-2.9.91-5.83,1.68-8.74,2.52-.84-2.97-.44-5.3-1.28-8.27-.08-.29.86.15.97-.13.1-.25.68-1.07.89-1.18,1.84-1.06,5.17-4.35,7.02-5.41-3.39-1.58-8.06-2.21-11.29-4.21.57-1.04.47-1.2,1.04-2.24.48-.87,8.57-5.25,8.86-6.25.61-2.18-12.97-.98-14.09-1.63-.32-.19-.66-.38-.9-.7-.99-1.29-.69-4.51-.56-6.1.11-1.46,1.97.12,3.04-.52.74-.44,1.87.28,2.67.52,2.96.9,5.48,2.57,8.01,4.58,2.63-5.09,3.54-13.69,6.21-18.75,3.59-6.82,7.18-13.64,10.77-20.46,2.75-5.22,5.49-10.43,8.24-15.65.44-.83.87-1.66,1.31-2.49"/>
  <polygon class="cls-2" points="95.21 422.42 102.93 412.02 107.72 399.36 112.79 385.33 118.59 374.56 126.52 365.08 134.64 356.96 145.04 348.48 157.71 338.35 159.38 336.59 166.77 324.15 169.3 320.12 176.32 324.15 187.59 331 199.85 338.58 212.47 346.04 219.77 350.8 227.31 358.01 231.5 361.56 232.69 361.29 237.56 353.84 239.67 351.45 259.14 337.12 270.09 328.91 277.02 324.15 280.76 329 285.86 336.21 291.25 343.5 299.27 348.98 313.32 359.01 323.02 366.95 330.74 375.34 336.37 383 342.41 397.2 343.72 408.87 345.65 420.95 348.27 437.31 308.19 441.42 307.97 444.61 308.8 445.3 310.7 448.29 311.09 450.6 310.76 452.97 309.66 454.37 305.69 456.35 292.95 462.1 286.66 464.33 273.47 467.76 255.54 470.02 239.36 470.76 227.71 470.4 216.95 470.08 197.36 467.71 184.67 465.75 170.39 462.49 145.58 455.7 129.16 448.32 128.03 446.6 127.93 445.48 130.29 443.16 132.28 441 132.92 439.49 131.44 438.39 113.52 431.28 95.21 422.42"/>
  <path class="cls-9" d="m102.93,427.11c0,8.61-.1,17.27-.28,25.91-.05,2.25-.08,4.58.75,6.68,1.16,2.93,3.79,4.96,6.32,6.84,33.21,24.78,67.07,48.65,100.91,72.56,1.68,1.19,3.38,2.39,5.31,3.12,5.64,2.15,13.54-1.05,15.7-6.87,2.72-7.35-3.03-16.04-5.31-22.78-2.5-7.37-5.09-13.55-10.34-19.44-4.9-5.5-10.64-10.14-15.86-15.32-5.43-5.39-10.33-11.43-16.65-15.82-6.95-4.82-15.32-7.47-22.91-11.08-7.03-3.35-14.09-6.74-21.35-9.57-1.47-.57-2.95-1.16-4.49-1.53-8.56-2.03-31.78-12.69-31.78-12.69Z"/>
  <path class="cls-9" d="m348.27,437.31c-3.97,12.63-2.99,12.41-6.24,25.25-2.95,11.65-9.1,20.41-16.62,30.19-6.72,8.75-16.95,13.92-26.48,19.49-9.16,5.36-17.97,11.35-26.22,18.03-6.36,5.15-13.69,12.25-21.6,5.87-3.93-3.18-7.98-7.21-9.56-12.13-1.95-6.07-4.71-14.92-.43-20.64,4.74-6.34,10.4-11.95,15.95-17.57,4.96-5.04,9.46-10.62,14.49-15.66,10.25-10.28,23.33-23.33,37.08-28.39"/>
  <path class="cls-4" d="m118.8,278.2c-6.09-23.99-11.25-48.37-12.78-73.13-2.19-35.34,2.64-75.42,29.71-100.7,4.75-4.43,9.93-8.45,15.71-11.42,12.09-6.22,26.62-7.51,39.61-3.52,7.37,2.26,14.2,6.21,19.92,11.37,2.94,2.66,5.6,5.65,7.88,8.9,1.05,1.5,2.27,4.16,4.36,3.17,1.46-.69,2.86-4.41,3.84-5.76,2.73-3.76,6.03-7.1,9.7-9.96,7.52-5.85,16.58-9.7,25.97-11.25,16.31-2.68,33.23,1.15,48.03,8.49,5.44,2.7,10.7,5.9,15.07,10.12,3.27,3.16,6,6.86,8.38,10.74,9.36,15.26,13.31,33.26,14.9,51.09,1.5,16.93.97,34.05-1.52,50.86-2.4,16.18-7.27,31.62-11.92,47.2l-.17,1.16-6.97,6.84-2.58,2.93-6.32,5.38-3.77,2.57-3.35,2.47-5.26,2.77-6.5,4.18-7.75,3.66-11.24,4.55-11.16,3.9-13.48,3.37-13.43,2.03-16.68,1.3-14.65.28-16.15-1.26-17.7-2.92-13.84-3.61-17.25-6.21-11.2-5.93-15.02-9.86-2.39-3.77Z"/>
  <path class="cls-4" d="m264.1,536.73c0,.09-.19.22-.26.29-.16.16-.32.32-.49.47-.51.48-1.04.95-1.57,1.41-.74.63-1.5,1.24-2.29,1.82-.94.7-1.9,1.35-2.89,1.97-1.1.68-2.23,1.31-3.4,1.86-1.23.59-2.5,1.09-3.8,1.5-1.34.41-2.71.72-4.1.87s-2.87.17-4.3,0c-1.51-.18-2.98-.57-4.39-1.15-1.2-.49-2.35-1.12-3.42-1.85-14.7-10.01-12.97-5.23-13.38-18.29-.39-12.93,4.05-15.76,4.14-16.84.13-1.65,7.97-5.63,9.87-6.05,1.45-.34,7.24-.11,7.3.65,0,0-.63,1.93-.11,2.66.3.45,1.03.46,2.59-.65,0,0-2.31,8.41,1.9,5.11,0,0-1.51,2.24-2.03,3.84-.34,1.08-.24,1.85,1.06,1.48.27-.07.59-.2.96-.37l2.74-1.09s-1.68,2.57-1.97,3.88c-.14.53-.03.86.52.73.32-.09.79-.33,1.45-.78,0,0-.04,1.54.14,2.97.19,1.49.62,2.87,1.58,2.21.14-.09.3-.23.47-.43,0,0-.06.37-.1.95-.16,2.11-.1,6.9,3.82,5.32l.09.11c-.22,1.09-1.22,7.28,2.93,4.09.47-.36,1.03-.86,1.67-1.52,0,0-.55,1.84-.45,3.22.06.79.33,1.44,1.05,1.45.43.03,1.01-.16,1.78-.65-.08.05.03.59.05.66.08.34.27.72.64.8.08.02.16.01.24.01.34-.02.68-.08,1-.19.34-.12.62-.34.95-.48Z"/>
  <path class="cls-2" d="m254.27,529.18s-.01.06-.03.16l-.09-.11s.07-.03.11-.04Z"/>
  <path class="cls-4" d="m245.79,515.76c-3.53-11.78-21.85-14.51-23.02-13.65,0,.01.01.03.01.04.07.36.53,2.82-.26,2.95-.27.06-.72-.19-1.39-.93,0,0,1.52,8.58-1.26,5.23,0,0,3.28,7.46,0,5.03l-1.82-1.12s3.03,7.1,0,3.92c0,0,.11,7.66-1.47,4.86,0,0,.85,8.58-2.56,6.35,0,0,1.35,9.7-3.03,2.79,0,0,1.34,6.91-1.58,4.11,0,0,.09,1.29-.49,1.52h-.01c-.3.13-.76-.04-1.51-.78.11.13.37.46.76.92,1.61,1.93,5.34,6.24,8.81,9.01,4.58,3.65,11.47,2.87,17.01,1.09,7.54-2.43,13.13-12.58,12.2-28.13-.07-1.13-.09-2.21-.39-3.21-2.82,0-5.71-.48-1.49-3.29"/>
  <path class="cls-2" d="m208.15,536.99c-1.19-.63-.82-.99-.82-.99h.01s.03.04.04.07c.11.13.37.46.76.92Z"/>
  <path class="cls-2" d="m207.35,536.02c.1.07.69.45,1.55.83-.3.13-.76-.04-1.51-.78-.01-.03-.03-.04-.04-.06Z"/>
  <path class="cls-2" d="m241.12,503.39l-.11,2.66c-.52-.73.11-2.66.11-2.66Z"/>
  <path class="cls-2" d="m244.53,515.83c-1.31.37-1.41-.4-1.06-1.48l1.06,1.48Z"/>
  <path class="cls-4" d="m240.68,581.84c-1.64,1.64-9.02,2.67-9.02,2.67,0,0,6.78,3.95,7.13,5.66.34,1.72-1.36,4.3-3.32,5.79-1.88,1.44-9.96.11-10.63.01.62.24,7.7,3.07,9.83,5.55,2.24,2.57-.85,6.78-1.88,8.66-.99,1.82-10.76-1.31-11.48-1.54.85.5,13.82,8.12,4.53,12.04-5.46,2.3-13.78.1-19.97-2.23l-7.5-3.58c-5.2-1.91-9.02-3.91-9.02-3.91,7.53,2.31,2.01-3.69,2.01-3.69,8,3.36,4.8-5.8,4.8-5.8,6.87,2.23,1.87-5.78,1.87-5.78,2.76,2.03,4.94-6.75,4.94-6.75,7.37,1.8,3.68-4.84,3.68-4.84,10.01,2.59,3.46-6.08,3.46-6.08,6.44,3.94,2.18-4.15,2.18-4.15l4.94,1.45c4.96,1.47-.69-5.85-.69-5.85,7.26,2.18,3.97-6.15,3.75-6.67l3.66,5.55c.36.23.79,1.08.96,1.47l.04.09,3.83,6.15,1.87-1.23.43-.32c2.61-.98,8.72-3.09,10.63-2.63,2.46.59.6,8.33-1.03,9.96Z"/>
  <path class="cls-4" d="m231.08,574.51l-.43.32c.03-.06.04-.13.07-.19.11-.04.23-.09.36-.13Z"/>
  <path class="cls-4" d="m240.01,582.19c1.34,1.67,7.38,2.72,7.38,2.72,0,0-5.54,4.03-5.83,5.77-.28,1.76,1.12,4.38,2.71,5.9,1.54,1.46,8.14.12,8.69.01-.5.25-6.29,3.13-8.03,5.65-1.83,2.62.69,6.91,1.54,8.83.81,1.86,8.8-1.33,9.38-1.57-.69.51-11.3,8.27-3.7,12.27,4.46,2.34,11.26.1,16.32-2.27l6.13-3.64c4.25-1.95,7.38-3.98,7.38-3.98-6.15,2.36-1.64-3.76-1.64-3.76-6.54,3.43-3.92-5.91-3.92-5.91-5.61,2.27-1.53-5.88-1.53-5.88-2.25,2.06-4.04-6.88-4.04-6.88-6.02,1.83-3.01-4.93-3.01-4.93-8.19,2.63-2.83-6.19-2.83-6.19-5.26,4.01-1.79-4.23-1.79-4.23l-4.04,1.48c-4.05,1.49.56-5.96.56-5.96-5.93,2.22-3.24-6.26-3.07-6.79l-2.99,5.65c-.29.23-.65,1.1-.79,1.49l-.04.09-3.15,6.38-1.51-1.38-.35-.32c-2.14-1-7.13-3.15-8.69-2.68-2.01.6-.49,8.49.85,10.14Z"/>
  <path class="cls-4" d="m247.86,574.73l.35.32c-.02-.06-.04-.13-.06-.19-.09-.04-.19-.09-.29-.13Z"/>
  <path class="cls-9" d="m143.57,103.52s39.97,26.79,56.87,36.28c16.9,9.47-69.23,28.02-56.87-36.28Z"/>
  <path class="cls-9" d="m306.25,99.61s-44.2,26.79-62.88,36.27c-18.68,9.48,76.55,28.02,62.88-36.27Z"/>
  <path class="cls-9" d="m244.42,512.28s-3.38,5.65,1.45,3.03c4.82-2.62-1.45-3.03-1.45-3.03"/>
  <circle cx="167.18" cy="183.23" r="8.71"/>
  <circle class="cls-7" cx="276.5" cy="183.23" r="8.71"/>
  <g>
    <path class="cls-8" d="m180.73,280.49s-.06-.03-.08-.04c-7.63-3.66-1.88-20.91-.21-26.7,1.67-5.78,4.01-16.9,9.38-20.61,5.69-3.94,15.22-4.57,21.99-5.14,9-.76,18.1-.33,27.02,1.07,18.17,2.85,33.85,25.27,37.94,43.46.55,2.45-1,4.89-3.45,5.41-17.8,3.82-35.93,6.3-54.15,6.49-5.42.06-10.84-.15-16.24-.54-6.71-.49-16.08-.5-22.19-3.39Z"/>
    <g class="cls-3">
      <path class="cls-6" d="m223.34,284.43s6.11-31.76,49.41-35.23l8.43,22.47-1.65,5.95-15.37,5.78-40.82,1.02"/>
    </g>
  </g>
  <path class="cls-10" d="m159.38,336.9c-10.52,8.86-21.79,16.92-31.43,26.79-4.67,4.78-8.93,10.01-12.29,15.8-3.03,5.23-4.77,11.03-6.45,16.8-1.28,4.41-3.32,8.49-5.45,12.54-1.2,2.27-2.41,4.53-3.51,6.85"/>
  <path class="cls-10" d="m290.53,343.06c21.8,15.12,45.68,28.86,51.5,54.91"/>
  <path class="cls-10" d="m271.17,328.47l5.89-4.32,14.55,19.65s-3.57,2.2-13.68,4.75c-10.11,2.54-28.76,24.96-28.79,22.83-.03-2.14-10.15-19.35-10.15-19.35l-7.05,10.24,1.71,9.32"/>
  <line class="cls-10" x1="271.17" y1="328.47" x2="238.99" y2="352.03"/>
  <polyline class="cls-10" points="231.94 362.27 216.56 348.48 217.96 371.96 203.49 366.01 193.53 359.49 164.49 338.85 158.67 337.79 169.16 320.12 216.56 348.48"/>
  <path class="cls-10" d="m139.89,377.82s.87,45.27-6.77,61.76"/>
  <path class="cls-10" d="m308.48,441.73c1.13-7.18-.44-21.3-10.81-49.01"/>
  <polyline class="cls-10" points="308.53 441.42 348.27 437.31 341.86 397.2"/>
  <path class="cls-10" d="m132.32,438.98l-37.6-16.07c2.75-2.18,1.46-3.7,5.92-7.67"/>
  <path class="cls-11" d="m272.71,530.28s47.36-25.78,52.7-37.53c0,0,14.33-22.42,15.73-27.07l5.05,14.77s-8.07,19.63-12.49,21.51-60.99,28.32-60.99,28.32Z"/>
  <path class="cls-11" d="m195.31,530.28s-55.32-24.19-61.56-35.22c0,0-16.74-21.04-18.38-25.4l-5.89,13.86s9.43,18.42,14.59,20.19c5.16,1.76,71.24,26.58,71.24,26.58Z"/>
  <text class="cls-1" transform="translate(139.96 692.45)"><tspan x="0" y="0">Sorpresa</tspan></text>
</svg>