<?xml version="1.0" encoding="UTF-8"?>
<svg id="Capa_2" data-name="Capa 2" xmlns="http://www.w3.org/2000/svg" viewBox="0 0 411.75 646.92">
  <defs>
    <style>
      .cls-1 {
        fill: #fad6bd;
      }

      .cls-2 {
        fill: #010101;
      }

      .cls-3, .cls-4 {
        fill: #fff;
      }

      .cls-5 {
        fill: #bfbebf;
      }

      .cls-6 {
        fill: #c0c0bf;
      }

      .cls-7 {
        fill: #1e2b4f;
      }

      .cls-8 {
        fill: #404040;
      }

      .cls-9 {
        fill: #3f3f3f;
      }

      .cls-10 {
        fill: #808181;
      }

      .cls-11, .cls-12 {
        fill: #7a5132;
      }

      .cls-4 {
        font-family: BigCaslon-Medium, 'Big Caslon';
        font-size: 44.56px;
        font-weight: 500;
      }

      .cls-13 {
        stroke: #696961;
      }

      .cls-13, .cls-14, .cls-15, .cls-16 {
        fill: none;
        stroke-miterlimit: 10;
        stroke-width: .79px;
      }

      .cls-14 {
        stroke: #6a6a61;
      }

      .cls-15 {
        stroke: #1d1d1b;
      }

      .cls-16 {
        stroke: #57564b;
      }

      .cls-17 {
        opacity: .46;
      }

      .cls-17, .cls-18 {
        fill: #683c11;
      }

      .cls-12, .cls-18 {
        opacity: .41;
      }
    </style>
  </defs>
  <path class="cls-12" d="m302.4,145.87c-.7.86-1.55,1.56-2.66,1.84.78-.66,1.71-1.26,2.66-1.84Z"/>
  <path class="cls-11" d="m343.2,168.04c-4.8,28.85-18.25,51.53-38.43,48.18-14.02-2.33-19.04-6.15-20.8-8.26-6.62,6.19-14.42,11.47-23.58,16.09-27.38,13.8-55.34,13.41-61.78,13.2-9.26-.31-47.38-1.57-73.24-23.93-1.88-1.61-3.69-3.34-5.41-5.19-.16,1.49-2.05,5.39-16.32,8.8-18.07,4.31-32.22-17.6-39-46.05-2.17-9.12-.02-18.06,8.06-23.37,6.93-4.56,17.78-7.71,25.16-2.98,1.63,1.04,3.37,2.41,4.06,4.22-10.69-28.11-6.64-62.55,6.54-89.48,8.87-18.11,23.3-32.61,41.36-41.57,16.22-8.04,34.36-11.6,52.35-12.41,14.96-.68,30.07.47,44.79,3.26,4.39.84,8.79,1.79,13.06,3.09,1.51.45,4.49.92,5.58,2.23,3.64,4.38,36.52-13.88,36.52-13.88,0,3.41-13.16,18.76-13.16,18.76,19,.24,18.49,22.15,18.49,22.15-5.37-13.37-16.14-5.82-16.14-5.82,10.31,17.3,18.13,36.21,22.08,56,3.66,18.38,3.85,37.12-6.55,53.45-.25.4-.53.79-.83,1.15-.95.58-1.87,1.18-2.66,1.84,1.11-.28,1.95-.98,2.66-1.84.76-.46,1.53-.9,2.26-1.35.69-.43,1.38-.85,2.14-1.13,1.09-.4,2.27-.47,3.43-.48,15.84-.28,32.4,7.03,29.35,25.32Z"/>
  <path class="cls-11" d="m154.43,223.76s8.61,12.1,3.18,18.34l37.55,21.75,13.57,11.87,6.36-8.6,30.67-20.77s-7.68-4.36-.07-17.13c0,0-28.5,9.06-91.25-5.46Z"/>
  <path class="cls-11" d="m315.93,378.25c-12.57,51.17-53.91,86.89-50.22,86.29l7.38-70.75,42.84-15.55Z"/>
  <path class="cls-11" d="m91.92,371.46c4.66-3.7,23.37,75.05,54.41,89.67l-1.62-65.52-52.8-24.15Z"/>
  <path class="cls-11" d="m294.15,420.73c1.98,7.95,5.86,15.63,9.25,23.05,3.73,8.18,7.73,16.23,11.23,24.51,5.29,12.5,9.48,25.72,9.59,39.29.11,13.57-4.28,27.61-14.06,37.02-2.46,2.37-5.37,4.48-8.73,5.09-3.35.61-6.87-.36-9.73-2.2-2.94-1.9-5.39-5.01-5.35-8.51.03-2.37,1.18-4.59,2.66-6.44,5.19-6.48,14.38-9.26,18.35-16.55,2.89-5.31,2.3-11.82.99-17.73-4.47-20.11-16.06-37.8-27.76-54.76"/>
  <path class="cls-1" d="m125.37,213.32c-4.53-18.41-8.83-42.45-9.97-61.45-1.63-27.12,1.96-57.88,22.09-77.28,3.53-3.4,7.38-6.49,11.68-8.77,8.98-4.77,19.79-5.76,29.44-2.7,5.48,1.74,10.56,4.76,14.8,8.73,2.19,2.04,4.16,4.33,5.86,6.83.78,1.15,1.68,3.19,3.24,2.43,1.09-.53,2.13-3.39,2.85-4.42,2.03-2.89,4.48-5.45,7.21-7.64,5.59-4.49,12.33-7.45,19.31-8.63,12.12-2.06,24.7.88,35.7,6.51,4.05,2.07,7.95,4.53,11.2,7.77,2.43,2.43,4.46,5.26,6.23,8.24,6.96,11.71,9.9,25.53,11.07,39.21,1.12,13,.72,26.13-1.13,39.03-1.79,12.42-5.4,24.27-8.86,36.22l-.13.89-3.22,10.79-1.68,1.47-2.1,1.74-2.86,2.2-3.88,2.71-3.91,2.48-5.05,2.87-5.94,2.98-8.19,3.43-9.26,3.06-9.86,2.42-10.62,1.76-13.52,1.1-11.22-.22-11.85-1.1-13.69-2.24-10.88-2.88-11.85-4.44-9.27-4.74-10.45-7.27-1.29-1.09Z"/>
  <path class="cls-15" d="m346.22,123.55v-.02"/>
  <path class="cls-11" d="m276.69,524.48c-.77,1.22-1.56,2.45-2.42,3.61-2.66-.29-5.71.93-7.08,3.61-3.2-2.1-8.35-1.53-9.75,3.25.35-1.17.2-.33-1.02.13-.98.36-2.03.51-3.06.64-4.24.49-8.5.26-12.75.88-1.59.24-2.82,1.31-3.6,2.67l-.94-1.62-3.3-7.84-10.08-5.32.45-13.15-1.17-38.63.74-44.22c-7.68,1.66-20.04,2.94-28.65.87l.24,1.63-2.33,25.64-4.25,46.51-1.17,23.2c-.34.74-.53,1.57-.53,2.46v6.16l-1.18,2.46-4.73,2.27c-4.64-.28-9.25.84-13.3,3.02l-.14-.35-.15.51c-1.91,1.07-3.7,2.37-5.3,3.9-1.77.13-3.53.25-5.27.38-.28.03-.55.05-.84.08-6.63-5.62-12.21-12.6-20.24-16.59.98-1.51,1.86-2.99,2.64-4.53.28.04.55.05.83.04,1.57-.06,3.01-.59,4.19-1.63.05-.04.1-.06.16-.1.54-.21,1.04-.48,1.47-.88.69-.44,1.23-1.03,1.62-1.76.45-.72.7-1.48.74-2.31,1.22-1.36,1.84-3.25,1.25-5.57-2.67-10.57-4.38-21.85-5.61-32.98l-.15-7.03-4.89-39.09-6.41-53.48,11.79,4,14.07,3.83,13.13,2.87,9.02,1.61,25.36,2.96,9.3-.09,14.82-.49,9.05-.4,13.04-1.08,12.93-2.85,9.68-3.87c-.01.09-.01.18-.01.28.03,1.81.11,3.63.24,5.42-.03.19-.04.39-.05.58-.35,11.62.55,23.33.44,34.99-.25,26.03-2.41,52.04-6.46,77.74-.74,4.69-2.1,9.85,2.57,12.69,1.69,2.22,4.39,3.95,7.05,4.97Z"/>
  <path class="cls-1" d="m142.21,552.29c-.85,0-1.72.07-2.57,0-1.27-.1-2.38-.75-3.57-1.25-.13-.05-.26-.11-.36-.22-.1-.11-.14-.26-.18-.4-.23-.85-.79-2-.8-2.87,0-.94.61-2.14.84-3.05-1.55-.88-2.63-2.54-2.8-4.31-.17-1.77.57-3.61,1.93-4.77-2.02-1.22-2.71-3.77-3.23-6.07-.1-.46-.21-.94-.1-1.41.3-1.27,1.87-1.64,3.14-1.93,5.51-1.26,9.89-5.32,13.98-9.22.8,1.73,1.86,3.67,3.73,4.02-.43.55-.42,1.4.02,1.94,1.11-.57,2.37.42,3.19,1.37.82.95,1.92,2.04,3.12,1.67l1,2.81c1.07-.29,2.19.26,3.05.97s1.57,1.59,2.53,2.15c.91.54,1.97.74,3.01.94,2.25.43,4.49.85,6.74,1.28,1.02.19,2.28.3,2.89-.54,1.88,1.03,4,1.6,6.14,1.66l.26-1.36c.79-.13,1.55.48,1.86,1.22s.29,1.56.26,2.36c-.14,3.58-.28,7.16-.43,10.74-.06,1.53-.24,3.28-1.49,4.16-1.49,1.05-3.56.22-5.04-.85-2.87-2.07-5.13-4.99-6.42-8.29-1.62,3.26-4.32,5.9-7.39,7.87-3.06,1.97-6.49,3.31-9.96,4.41-2.18.69-4.39,1.29-6.59,1.89-1.73.46-5.42,1.44-6.59-.55-.39-.66-.44-1.47-.38-2.24.14-1.82.92-5.8,2.85-6.49,2.7-.96,5.39-1.93,8.09-2.9"/>
  <path class="cls-1" d="m280.4,529.79c-.36,1.06-1.22,1.97-2.3,2.23-.7.17-1.43.09-2.14-.03-1.66-.26-3.4-.92-5.03-1.06.62.06,2.17,1.62,2.64,2.01,1.07.89,2.05,1.88,2.91,2.96.74.93,1.44,2.04,1.33,3.22-.06.56-.29,1.11-.67,1.53-.97,1.07-2.59,1.16-4.04,1.18-.68,0-1.38.02-2.02-.2-.41-.13-.79-.36-1.17-.57-1.62-.94-3.23-2.06-4.96-2.81.22.61.44,1.23.67,1.85.43,1.23,1.28,2.53.94,3.86-.21.78-.68,1.47-1.26,2.02-.13.13-.26.24-.43.29-.15.04-.31.02-.47,0-1.75-.2-3.5-.35-5.23-.62-.02,0,.06,1.98-.02,2.17-.43,1.15-2.45,2.42-3.5,2.96-1.23.62-2.65.92-4,.63-1.72-.36-3.11-1.63-4.16-3.04-.83-1.13-1.59-3.98-3.26-3.98,0,0-.04,0-.11.02-.95,5.08-7.89,6.09-12.43-1.23-2.06-2.77-3.67-5.85-5.06-8.99-.73-1.62-1.39-3.27-2.05-4.92-.24-.6-1.61-2.67-1.47-3.26.12-.5-.58-1.04-.46-1.53,2.62.85,5.86,1.95,8.39.05,1.07.88,2.3,1.66,3.68,1.77,1.38.11,2.91-.64,3.29-1.97.8.32,1.6.63,2.46.72.86.08,1.78-.11,2.4-.7,1.2.65,2.51,1.28,3.87,1.12,1.36-.16,2.66-1.45,2.31-2.77,1.57.94,3.26,1.7,5,2.28.28-.42.57-.83.85-1.24,1.83.21,3.68.21,5.5-.04.15-.34.3-.68.45-1.03.06-.14,2.72-.33,3.05-.4.99-.21,2.24-.43,3.1-1,.84-.56,1.04-1.45,1.38-2.34.09-.07,6.84,3.68,7.45,4.02,1.03.58,2.06,1.17,2.93,1.96.87.79,1.58,1.82,1.76,2.99.1.62.05,1.28-.16,1.88Z"/>
  <polygon class="cls-3" points="87.77 369.54 89.14 364.18 89.58 356.75 90.12 350.22 90.83 347.13 92.78 343.41 96.59 336.32 98.5 332.41 100.1 328.28 102.05 322.16 102.95 319.64 105.65 313.66 109.1 308.21 115.9 300.02 120.6 295.39 126.79 289.98 134.67 283.57 143.24 276.84 149.06 272.27 152.69 269.35 150.66 267.61 151.86 263.21 153.53 257.08 155.17 250.18 157.19 243.66 157.94 242.21 165.68 246.91 173.76 251.45 180.83 255.66 188.17 259.73 193.25 262.7 197.42 265.67 201.32 269.27 208.75 276.12 210.5 272.81 215.09 267.12 223.45 261.5 231.23 255.99 238.74 250.95 245.41 246.61 246.18 247.02 248.5 250.69 251.68 255.71 255.9 262.38 258.73 266.85 254.71 270.7 255.65 271.91 259.94 274.97 270.06 282.32 277.47 287.99 283.18 292.64 288.24 297.03 293.66 302.13 299.05 307.8 301.31 310.06 306.39 316.93 309.99 323.69 313.23 332.88 317.33 344.96 320.67 354.78 323.57 363.33 326.71 371.67 327.24 374.12 320.17 377.01 308.69 381.32 297.24 385.48 287.5 388.76 275.51 393.23 272.81 394.09 273.35 387.82 260.23 392.49 247.51 395.16 236.64 396.36 229.88 396.79 220.3 397 211.41 396.93 205.39 396.38 196.85 396.02 189.49 395.21 179.67 393.8 172.98 392.77 165.22 391.12 157.67 389.5 144.99 385.85 138.4 383.77 132.01 381.55 130.72 381.02 131.72 389.66 129.49 388.54 124.08 386.04 118.75 383.57 113.65 381.32 108.73 379.02 102.95 376.42 98.11 374.06 93 371.96 87.77 369.54"/>
  <polyline class="cls-14" points="245.75 246.35 258.73 266.85 228.59 295.67 214.85 275.72 209.58 291.44 208.73 275.72 215.09 267.12 245.75 246.35"/>
  <polyline class="cls-14" points="157.61 242.1 150.62 267.78 187.35 295.67 197.92 274.58 209.58 291.44"/>
  <polyline class="cls-14" points="208.73 275.72 195.16 263.85 157.61 242.1"/>
  <g id="Background">
    <path id="Path_0" data-name="Path 0" class="cls-3" d="m132.64,320.2v20.61h41.22v-41.22h-41.22v20.61Z"/>
    <path id="Path_1" data-name="Path 1" class="cls-2" d="m145.99,309.35c-.11.12-.13.18-.12.53,0,.22.02.46.04.54.02.08.08.16.13.19.05.03.6.07,1.24.09.63.02,1.14.05,1.14.07s-.24.2-.53.41c-.29.21-.76.61-1.04.88-.28.27-.65.68-.82.91-.18.23-.44.59-.59.81-.15.22-.27.42-.27.44,0,.03-.05.12-.12.22s-.24.46-.38.8c-.14.34-.34.85-.43,1.13s-.21.78-.27,1.11c-.08.46-.1.82-.1,1.62,0,.57.01,1.12.03,1.24.02.11.08.44.13.72s.16.71.24.95c.08.24.23.66.35.93s.35.72.52,1,.48.76.7,1.06.61.76.88,1.02c.27.26.5.48.52.47.02,0,.11.07.21.16.1.09.4.32.67.5s.63.42.82.54c.19.11.57.31.85.44s.75.32,1.03.41.81.22,1.17.29c.36.07.7.15.74.17.05.03,1.45.05,3.12.05h3.03s0-1.54,0-1.54h-4.9v-16.77c2.94-.07,4.52-.07,5.41-.05,1.12.03,1.74.06,1.98.11.2.04.57.18.82.3.26.12.61.33.8.47.19.14.47.41.64.59s.4.5.52.69c.11.2.27.52.36.72.08.2.17.51.21.7s.07.61.07.95-.04.77-.07.95c-.04.19-.16.55-.27.8-.11.25-.31.64-.45.85-.13.21-.36.5-.48.63-.13.14-.38.35-.55.47-.17.12-.5.32-.75.43-.24.11-.48.22-.54.23-.06,0-.13.03-.15.05-.03.02-.25.08-.49.13l-.44.1v1.33c.83,1.48,1.48,2.62,1.98,3.5.5.88,1.14,2,1.42,2.5.27.49.57.97.65,1.06.15.15.16.15.69.15.4,0,.55-.02.62-.08.05-.04.09-.13.08-.21,0-.07-.13-.37-.29-.67-.16-.3-.88-1.56-1.59-2.81-.71-1.25-1.47-2.58-1.69-2.95-.22-.37-.39-.69-.39-.71s.32-.19.71-.38c.39-.2.85-.44,1.02-.55s.46-.33.64-.51.41-.44.52-.6c.1-.15.3-.5.43-.76.13-.26.31-.65.4-.88.09-.22.22-.64.29-.94.11-.45.13-.66.13-1.26,0-.56-.03-.82-.11-1.16-.06-.24-.17-.61-.24-.82-.08-.21-.22-.54-.32-.72-.1-.19-.29-.48-.42-.67s-.42-.52-.65-.75c-.23-.23-.6-.54-.82-.7-.22-.15-.61-.38-.87-.49s-.56-.24-.67-.28-.24-.08-.28-.09c-.04-.01-.13-.03-.21-.04s-.25-.05-.39-.08c-.19-.05-2.15-.07-7.68-.08l-7.43-.02-.12.13Z"/>
    <path id="Path_2" data-name="Path 2" class="cls-7" d="m156.53,319.8s-.03.4-.02.79l.02.72,1.57.03-.03-1.57c-1.38-.03-1.52-.02-1.55.04h0Z"/>
    <path id="Path_3" data-name="Path 3" class="cls-9" d="m156.78,310.7c.48.01,1.25.01,1.7,0,.45,0,.06-.02-.88-.02s-1.31.01-.82.02Z"/>
    <path id="Path_4" data-name="Path 4" class="cls-10" d="m147.33,309.21c.55.01,1.43.01,1.96,0,.53,0,.07-.01-1-.01s-1.5,0-.95.01Zm6.24,0c.7.01,1.84.01,2.55,0,.71,0,.14-.01-1.26-.01s-1.98,0-1.29.01Z"/>
    <path id="Path_5" data-name="Path 5" class="cls-8" d="m150.78,309.21c.24.01.65.01.9,0,.25,0,.06-.02-.44-.02s-.71.01-.46.02Z"/>
    <path id="Path_6" data-name="Path 6" class="cls-6" d="m157.94,309.21c.3.01.76.01,1.03,0,.27,0,.03-.02-.54-.02s-.79.01-.49.02Z"/>
    <path id="Path_7" data-name="Path 7" class="cls-3" d="m151.73,311c-.25.07-.68.2-.93.3-.25.1-.65.27-.88.39-.23.11-.52.27-.64.34-.13.07-.44.29-.7.48-.25.2-.66.56-.9.81-.24.25-.57.63-.73.85-.15.21-.37.53-.47.7-.1.17-.26.48-.36.7s-.22.48-.27.59c-.05.11-.1.23-.1.26-.01.03-.08.27-.15.54-.08.27-.15.56-.16.64s-.04.23-.05.31-.04.42-.06.75c-.02.38-.01.83.03,1.26.03.37.12.89.19,1.16.07.27.2.68.29.9.09.23.26.62.39.88s.32.61.44.8c.12.19.36.51.53.72.18.21.54.59.8.85.27.25.71.6.97.78.27.18.78.46,1.13.63.36.16.89.38,1.19.47.3.09.58.18.62.19s.16.04.26.05l.18.02c.06-4.34.08-6.81.08-8.3s-.02-3.94-.03-5.45c-.03-2.47-.04-2.74-.12-2.74-.05,0-.29.06-.55.13h0Z"/>
    <path id="Path_8" data-name="Path 8" class="cls-5" d="m152.4,313.19c0,.7.01.97.02.62.01-.36.01-.92,0-1.26,0-.34-.02-.05-.02.64Zm0,11.77c0,.68.01.95.02.59.01-.36.01-.91,0-1.24,0-.32-.02-.04-.02.64Z"/>
  </g>
  <path class="cls-13" d="m152.69,269.35c-9.72,7.95-25.91,19.78-34.84,28.67-4.33,4.31-8.28,9.02-11.42,14.27-2.83,4.74-4.49,10.01-6.09,15.26-1.22,4.01-3.13,7.71-5.13,11.38-1.12,2.06-2.26,4.1-3.29,6.21"/>
  <path class="cls-13" d="m254.38,271.01c19.71,14.08,53.46,37.14,58.46,60.99"/>
  <path class="cls-13" d="m128.56,311.06s.31,55.67-11.01,61.17c-11.32,5.51,105.83,45.57,165.47,11.01,0,0,3.98-4.32-1.53-9.5"/>
  <path class="cls-13" d="m276.61,378.25s14.6.8-4.19-51.61"/>
  <polyline class="cls-13" points="273.32 388.52 273.09 394.09 327.34 374.41 312.69 331.29"/>
  <path class="cls-13" d="m131.75,389.89l-43.98-20.35c2.95-4.54.39-21.24,4.51-24.81"/>
  <line class="cls-15" x1="197.85" y1="188.42" x2="200.77" y2="187.58"/>
  <line class="cls-15" x1="211.4" y1="186.85" x2="213.9" y2="188"/>
  <path class="cls-16" d="m176.99,215.12c.86-6.04,32.36-9.67,36.2-8.29"/>
  <path class="cls-16" d="m222.55,207.69s10.7,3.28,10.7,3.97"/>
  <path class="cls-3" d="m188.23,150.54c2.69,12.53-6.89,26.29-23.76,29.91-16.87,3.62-32.73-3.6-35.42-16.13-2.69-12.53,8.96-22.61,25.83-26.24,16.87-3.62,30.67-.07,33.36,12.46Z"/>
  <path class="cls-3" d="m223.67,152.48c-1.97,12.67,8.22,25.82,25.03,28.43,16.81,2.61,32.04-5.54,34-18.21,1.97-12.67-10.05-22.03-26.87-24.64s-30.2,1.75-32.17,14.42Z"/>
  <path d="m136.44,175.64c-1.5-1.5-2.6-7.5.43-11.93,3.57-5.21,11.96-8.9,18.95-9.89,6.43-.92,16.21-.59,21.67,3.24,4.87,3.41,5.81,10.18,5.81,12.22,0,8.93-34.42,18.8-46.86,6.36Z"/>
  <path d="m273.21,177.62c1.6-1.39,3.12-7.29.45-11.93-3.14-5.46-11.16-9.75-18-11.25-6.28-1.39-15.97-1.77-21.65,1.65-5.06,3.05-6.49,9.73-6.64,11.76-.66,8.9,32.63,21.27,45.84,9.77Z"/>
  <circle class="cls-3" cx="142.55" cy="174.05" r="2.91"/>
  <circle class="cls-3" cx="151.63" cy="176.96" r="1.78"/>
  <circle class="cls-3" cx="235.95" cy="172.27" r="2.91"/>
  <circle class="cls-3" cx="245.03" cy="175.18" r="1.78"/>
  <path class="cls-11" d="m182.81,117.79s-37.54,14.25-53.03,18.76c-15.49,4.49,49.91,36.81,53.03-18.76Z"/>
  <path class="cls-11" d="m230.39,117.04s37.9,15.5,53.61,20.51c15.7,5-52.92,35.19-53.61-20.51Z"/>
  <path class="cls-17" d="m139.91,457.09l-6.2-53.24-1.96-13.97-36.82-17.05c13.52,6.92,21,15.32,25.04,20.9,8.48,11.74,11.45,24.49,16.46,46.07,1.67,7.17,2.78,13.16,3.49,17.29Z"/>
  <path class="cls-17" d="m273.09,455.99l.49-46.35-.49-15.85,42.84-14.13c-12.88,6.27-20,13.88-23.84,18.93-8.08,10.64-10.9,22.18-15.68,41.74-1.59,6.49-2.65,11.93-3.32,15.66Z"/>
  <path class="cls-18" d="m281.56,444.92l13.89-19.73s-3.67,26.77-8.2,28.16l-5.69-8.43Z"/>
  <text class="cls-4" transform="translate(130.8 616.78)"><tspan x="0" y="0">Tristeza</tspan></text>
</svg>