<?xml version="1.0" encoding="UTF-8"?>
<svg id="Capa_1" data-name="Capa 1" xmlns="http://www.w3.org/2000/svg" viewBox="0 0 460.56 698.21">
  <defs>
    <style>
      .cls-1 {
        fill: #fad6bd;
      }

      .cls-2 {
        fill: #010101;
      }

      .cls-3, .cls-4 {
        fill: #fff;
      }

      .cls-5 {
        fill: #ea6868;
      }

      .cls-6 {
        fill: #bfbebf;
      }

      .cls-7 {
        fill: #c0c0bf;
      }

      .cls-8 {
        fill: #1e2b4f;
      }

      .cls-9 {
        fill: #404040;
      }

      .cls-10 {
        fill: #3f3f3f;
      }

      .cls-11 {
        fill: #808181;
      }

      .cls-12 {
        fill: #7a5132;
      }

      .cls-13, .cls-14 {
        fill: none;
      }

      .cls-13, .cls-14, .cls-15 {
        stroke-miterlimit: 10;
        stroke-width: 1.42px;
      }

      .cls-13, .cls-15 {
        stroke: #1d1d1b;
      }

      .cls-14 {
        stroke: #696961;
      }

      .cls-4 {
        font-family: BigCaslon-Medium, 'Big Caslon';
        font-size: 49.84px;
        font-weight: 500;
      }

      .cls-15 {
        fill: #1d1d1b;
      }

      .cls-16 {
        fill: #4c4541;
        opacity: .37;
      }
    </style>
  </defs>
  <path class="cls-12" d="m175.75,413.1h8.51l13.22,21.05s-8,5.67-17.64,8.25c-9.82,2.63-19.76,15.96-26.55,22.82-8.9,8.99-25.82,21.59-29.16,34-1.28,4.76-1.33,9.74-1.7,14.65-.13,1.69-.31,3.44-1.13,4.93-1.02,1.86-2.9,3.08-4.81,4-6.84,3.3-15.06,3.62-22.14.85-2.76-1.08-5.53-2.81-6.59-5.58-.64-1.69-.57-3.57-.35-5.37,2.13-17.55,16.01-31.02,29.06-42.95,20.2-18.47,41.09-36.25,59.28-56.66Z"/>
  <path class="cls-12" d="m112.43,384.93c-2.23,6.85-4.47,13.73-5.7,20.82-1.53,8.83-2.03,19.38,3.24,27.13,2.78,4.08,6.93,7.04,11.28,9.37,10.15,5.46,20.54,10.54,30.71,15.98,1.69.91,7.55,5.37,8.67,2.34.7-1.9-.08-4.81-.08-6.81v-31.62l.17-3.5"/>
  <path class="cls-12" d="m306.68,564.67c-.87,1.38-1.76,2.77-2.74,4.09-3.01-.33-6.46,1.05-8.01,4.09-3.62-2.37-9.44-1.73-11.03,3.68.4-1.32.23-.37-1.15.14-1.11.41-2.3.58-3.46.72-4.8.55-9.61.3-14.43.99-1.8.27-3.19,1.48-4.08,3.02l-1.06-1.83-3.73-8.87-11.4-6.02-1.88-16.07-2.01-41.93-2.5-49.31c-8.69,1.87-12.41,2.71-22.15.37l-.46,4-3.28,29.89-5.77,49.82-2.85,25.31c-.38.84-.6,1.77-.6,2.78v6.97l-1.33,2.78-5.35,2.57c-5.25-.31-10.47.95-15.05,3.42l-.16-.4-.17.58c-2.16,1.21-4.19,2.68-5.99,4.42-2,.14-3.99.28-5.96.43-.31.03-.62.06-.95.09-7.5-6.36-13.82-14.26-22.9-18.77,1.11-1.7,2.1-3.38,2.98-5.13.31.04.62.06.94.04,1.77-.07,3.41-.67,4.74-1.85.06-.04.11-.07.18-.11.61-.24,1.18-.54,1.66-.99.78-.5,1.39-1.16,1.83-1.99.51-.81.8-1.68.84-2.61,1.38-1.53,2.09-3.68,1.42-6.3-5.08-20.08-4.93-42.75-6.17-63.39-1.7-28.43-1.9-56.9-2.46-85.37l.74-.97,17.69,5.82,13.97,3.56,10.61,2.24,29.62,4.2,10.27,1.05,16.77-.55,10.24-.45,14.75-1.22,14.63-3.22,10.95-4.37c-.01.1-.01.2-.01.31.31,22.2-2.77,45.48-4.71,67.75-1.28,14.73-2.77,29.43-4.45,44.12-.86,7.5-2.02,14.99-2.74,22.5-.76,7.89,4.07,8.93,8.2,14.33,1.92,2.51,4.97,4.47,7.98,5.62Z"/>
  <path class="cls-12" d="m403.65,160.3c0,33.35-10.89,61.4-34.22,61.4s-26.27-6.94-26.27-6.94c-10.2,17.68-24.51,30.64-44.66,40.8-31.22,15.73-63.12,15.29-70.46,15.05-10.56-.35-54.03-1.79-83.54-27.29-4.97-4.27-9.54-9.26-13.49-15.02-3.45-5.04-5.69-9.6-7.04-12.68,0,.62-.57,6.09-20.56,6.09-21.19,0-31.08-28.04-31.08-61.4s38.44-24.88,38.44-24.88C114.06-37.67,300.28,10.83,304.45,15.83c4.16,5,41.66-15.83,41.66-15.83,0,3.89-15.01,21.4-15.01,21.4,21.67.27,21.09,25.26,21.09,25.26-6.12-15.24-18.4-6.63-18.4-6.63,12.86,21.58,22.31,45.31,26.31,70.17,1.48,9.23,2.2,18.56,2.14,27.87,6.15-1.42,41.41-8.24,41.41,22.22Z"/>
  <path class="cls-16" d="m152.34,412.85s-6.98,14.84-8.09,19.95c-1.11,5.1,3.49,23.21,3.49,23.21l4.23,2.24.37-45.39"/>
  <path class="cls-12" d="m342.56,371.28c21.98-39.71,43.8-70.36,43.84-70.41,2.74-3.85,6.65-7.18,11.08-3.52,6.2,5.12,8.31,14.08,8.08,21.8-.29,9.62-3.9,18.82-8.11,27.47-9.63,19.81-21.81,40.98-39.67,54.54-8.08,6.13-18.24,10.18-28.3,8.89-4.59-.59-25.3-8.75-19.89-15.89,2.59-3.42,8.93-6.19,12.45-8.64,4.7-3.26,9.39-6.52,14.09-9.78,1.52-1.06,5.51-2.8,6.43-4.46Z"/>
  <polygon class="cls-3" points="179.73 274.24 169.41 291.36 143.53 311.71 129.71 326.36 124.32 337.05 120.46 348.82 115.66 358.84 112.96 364.79 107.5 369.27 104.35 374.22 102.62 376.67 102.62 377.9 108.59 381.89 123.06 392.74 134.67 400.82 143.5 407.55 147.73 409.82 152.34 412.85 152.09 402.58 161.78 405.9 171.35 408.31 189.69 413.1 214.38 417.34 234.54 418.99 254.81 419.24 275.42 417.48 297.3 411.84 308.15 407.3 309.75 406.45 311.26 408.05 318.42 411.18 325.15 400.23 338.02 379.95 347.86 363.04 349.54 360.77 345.51 352.11 343.74 349.83 340.29 338.31 335.33 331.32 324.98 319.71 308.07 306.34 296.07 297.78 290.23 289.68 284.09 280.68 282.58 279.51 262.72 293.46 253.38 300.28 245.64 305.69 239.92 313.99 239.42 315 227.38 304.23 223.18 300.45 179.73 274.24"/>
  <path class="cls-1" d="m153.75,597.59c-1,0-2.03.08-3.02,0-1.49-.12-2.81-.88-4.2-1.47-.15-.06-.31-.13-.42-.26-.11-.13-.16-.3-.21-.47-.27-1-.94-2.36-.94-3.38,0-1.1.71-2.51.99-3.59-1.83-1.03-3.1-2.99-3.3-5.08-.2-2.09.68-4.25,2.28-5.61-2.37-1.44-3.19-4.44-3.8-7.15-.12-.54-.25-1.11-.12-1.66.35-1.49,2.2-1.93,3.7-2.27,6.49-1.48,11.64-6.26,16.46-10.85.94,2.03,2.19,4.32,4.39,4.73-.5.65-.49,1.65.03,2.28,1.31-.67,2.79.49,3.75,1.61.96,1.11,2.26,2.4,3.67,1.96.39,1.1.78,2.21,1.18,3.31,1.26-.34,2.58.31,3.59,1.14s1.85,1.87,2.97,2.54c1.07.63,2.32.87,3.54,1.1,2.65.5,5.29,1,7.94,1.51,1.2.23,2.68.35,3.4-.64,2.21,1.21,4.71,1.89,7.23,1.95.1-.53.2-1.07.31-1.6.93-.15,1.82.57,2.19,1.43.37.87.34,1.84.3,2.78-.17,4.22-.33,8.43-.5,12.65-.07,1.8-.28,3.86-1.75,4.9-1.75,1.24-4.19.26-5.93-1-3.38-2.44-6.04-5.87-7.56-9.76-1.91,3.84-5.09,6.95-8.69,9.27-3.61,2.32-7.64,3.89-11.73,5.19-2.57.81-5.16,1.52-7.76,2.22-2.04.55-6.38,1.7-7.76-.65-.46-.78-.52-1.74-.45-2.64.16-2.14,1.09-6.83,3.35-7.64,3.17-1.14,6.35-2.27,9.52-3.42"/>
  <path class="cls-1" d="m311.49,570.85c-.41,1.21-1.39,2.24-2.62,2.54-.79.2-1.63.1-2.44-.04-1.89-.3-3.87-1.05-5.73-1.21.7.06,2.48,1.85,3.01,2.29,1.22,1.01,2.33,2.14,3.32,3.38.85,1.06,1.64,2.32,1.51,3.68-.06.64-.33,1.26-.77,1.74-1.11,1.22-2.96,1.32-4.6,1.34-.77,0-1.57.02-2.3-.23-.47-.15-.9-.41-1.33-.65-1.85-1.07-3.69-2.35-5.65-3.2.25.69.5,1.41.77,2.11.5,1.41,1.46,2.88,1.07,4.41-.23.89-.77,1.68-1.43,2.31-.14.14-.3.27-.49.33-.17.05-.35.03-.53,0-1.99-.23-3.99-.4-5.97-.71-.03,0,.06,2.26-.02,2.47-.5,1.32-2.79,2.76-3.99,3.37-1.4.71-3.02,1.05-4.56.72-1.96-.41-3.55-1.86-4.74-3.46-.95-1.29-1.81-4.53-3.71-4.53,0,0-.05,0-.13.02-1.08,5.79-8.99,6.95-14.17-1.4-2.35-3.16-4.18-6.67-5.77-10.25-.83-1.85-1.59-3.73-2.33-5.6-.27-.68-1.84-3.05-1.68-3.72.14-.57-.67-1.19-.52-1.75,2.99.97,6.68,2.23,9.57.05,1.22,1,2.62,1.89,4.19,2.02,1.58.13,3.32-.73,3.75-2.24.91.36,1.83.72,2.8.82.98.09,2.03-.13,2.74-.79,1.37.74,2.87,1.46,4.42,1.28,1.55-.18,3.04-1.66,2.63-3.16,1.79,1.07,3.71,1.94,5.69,2.6.32-.48.65-.95.97-1.41,2.08.24,4.19.23,6.27-.05.17-.39.34-.77.51-1.17.07-.16,3.1-.38,3.48-.46,1.13-.24,2.56-.49,3.53-1.14.96-.64,1.18-1.65,1.58-2.67.11-.08,7.8,4.19,8.5,4.58,1.17.67,2.35,1.33,3.34,2.23.99.9,1.8,2.07,2.01,3.41.12.71.05,1.46-.18,2.14Z"/>
  <path class="cls-12" d="m401.84,316.28c-.62.33,2.15,1.35,1.96.91.6.2-1.96-.91-1.96-.91Z"/>
  <path class="cls-12" d="m404.74,317.51c-.62.33-.75.13-.94-.31.6.2.94.31.94.31Z"/>
  <path class="cls-12" d="m383.22,313.77c-.38-.14-.77-.3-1.14-.5.27-.13.62-.01,1.14.5Z"/>
  <path class="cls-12" d="m180.9,256.87s9.25,13.63,3.41,20.66l40.34,24.5,14.58,13.38,6.83-9.69,32.95-23.4s-8.25-4.91-.08-19.3c0,0-30.62,10.2-98.03-6.15Z"/>
  <g id="Background">
    <path id="Path_0" data-name="Path 0" class="cls-3" d="m151.62,340.99v29.28h58.55v-58.55h-58.55v29.28Z"/>
    <path id="Path_1" data-name="Path 1" class="cls-2" d="m170.58,325.58c-.16.18-.18.26-.18.75,0,.31.02.65.05.76.03.12.11.23.18.27.07.04.86.1,1.76.13.89.03,1.62.07,1.62.1s-.34.28-.75.58c-.42.3-1.08.86-1.48,1.24-.4.39-.92.97-1.17,1.29-.26.32-.63.84-.83,1.15-.21.31-.38.59-.38.62,0,.04-.07.18-.17.31s-.34.65-.54,1.13c-.2.48-.48,1.21-.61,1.61s-.29,1.11-.38,1.57c-.11.65-.15,1.16-.15,2.31,0,.81.01,1.6.04,1.76.02.16.11.62.19,1.02s.23,1.01.34,1.35c.11.34.33.94.5,1.32s.5,1.02.73,1.43.68,1.08.99,1.5.87,1.08,1.25,1.45c.38.37.71.68.73.67.02,0,.15.1.3.23.14.13.57.45.95.72s.9.6,1.16.76c.26.15.81.44,1.21.63.4.19,1.06.45,1.46.58s1.15.31,1.67.41c.51.1.99.21,1.05.24.07.04,2.06.07,4.43.07h4.3s0-2.18,0-2.18h-6.95v-23.82c4.17-.1,6.42-.1,7.69-.07,1.59.04,2.47.08,2.82.16.29.06.81.25,1.17.42.37.18.87.48,1.13.67.26.2.67.58.91.84s.57.71.74.98c.16.28.39.73.51,1.02.11.29.24.72.3.99s.1.87.1,1.35-.05,1.09-.1,1.35c-.06.26-.23.78-.39,1.13-.16.36-.45.91-.64,1.21-.19.3-.51.71-.69.9-.19.2-.54.5-.78.67-.24.18-.72.45-1.06.61-.34.16-.69.31-.77.32-.08,0-.18.04-.22.07-.04.03-.35.12-.7.19l-.62.14v1.89c1.18,2.1,2.11,3.73,2.82,4.98.72,1.25,1.62,2.85,2.01,3.55.39.7.81,1.38.92,1.5.21.22.23.22.97.22.56,0,.78-.03.88-.11.07-.06.12-.19.12-.29,0-.1-.19-.53-.42-.95-.23-.42-1.24-2.22-2.26-3.99-1.01-1.77-2.09-3.66-2.4-4.19-.31-.53-.56-.98-.56-1s.45-.26,1-.53c.56-.28,1.21-.63,1.45-.78.24-.15.65-.48.91-.72s.59-.63.74-.85c.15-.22.42-.71.61-1.08.18-.37.44-.93.56-1.24.12-.31.31-.91.41-1.33.15-.64.19-.94.19-1.79,0-.79-.04-1.17-.15-1.65-.08-.34-.24-.87-.34-1.17-.11-.3-.31-.76-.45-1.02-.15-.26-.42-.69-.6-.95s-.6-.74-.93-1.06c-.32-.32-.85-.77-1.17-.99-.31-.22-.87-.53-1.24-.7s-.79-.34-.95-.4-.34-.11-.4-.13c-.06-.01-.19-.04-.29-.06s-.35-.07-.55-.11c-.27-.07-3.05-.1-10.91-.12l-10.55-.03-.18.19Z"/>
    <path id="Path_2" data-name="Path 2" class="cls-8" d="m185.55,340.42c-.03.06-.04.56-.02,1.12l.02,1.02,2.23.04-.04-2.23c-1.96-.04-2.16-.03-2.2.06h0Z"/>
    <path id="Path_3" data-name="Path 3" class="cls-10" d="m185.91,327.5c.69.01,1.77.01,2.42,0,.64,0,.08-.02-1.24-.02s-1.86.01-1.17.02Z"/>
    <path id="Path_4" data-name="Path 4" class="cls-11" d="m172.48,325.38c.78.01,2.03.01,2.78,0,.75,0,.1-.01-1.43-.01s-2.14,0-1.35.01Zm8.86,0c.99.01,2.62.01,3.62,0,1.01,0,.2-.01-1.79-.01s-2.82,0-1.83.01Z"/>
    <path id="Path_5" data-name="Path 5" class="cls-9" d="m177.39,325.38c.34.01.92.01,1.28,0,.36,0,.08-.02-.62-.02s-1,.01-.66.02Z"/>
    <path id="Path_6" data-name="Path 6" class="cls-7" d="m187.56,325.38c.42.01,1.08.01,1.46,0,.38,0,.04-.02-.77-.02s-1.12.01-.7.02Z"/>
    <path id="Path_7" data-name="Path 7" class="cls-3" d="m178.74,327.92c-.36.1-.96.29-1.32.42-.36.14-.92.39-1.24.56-.32.16-.73.38-.91.48-.18.1-.63.41-.99.69-.36.28-.94.8-1.28,1.15-.34.36-.81.9-1.03,1.2-.22.3-.53.75-.67.99-.14.24-.37.69-.51.99s-.31.68-.38.84c-.07.16-.14.32-.15.37-.01.04-.11.39-.21.77-.11.38-.21.8-.23.91s-.05.32-.07.44-.05.6-.08,1.06c-.03.53-.01,1.19.04,1.79.04.52.17,1.27.26,1.65.1.38.29.96.41,1.28.12.32.37.89.56,1.24s.46.87.62,1.13c.17.26.51.72.75,1.02.25.3.76.84,1.14,1.2.38.35,1,.86,1.38,1.11.38.25,1.11.66,1.61.9.51.23,1.26.53,1.68.67.42.12.82.25.88.27s.23.06.37.07l.26.03c.09-6.16.11-9.68.11-11.79s-.02-5.6-.04-7.74c-.04-3.51-.06-3.89-.17-3.89-.07,0-.42.09-.78.18h0Z"/>
    <path id="Path_8" data-name="Path 8" class="cls-6" d="m179.68,331.03c0,.99.01,1.38.02.88.01-.51.01-1.31,0-1.79,0-.48-.02-.07-.02.91Zm0,16.72c0,.97.01,1.35.02.84.01-.51.01-1.3,0-1.76,0-.46-.02-.05-.02.91Z"/>
  </g>
  <path class="cls-14" d="m170.1,290.16c-10.19,8.34-21.08,15.91-30.44,25.23-4.54,4.52-8.68,9.46-11.98,14.97-2.97,4.97-4.71,10.49-6.39,16-1.28,4.2-3.29,8.08-5.38,11.93-1.18,2.16-2.37,4.3-3.45,6.51"/>
  <path class="cls-14" d="m295.57,297.78c20.67,14.76,43.34,28.23,48.58,53.24"/>
  <path class="cls-14" d="m277.23,283.56l5.7-4.05,13.67,19.01s-3.44,2.06-13.16,4.36c-9.71,2.3-27.86,23.52-27.86,21.47s-9.46-18.66-9.46-18.66l-6.88,9.71,1.52,8.95"/>
  <line class="cls-14" x1="277.23" y1="283.56" x2="246.11" y2="305.69"/>
  <polyline class="cls-14" points="239.23 315.4 224.68 302 225.71 324.49 211.95 318.6 202.49 312.23 174.96 292.1 169.41 291 179.69 274.22 224.68 302"/>
  <path class="cls-14" d="m150.9,329.08s.32,58.37-11.55,64.15c-11.87,5.77,110.98,47.79,173.52,11.55,0,0,4.17-4.53-1.6-9.96"/>
  <path class="cls-14" d="m306.15,399.53s15.31.83-4.4-54.12"/>
  <polyline class="cls-14" points="308.94 406.91 318.5 411.18 349.71 360.49 343.99 350.28"/>
  <path class="cls-14" d="m112.84,364.38c-4.32,3.74-7.63,8.4-10.72,13.17l45.61,32.86"/>
  <path class="cls-1" d="m143.33,241.53c-5.29-20.83-9.77-42-11.1-63.49-1.9-30.68,2.29-65.48,25.8-87.43,4.12-3.85,8.62-7.34,13.64-9.92,10.49-5.4,23.11-6.52,34.39-3.06,6.4,1.96,12.33,5.39,17.29,9.87,2.56,2.31,4.86,4.9,6.84,7.73.91,1.3,1.97,3.61,3.78,2.75,1.27-.6,2.49-3.83,3.33-5,2.37-3.27,5.23-6.17,8.42-8.65,6.53-5.08,14.4-8.42,22.55-9.76,14.16-2.33,28.85.99,41.7,7.37,4.73,2.34,9.29,5.12,13.08,8.79,2.84,2.75,5.21,5.95,7.28,9.32,8.13,13.25,11.56,28.88,12.93,44.36,1.31,14.7.85,29.56-1.32,44.16-2.09,14.05-6.31,27.46-10.35,40.98l-.15,1.01-6.05,5.94-2.24,2.54-5.49,4.67-3.27,2.23-2.91,2.14-4.56,2.4-5.64,3.63-6.73,3.18-9.76,3.95-9.69,3.38-11.7,2.92-11.66,1.76-14.48,1.13-12.72.25-14.02-1.09-15.36-2.54-12.02-3.14-14.98-5.39-9.73-5.14-13.04-8.56-2.08-3.27Z"/>
  <path class="cls-1" d="m376.86,314.16s3.77-3.56,3.63,1.81c0,0,.46-3.2,1.59-2.7.85.37,1.92,1.72,2.4,2.71.16.33.26.62.26.81,0,.79-.07-3.47,1.81-2.7,1.88.77,2.23,3.57,2.23,3.57,0,0,.77-4.77,2.65-4.66s1.95,4.43,2.02,4.99,2.58-2.67,3.63-1.72c1.05.95,0,2.97,0,2.97,0,0,1.05-2.31,2.3-2.06s3.07,3.67,3.07,3.67c0,0-.63-2.79.7-2.51,1.32.28,2.27,3.23,2.27,3.23l.22-4.31c5.72-3.68,12.68-16.17,12.18-22.52-.92-11.81-12.37-17.66-14.1-18.54-7.63-3.9-20.35-5.78-27.53,1.33-8.68,8.6-4.57,25.62,2.47,33.06"/>
  <path class="cls-3" d="m211.43,141.05c2.84,3.19,4.6,6.88,4.6,6.88s2.78,6.25,2.78,13.84c0,18.1-14.67,32.77-32.77,32.77s-32.77-14.67-32.77-32.77c0-4.52,1.01-8.3,1.47-9.74.5-1.56,4.85-14.5,18.03-20.23,16.06-6.98,32.47,2.31,38.66,9.25Z"/>
  <path class="cls-3" d="m306.99,129.08c12.77,4.94,21.1,17.47,21,30.59-.13,16.88-14.21,32.77-32.77,32.77s-32.77-14.67-32.77-32.77c0-9.22,4.21-16.64,4.21-16.64.22-.38,2.2-3.68,5.25-6.57,6.18-5.84,20.16-13.16,35.08-7.38Z"/>
  <path class="cls-15" d="m209.3,140.84c5.85,7.22,5.65,15.44,5.59,16.96-.5,12.4-10.55,27.59-26.48,27.59-15.45,0-26.17-14.3-26.48-27.59-.21-9.05,4.37-18.97,13.36-23.97,11.7-6.52,26.49-2.28,34.01,7.01Z"/>
  <path class="cls-15" d="m304.91,130.86c10.12,4.73,15.32,15.33,15.13,24.94-.26,13.48-11.19,27.59-26.48,27.59s-26.48-12.35-26.48-27.59c0-7.26,2.96-13.13,2.96-13.13s1.63-3.06,4.05-5.56c5.34-5.53,18.26-12.12,30.83-6.25Z"/>
  <path class="cls-12" d="m223.99,140.93s-36.08-23.7-49.77-34.35c-13.68-10.66-.58,66.67,49.77,34.35Z"/>
  <path class="cls-12" d="m256.51,140.79s34.83-23.46,48.2-34.01c13.35-10.55-5.46,66.02-48.2,34.01Z"/>
  <circle class="cls-3" cx="172.26" cy="153.64" r="4.19"/>
  <circle class="cls-3" cx="181.18" cy="161.13" r="1.9"/>
  <circle class="cls-3" cx="273.39" cy="156.24" r="4.19"/>
  <circle class="cls-3" cx="282.31" cy="163.73" r="1.9"/>
  <path class="cls-13" d="m214.91,224.98s37.8-28.95,41.6-4.41"/>
  <path class="cls-5" d="m99.66,88.12s39.59-32.42,51.42,17.66l10.85-3.58s-13.03-66.12-70.98-23.87l8.71,9.79Z"/>
  <path class="cls-5" d="m131.79,9.95s8.4,55.09-44.12,38.56l-2.59,12.17s67.94,24.26,60.44-53.51l-13.73,2.78Z"/>
  <path class="cls-5" d="m185.8,83.4s-48.03-30.01-3.13-57.42l-7.9-9.86s-60.33,33.56,4.81,79.1l6.21-11.82Z"/>
  <text class="cls-4" transform="translate(167.99 664.5)"><tspan x="0" y="0">Enojo</tspan></text>
</svg>