<?xml version="1.0" encoding="UTF-8"?>
<svg id="Capa_1" data-name="Capa 1" xmlns="http://www.w3.org/2000/svg" xmlns:xlink="http://www.w3.org/1999/xlink" viewBox="0 0 450.98 716.78">
  <defs>
    <style>
      .cls-1 {
        clip-path: url(#clippath);
      }

      .cls-2 {
        fill: #f9f4f4;
      }

      .cls-3 {
        fill: #fad6bd;
      }

      .cls-4 {
        fill: #010101;
      }

      .cls-5, .cls-6 {
        fill: #fff;
      }

      .cls-7 {
        fill: #a04e4e;
      }

      .cls-8 {
        fill: #bfbebf;
      }

      .cls-9 {
        fill: #c0c0bf;
      }

      .cls-10 {
        fill: #1e2b4f;
      }

      .cls-11 {
        fill: #404040;
      }

      .cls-12 {
        fill: #1d1d1b;
      }

      .cls-13 {
        fill: #3f3f3f;
      }

      .cls-14 {
        fill: #808181;
      }

      .cls-15 {
        fill: #382424;
      }

      .cls-16 {
        fill: #7a5132;
      }

      .cls-6 {
        font-family: BigCaslon-Medium, 'Big Caslon';
        font-size: 48.8px;
        font-weight: 500;
      }

      .cls-17 {
        fill: none;
        stroke: #696961;
        stroke-miterlimit: 10;
        stroke-width: 1.32px;
      }

      .cls-18 {
        fill: #af5d5d;
        opacity: .49;
      }

      .cls-19 {
        fill: #b17f4a;
        opacity: .3;
      }
    </style>
    <clipPath id="clippath">
      <path class="cls-15" d="m250.39,231.84c0,17.16-11.81,31.08-26.4,31.08s-26.39-13.91-26.39-31.08c0-6.87,1.9-13.23,5.1-18.37,13.33,4.86,22.04-12.1,22.04-12.1,0,0,8.51,16.58,21.15,13.12,2.84,4.96,4.49,10.93,4.49,17.35Z"/>
    </clipPath>
  </defs>
  <path class="cls-16" d="m313.36,587.96c-.97,1.54-1.97,3.1-3.07,4.58-3.37-.37-7.24,1.18-8.97,4.58-4.06-2.66-10.58-1.94-12.36,4.12.45-1.48.25-.41-1.29.16-1.24.46-2.58.65-3.88.81-5.38.62-10.77.33-16.16,1.11-2.02.3-3.58,1.65-4.56,3.39l-1.19-2.05-4.18-9.94-12.77-6.74.57-16.67-1.48-48.95.94-56.04c-9.73,2.1-25.4,3.72-36.31,1.1l.3,2.07-2.96,32.49-5.39,58.94-1.48,29.4c-.43.94-.67,1.99-.67,3.12v7.81l-1.49,3.12-6,2.88c-5.88-.35-11.72,1.07-16.86,3.83l-.17-.45-.19.65c-2.42,1.35-4.69,3.01-6.71,4.95-2.24.16-4.47.32-6.68.48-.35.03-.7.06-1.07.1-8.4-7.12-15.47-15.97-25.65-21.02,1.24-1.91,2.35-3.78,3.34-5.74.35.05.7.06,1.05.05,1.99-.08,3.82-.75,5.31-2.07.06-.05.13-.08.21-.13.68-.27,1.32-.6,1.86-1.11.87-.56,1.56-1.3,2.05-2.23.57-.91.89-1.88.94-2.93,1.54-1.72,2.34-4.12,1.59-7.06-3.39-13.39-5.55-27.69-7.11-41.79l-.19-8.91-1.07-49.89-1.3-66.01.83-1.08,19.82,6.52,15.65,3.99,11.88,2.51,33.17,4.71,11.5,1.18,18.78-.62,11.47-.51,16.52-1.37,16.38-3.61,12.26-4.9c-.02.11-.02.22-.02.35.03,2.29.14,4.6.3,6.87-.03.24-.05.49-.06.73-.45,14.73.7,29.56.56,44.34-.32,32.98-3.05,65.95-8.19,98.52-.94,5.95-2.66,12.48,3.26,16.08,2.15,2.81,5.57,5.01,8.94,6.3Z"/>
  <path class="cls-16" d="m406.58,169.8c0,35.33-11.54,65.04-36.25,65.04s-27.83-7.36-27.83-7.36c-10.8,18.73-25.96,32.46-47.3,43.21-33.08,16.67-66.86,16.2-74.63,15.94-11.19-.38-57.23-1.9-88.49-28.91-5.26-4.53-10.11-9.81-14.29-15.91-3.66-5.34-6.03-10.17-7.46-13.43,0,.66-.6,6.45-21.78,6.45-22.44,0-32.93-29.71-32.93-65.04s40.72-26.35,40.72-26.35C99.82-39.9,297.08,11.48,301.5,16.77c4.41,5.29,44.13-16.77,44.13-16.77,0,4.12-15.9,22.67-15.9,22.67,22.95.29,22.34,26.76,22.34,26.76-6.48-16.14-19.49-7.02-19.49-7.02,13.63,22.86,23.63,48,27.87,74.33,1.56,9.78,2.33,19.66,2.27,29.53,6.51-1.5,43.86-8.72,43.86,23.54Z"/>
  <path class="cls-16" d="m176.68,275.44s9.16,13.5,3.38,20.45l39.93,24.25,14.43,13.24,6.76-9.6,32.61-23.16s-8.97-6.89-.89-21.13c0,0-29.51,12.13-96.23-4.06Z"/>
  <polygon class="cls-5" points="109.13 388.48 116.23 378.92 120.63 367.28 125.29 354.37 130.62 344.47 137.92 335.75 145.39 328.28 154.95 320.48 166.61 311.17 168.14 309.55 174.93 298.11 177.26 294.4 183.72 298.11 194.09 304.41 205.36 311.38 216.97 318.23 223.68 322.62 230.61 329.24 234.47 332.52 235.56 332.26 240.04 325.41 241.98 323.22 259.89 310.04 269.95 302.49 276.33 298.11 279.77 302.57 284.46 309.2 289.41 315.91 296.79 320.94 309.71 330.17 318.63 337.46 325.73 345.18 330.91 352.23 336.47 365.29 337.67 376.02 339.45 387.13 341.86 402.18 304.99 405.96 304.8 408.89 305.55 409.52 307.3 412.28 307.66 414.4 307.36 416.58 306.35 417.86 302.7 419.69 290.98 424.98 285.2 427.02 273.07 430.18 256.58 432.26 241.69 432.94 230.98 432.61 221.09 432.31 203.07 430.13 191.4 428.33 178.26 425.33 155.45 419.09 140.35 412.3 139.31 410.72 139.21 409.69 141.38 407.56 143.22 405.57 143.81 404.18 142.45 403.17 125.97 396.63 109.13 388.48"/>
  <path class="cls-3" d="m130.83,255.85c-5.6-22.06-10.34-44.49-11.75-67.25-2.01-32.5,2.43-69.36,27.33-92.61,4.37-4.08,9.14-7.77,14.45-10.5,11.12-5.72,24.48-6.91,36.43-3.24,6.78,2.08,13.06,5.71,18.32,10.46,2.71,2.45,5.15,5.19,7.25,8.18.97,1.38,2.08,3.82,4.01,2.91,1.35-.64,2.63-4.06,3.53-5.29,2.51-3.46,5.55-6.53,8.92-9.16,6.91-5.38,15.25-8.92,23.89-10.34,15-2.47,30.56,1.05,44.17,7.8,5.01,2.48,9.84,5.43,13.86,9.31,3.01,2.91,5.52,6.31,7.71,9.88,8.61,14.03,12.25,30.59,13.7,46.99,1.38,15.57.9,31.31-1.4,46.77-2.21,14.88-6.69,29.08-10.96,43.41l-.16,1.07-6.41,6.29-2.37,2.69-5.82,4.95-3.47,2.36-3.08,2.27-4.83,2.55-5.97,3.84-7.13,3.36-10.34,4.18-10.26,3.58-12.39,3.1-12.36,1.87-15.34,1.19-13.47.26-14.86-1.16-16.27-2.69-12.73-3.32-15.86-5.71-10.3-5.45-13.81-9.07-2.2-3.47Z"/>
  <ellipse class="cls-19" cx="151.18" cy="241.33" rx="31.85" ry="34.1"/>
  <ellipse class="cls-19" cx="300.31" cy="244.08" rx="34.05" ry="35.12"/>
  <path class="cls-17" d="m168.14,309.84c-9.68,8.15-20.04,15.56-28.9,24.63-4.3,4.4-8.22,9.2-11.3,14.53-2.79,4.81-4.39,10.14-5.93,15.45-1.18,4.05-3.05,7.81-5.01,11.53-1.1,2.09-2.22,4.16-3.23,6.3"/>
  <path class="cls-17" d="m288.76,315.5c20.05,13.91,42.01,26.55,47.36,50.5"/>
  <path class="cls-17" d="m270.95,302.08l5.42-3.97,13.38,18.08s-3.28,2.03-12.58,4.36c-9.3,2.34-26.45,22.96-26.48,20.99-.03-1.96-9.33-17.8-9.33-17.8l-6.48,9.42,1.57,8.57"/>
  <line class="cls-17" x1="270.95" y1="302.08" x2="241.36" y2="323.75"/>
  <polyline class="cls-17" points="234.88 333.17 220.73 320.48 222.01 342.07 208.71 336.6 199.55 330.61 172.84 311.63 167.49 310.65 177.14 294.4 220.73 320.48"/>
  <path class="cls-17" d="m150.22,347.47s.8,41.64-6.22,56.8"/>
  <path class="cls-17" d="m305.27,406.24c1.04-6.61-.4-19.59-9.94-45.07"/>
  <polyline class="cls-17" points="305.31 405.96 341.86 402.18 335.96 365.29"/>
  <path class="cls-17" d="m143.26,403.71l-34.58-14.78c2.53-2,1.34-3.41,5.44-7.06"/>
  <path class="cls-16" d="m171.73,260.11c-1.32,2.27-2.87,4.32-4.62,6.12.07.95.03,1.9-.11,2.88l-23,142.28c-.5,3.67-2.23,7.51-4.76,10.43-3.81,5.05-10.33,8.38-17.76,8.38-11.76,0-21.29-8.36-21.29-18.7,0-.5.03-1,.07-1.49-.15-2.19-.05-4.37.21-6.3l16.9-141.46c.13-.96.36-1.9.67-2.81-4.92-9.09-5.15-20.45.4-30.07,8.48-14.71,27.31-19.75,42.02-11.26,14.72,8.5,19.75,27.31,11.27,42.02Z"/>
  <path class="cls-16" d="m344.45,408.97c0,10.83-9.53,19.61-21.26,19.61-7.2,0-13.57-3.3-17.4-8.36-.01,0-.01-.01-.01-.01-2.15-2.01-3.58-4.81-3.9-8.23l-20.72-142.33c-.09-.98-.08-1.93.03-2.89-6.88-7.72-9.73-18.72-6.53-29.36,4.89-16.27,22.05-25.49,38.32-20.6,16.28,4.89,25.5,22.05,20.61,38.32-.77,2.52-1.81,4.86-3.11,7.02.28.9.48,1.85.57,2.83l13.33,141.73c.07.63.08,1.27.05,1.9.01.04.01.08,0,.13.01.09.01.17.01.26Z"/>
  <path class="cls-3" d="m117.37,262.24s3.2-7.37,5.03.67c0,0,4.36-7.55,5.96,2.31,0,0,4.13-13.07,7.57,2.06,0,0,8.98-7.66,10.91,1.1,0,0,4.22-10.82,9.27,0,0,0,7.57-7.61,7.57,0,0-.75,2.34-1.48,2.87-1.18.63.36.84,1.29.43,1.89l.13-2.85c2.17-1.12,3.61-3.27,4.74-5.44,4.73-9.04,5.67-20.33,1.1-29.45-2.94-5.87-7.94-10.55-13.6-13.87-4.36-2.56-9.27-4.42-14.32-4.4-3.31,0-6.58.82-9.73,1.86-4.4,1.46-7.89,3.41-11.05,6.86-2.91,3.18-5.14,6.94-6.84,10.88-1.6,3.69-2.79,7.6-3.07,11.61-.32,4.63.93,8.81,2.65,13.03.69,1.7,1.17,3.1.38,4.92Z"/>
  <path class="cls-3" d="m331,264.45s-1.51-7.57-3.45.69c0,0-4.61-7.75-6.3,2.37,0,0-4.36-13.42-8,2.12,0,0-9.49-7.86-11.53,1.13,0,0-4.47-11.11-9.8,0,0,0-8-7.82-8,0,0-.77-2.08-2.66-2.64-2.35-.66.37-1.28,2.46-.85,3.08-.05-.97-.09-1.95-.14-2.92-2.3-1.15-3.82-3.36-5.01-5.59-5-9.28-5.99-20.88-1.17-30.25,3.11-6.03,8.4-10.83,14.38-14.25,4.61-2.63,9.8-4.53,15.14-4.52,3.5,0,6.96.84,10.28,1.91,4.65,1.49,8.34,3.5,11.68,7.04,3.08,3.26,5.43,7.13,7.24,11.17,1.69,3.79,2.95,7.8,3.24,11.92.34,4.75-.98,9.05-2.8,13.38-.73,1.74-3.1,3.19-2.27,5.05Z"/>
  <path class="cls-17" d="m143.26,413.61s17.61,12.33,70.83,17.85c53.22,5.52,78.78-4.73,90.53-12.5"/>
  <path class="cls-3" d="m142.94,623.2c-1.07,0-2.18.09-3.25,0-1.61-.13-3.02-.95-4.52-1.58-.16-.07-.34-.14-.45-.28-.12-.14-.18-.32-.22-.5-.29-1.08-1.01-2.54-1.02-3.64-.01-1.19.77-2.71,1.07-3.86-1.97-1.11-3.34-3.22-3.55-5.47-.22-2.25.73-4.58,2.45-6.04-2.56-1.55-3.43-4.78-4.09-7.69-.13-.59-.27-1.2-.13-1.78.38-1.6,2.37-2.07,3.98-2.44,6.99-1.59,12.53-6.74,17.72-11.68,1.01,2.19,2.36,4.65,4.73,5.09-.54.7-.53,1.77.03,2.46,1.41-.73,3,.53,4.04,1.73s2.43,2.58,3.95,2.11c.42,1.19.84,2.38,1.27,3.56,1.36-.37,2.78.33,3.86,1.23s1.99,2.02,3.2,2.73c1.15.68,2.5.94,3.82,1.19,2.85.54,5.7,1.08,8.54,1.62,1.29.24,2.89.38,3.66-.69,2.38,1.3,5.07,2.03,7.79,2.1.11-.58.22-1.15.33-1.73,1-.16,1.96.61,2.36,1.54.4.93.36,1.98.32,2.99-.18,4.54-.36,9.08-.54,13.61-.08,1.94-.3,4.15-1.88,5.27-1.89,1.33-4.51.28-6.39-1.08-3.64-2.63-6.5-6.32-8.13-10.5-2.06,4.13-5.48,7.48-9.36,9.98-3.88,2.5-8.23,4.19-12.63,5.58-2.76.88-5.56,1.64-8.36,2.39-2.19.59-6.87,1.83-8.35-.7-.49-.84-.56-1.87-.49-2.84.18-2.3,1.17-7.35,3.61-8.22,3.42-1.22,6.83-2.45,10.25-3.68"/>
  <path class="cls-3" d="m302.88,580.94c.11-.1,8.67,4.65,9.44,5.09,1.3.73,2.61,1.48,3.72,2.48,1.1,1,2,2.31,2.24,3.78.13.8.06,1.63-.2,2.39-.45,1.34-1.55,2.49-2.92,2.83-.88.22-1.81.1-2.71-.04-2.11-.34-4.3-1.17-6.37-1.34.78.07,2.76,2.05,3.35,2.54,1.35,1.12,2.59,2.38,3.69,3.76.94,1.18,1.82,2.58,1.68,4.09-.07.71-.37,1.4-.85,1.93-1.23,1.36-3.28,1.47-5.11,1.49-.86,0-1.74.02-2.56-.25-.52-.17-1-.45-1.48-.72-2.06-1.19-4.1-2.61-6.28-3.56.28.78.56,1.57.85,2.35.56,1.55,1.63,3.2,1.19,4.9-.25.99-.86,1.86-1.59,2.57-.16.15-.33.3-.53.36-.19.06-.39.03-.59.01-2.21-.25-4.44-.44-6.64-.79-.03,0,.08,2.52-.01,2.75-.55,1.47-3.1,3.07-4.44,3.75-1.55.79-3.36,1.16-5.07.8-2.18-.46-3.95-2.06-5.27-3.85-1.05-1.43-2.02-5.03-4.13-5.03,0,0-4.16.51-4.18.51-2.82.35-5.88.19-8.67-.23-.63-.09-1.26-.22-1.8-.55-.51-.31-.88-.8-1.24-1.27-2.61-3.51-4.64-7.41-6.41-11.4-.91-2.06-1.76-4.14-2.58-6.23-.3-.76-2.05-3.38-1.87-4.13.15-.63-.74-1.32-.58-1.94,3.32,1.08,7.42,2.47,10.63.05,1.36,1.11,2.92,2.1,4.67,2.24,1.75.14,3.68-.81,4.16-2.5,1.01.4,2.04.81,3.12.91,1.08.1,2.25-.13,3.04-.88,1.53.82,3.19,1.62,4.91,1.42s3.37-1.85,2.92-3.52c2,1.19,4.13,2.16,6.33,2.88.36-.52.72-1.05,1.08-1.57,2.31.28,4.66.26,6.97-.05.19-.43.38-.86.57-1.29.08-.19,3.45-.43,3.86-.52,1.25-.27,2.85-.54,3.93-1.26,1.06-.71,1.31-1.83,1.76-2.96Z"/>
  <g id="Background">
    <path class="cls-5" d="m189.64,328.13l-27.59,1.09v46.1h45.53v-29.43c-5.12-5.58-12.45-12.36-17.94-17.76Z"/>
    <path class="cls-4" d="m198.73,344.37c-.09-.24-.24-.6-.35-.81-.11-.21-.32-.54-.47-.75-.14-.21-.47-.58-.72-.84-.25-.25-.66-.61-.91-.78-.24-.17-.68-.42-.96-.55s-.61-.27-.74-.31-.27-.09-.31-.1c-.05-.01-.15-.03-.23-.05-.08-.01-.27-.05-.43-.09-.21-.05-2.37-.07-8.48-.09l-8.2-.02-.14.15c-.13.14-.14.2-.14.59,0,.24.02.51.04.6.02.09.09.18.14.21.05.03.67.07,1.37.1.69.02,1.26.06,1.26.07s-.26.22-.58.46c-.32.24-.84.68-1.15.98-.31.31-.72.76-.91,1.01-.2.25-.49.66-.65.9-.17.25-.3.47-.3.49,0,.03-.06.14-.13.25-.07.11-.26.51-.42.89s-.38.95-.47,1.27-.23.88-.3,1.24c-.09.51-.11.92-.11,1.82,0,.63.01,1.26.03,1.38.02.13.09.49.15.81s.18.8.26,1.07c.09.27.26.74.39,1.04.13.3.39.81.57,1.12s.53.85.77,1.18c.24.33.68.85.97,1.14.3.29.55.54.57.53.02,0,.12.08.23.18.11.1.44.36.74.56.3.21.7.47.9.6.2.12.63.35.94.5.31.15.83.36,1.14.46s.89.24,1.3.32c.4.08.77.17.82.19.06.03,1.61.06,3.44.06h3.35s0-1.72,0-1.72h-5.41v-18.76c3.24-.07,4.99-.08,5.98-.06,1.24.03,1.92.06,2.19.13.22.05.63.2.91.33.28.14.68.37.88.53.2.16.52.46.71.66.19.21.44.56.57.77.13.22.3.58.39.8.09.22.19.57.23.78.05.21.08.69.08,1.07s-.04.86-.08,1.07c-.05.21-.18.61-.3.89-.13.28-.35.71-.5.95-.15.24-.39.56-.54.71-.15.16-.42.39-.61.53s-.56.36-.83.48c-.27.13-.54.24-.6.25-.06,0-.14.03-.17.05-.03.02-.27.09-.54.15l-.48.11v1.49c.92,1.65,1.64,2.93,2.19,3.92.56.99,1.26,2.24,1.57,2.8.3.55.63,1.09.72,1.18.17.17.18.17.76.17.44,0,.61-.02.68-.09.05-.05.1-.15.09-.23,0-.08-.15-.41-.32-.75s-.97-1.75-1.76-3.14c-.79-1.39-1.63-2.88-1.87-3.3-.24-.41-.43-.77-.43-.79s.35-.21.78-.42c.43-.22.94-.5,1.13-.62s.51-.37.71-.57.46-.5.57-.67c.11-.17.33-.56.48-.85.14-.29.34-.73.44-.98.1-.24.24-.71.32-1.05.12-.5.15-.74.15-1.41,0-.62-.03-.92-.12-1.3-.06-.27-.19-.69-.27-.92Z"/>
    <path class="cls-10" d="m188.43,351.82s-.03.44-.02.88l.02.8,1.74.03-.03-1.76c-1.53-.03-1.68-.02-1.71.05Z"/>
    <path class="cls-13" d="m188.72,341.65c.54.01,1.38.01,1.88,0,.5,0,.06-.02-.97-.02s-1.45.01-.91.02Z"/>
    <path class="cls-14" d="m178.27,339.98c.61.01,1.58.01,2.16,0,.58,0,.08-.01-1.11-.01s-1.66,0-1.05.01Z"/>
    <path class="cls-14" d="m185.16,339.98c.77.01,2.04.01,2.82,0,.79,0,.15-.01-1.39-.01s-2.19,0-1.42.01Z"/>
    <path class="cls-11" d="m182.09,339.98c.27.01.72.01,1,0,.28,0,.06-.02-.48-.02s-.78.01-.51.02Z"/>
    <path class="cls-9" d="m190,339.98c.33.01.84.01,1.14,0,.3,0,.03-.02-.6-.02s-.87.01-.54.02Z"/>
    <path class="cls-5" d="m183.74,341.84c-.05,0-.32.07-.6.14s-.75.22-1.02.33c-.28.11-.72.31-.97.44-.25.13-.57.3-.71.38-.14.08-.49.32-.77.54-.28.22-.73.63-1,.9-.27.28-.63.71-.8.95-.17.24-.41.59-.52.78-.11.19-.29.54-.4.78-.11.24-.24.54-.3.66-.06.13-.11.25-.11.29-.01.03-.09.31-.17.61-.09.3-.17.63-.18.72-.02.09-.04.25-.05.35s-.04.47-.06.84c-.02.42-.01.93.03,1.41.03.41.13,1,.2,1.3.08.3.22.75.32,1.01s.29.7.43.98c.14.28.36.69.48.89.13.21.39.57.58.81.19.24.59.66.89.95.3.28.78.67,1.08.88.3.2.86.52,1.25.71.39.18.98.42,1.31.52.33.1.64.2.68.21.05.02.18.05.28.06l.2.02c.07-4.85.09-7.62.09-9.28s-.02-4.41-.03-6.1c-.03-2.77-.05-3.07-.13-3.07Z"/>
    <path class="cls-8" d="m183.87,344.43c0,.78.01,1.09.02.69.01-.4.01-1.03,0-1.41,0-.38-.02-.06-.02.72Z"/>
    <path class="cls-8" d="m183.87,357.6c0,.76.01,1.06.02.66.01-.4.01-1.02,0-1.38,0-.36-.02-.04-.02.72Z"/>
  </g>
  <path class="cls-16" d="m296.3,472.38c16.64-5.58,55.17-21.26,79.67-60.61,11.69-18.77,21.73-40.83,22.15-63.3.24-13.23-3.41-26.87-11.98-36.95-6.64-7.81-16.6-13.31-26.82-12.59-9.19.64-22.86,9.59-20.7,20.41,1.83,9.18,15.56,12.57,23,15.12,3.33,1.14,7.03,2.29,8.9,5.27,1.22,1.94,1.43,4.34,1.36,6.62-.32,10.24-5.39,19.85-9.72,28.91-8.33,17.46-18.27,38.27-42.06,52.01-8.82,5.1-16.97,7.73-22.66,9.16l-1.15,35.94Z"/>
  <g>
    <path class="cls-15" d="m250.39,231.84c0,17.16-11.81,31.08-26.4,31.08s-26.39-13.91-26.39-31.08c0-6.87,1.9-13.23,5.1-18.37,13.33,4.86,22.04-12.1,22.04-12.1,0,0,8.51,16.58,21.15,13.12,2.84,4.96,4.49,10.93,4.49,17.35Z"/>
    <g class="cls-1">
      <path class="cls-7" d="m223.99,262.91s-5.25-24.89,26.04-25.98c31.29-1.09-15.48,34.8-26.04,25.98"/>
    </g>
  </g>
  <path class="cls-2" d="m206.12,164.07c0,18.54-14.53,33.56-32.47,33.56s-32.48-15.02-32.48-33.56c0-12.68,6.8-23.72,16.85-29.44-6.57,5.77-10.78,14.68-10.78,24.66,0,17.47,12.87,31.62,28.75,31.62s28.77-14.15,28.77-31.62c0-2.44-.25-4.84-.74-7.12,1.36,3.7,2.1,7.72,2.1,11.91Z"/>
  <path class="cls-12" d="m204.76,159.29c0,17.47-12.88,31.62-28.77,31.62s-28.75-14.15-28.75-31.62c0-9.98,4.22-18.88,10.78-24.66,4.64-2.63,9.96-4.14,15.63-4.14,13.87,0,25.71,9,30.36,21.67.49,2.29.74,4.68.74,7.12Z"/>
  <path class="cls-2" d="m309.8,162.36c0,18.54-14.53,33.56-32.47,33.56s-32.48-15.02-32.48-33.56c0-12.68,6.8-23.72,16.85-29.44-6.57,5.77-10.78,14.68-10.78,24.66,0,17.47,12.87,31.62,28.75,31.62s28.77-14.15,28.77-31.62c0-2.44-.25-4.84-.74-7.12,1.36,3.7,2.1,7.72,2.1,11.91Z"/>
  <path class="cls-12" d="m308.44,157.58c0,17.47-12.88,31.62-28.77,31.62s-28.75-14.15-28.75-31.62c0-9.98,4.22-18.88,10.78-24.66,4.64-2.63,9.96-4.14,15.63-4.14,13.87,0,25.71,9,30.36,21.67.49,2.29.74,4.68.74,7.12Z"/>
  <path class="cls-16" d="m153.6,95.2s36.76,24.64,52.3,33.36c15.54,8.71-63.67,25.77-52.3-33.36Z"/>
  <path class="cls-16" d="m302.77,95.2s-40.65,24.64-57.83,33.35c-17.18,8.72,70.4,25.77,57.83-33.35Z"/>
  <circle class="cls-2" cx="189.75" cy="151.36" r="6.71"/>
  <circle class="cls-2" cx="181.36" cy="165.68" r="3.82"/>
  <circle class="cls-2" cx="191.73" cy="172.12" r="2.62"/>
  <circle class="cls-2" cx="294.31" cy="149.75" r="6.71"/>
  <circle class="cls-2" cx="285.93" cy="164.07" r="3.82"/>
  <circle class="cls-2" cx="296.3" cy="170.51" r="2.62"/>
  <ellipse class="cls-18" cx="293.68" cy="203.8" rx="23.02" ry="12.89"/>
  <ellipse class="cls-18" cx="158.34" cy="203.8" rx="23.02" ry="12.89"/>
  <text class="cls-6" transform="translate(162.69 683.77)"><tspan x="0" y="0">Placer</tspan></text>
</svg>