<?xml version="1.0" encoding="UTF-8"?>
<svg id="Capa_2" data-name="Capa 2" xmlns="http://www.w3.org/2000/svg" viewBox="0 0 424.45 666.87">
  <defs>
    <style>
      .cls-1 {
        stroke: #b2b2aa;
      }

      .cls-1, .cls-2, .cls-3 {
        fill: none;
        stroke-miterlimit: 10;
        stroke-width: 1.09px;
      }

      .cls-2 {
        stroke: #696961;
      }

      .cls-3 {
        stroke: #1d1d1b;
      }

      .cls-4 {
        fill: #fad6bd;
      }

      .cls-5 {
        fill: #010101;
      }

      .cls-6, .cls-7 {
        fill: #fff;
      }

      .cls-8 {
        fill: #bfbebf;
      }

      .cls-9 {
        fill: #c0c0bf;
      }

      .cls-10 {
        fill: #1e2b4f;
      }

      .cls-11 {
        fill: #404040;
      }

      .cls-12 {
        fill: #1d1d1b;
      }

      .cls-13 {
        fill: #3f3f3f;
      }

      .cls-14 {
        fill: #808181;
      }

      .cls-15 {
        fill: #7a5132;
      }

      .cls-7 {
        font-family: BigCaslon-Medium, 'Big Caslon';
        font-size: 45.93px;
        font-weight: 500;
      }
    </style>
  </defs>
  <path class="cls-15" d="m278.56,430.38s60.64-.2,68.78-50.52c8.14-50.32,5.57-125,3.43-131.9-2.14-6.91-7.59-12.55-19.22-9.51s-9.49,22.98-9.49,26.67,3,48.62,3,54.78,2.14,46.47-3,51.48c-5.14,5.01-37.72,23.63-37.72,23.63l-3.2-4.09-5.85,1.43,3.27,38.02Z"/>
  <path class="cls-15" d="m379.63,158.43c0,32.97-10.63,60.68-33.4,60.68s-25.64-6.86-25.64-6.86c-9.95,17.47-23.92,30.29-43.59,40.32-30.48,15.55-61.61,15.11-68.78,14.88-10.31-.35-52.74-1.77-81.54-26.97-4.85-4.22-9.31-9.15-13.17-14.85-3.37-4.98-5.56-9.49-6.87-12.53,0,.62-.55,6.02-20.07,6.02-20.68,0-30.34-27.72-30.34-60.68s37.52-24.59,37.52-24.59C96.96-37.23,278.72,10.71,282.8,15.65c4.06,4.94,40.67-15.65,40.67-15.65,0,3.85-14.65,21.15-14.65,21.15,21.15.27,20.58,24.97,20.58,24.97-5.97-15.06-17.96-6.55-17.96-6.55,12.56,21.33,21.77,44.78,25.68,69.36,1.44,9.12,2.15,18.34,2.09,27.55,6-1.4,40.42-8.14,40.42,21.96Z"/>
  <path id="Cuello" class="cls-15" d="m160.38,250.35s9.28,13.84,3.42,20.98l40.45,24.87,14.62,13.58,6.85-9.84,33.04-23.76s-8.27-4.99-.08-19.59c0,0-30.71,10.36-98.31-6.24Z"/>
  <path class="cls-15" d="m285.55,549.6c-.85,1.36-1.72,2.74-2.68,4.05-2.94-.32-6.31,1.04-7.82,4.05-3.54-2.35-9.23-1.71-10.78,3.64.39-1.31.22-.37-1.12.14-1.08.41-2.25.58-3.39.72-4.69.55-9.39.29-14.1.98-1.76.27-3.12,1.46-3.98,2.99l-1.04-1.81-3.65-8.78-11.14-5.96.5-14.72-1.29-43.24.82-49.5c-8.49,1.85-22.16,3.29-31.67.97l.26,1.83-2.58,28.7-4.7,52.06-1.29,25.97c-.37.83-.58,1.76-.58,2.75v6.9l-1.3,2.75-5.23,2.54c-5.13-.31-10.22.94-14.71,3.39l-.15-.39-.17.58c-2.11,1.19-4.09,2.65-5.85,4.37-1.96.14-3.9.28-5.83.42-.31.03-.61.06-.93.08-7.33-6.29-13.5-14.1-22.38-18.57,1.08-1.69,2.05-3.34,2.91-5.07.31.04.61.06.92.04,1.73-.07,3.33-.66,4.63-1.83.06-.04.11-.07.18-.11.6-.24,1.15-.53,1.62-.98.76-.49,1.36-1.15,1.79-1.97.5-.8.78-1.66.82-2.58,1.35-1.52,2.04-3.64,1.39-6.24-2.96-11.83-4.84-24.46-6.2-36.92l-.17-7.87-.93-44.07-1.14-58.31.72-.96,17.29,5.76,13.65,3.53,10.36,2.22,28.94,4.16,10.03,1.04,16.38-.55,10-.45,14.41-1.21,14.29-3.19,10.7-4.33c-.01.1-.01.2-.01.31.03,2.02.12,4.06.26,6.07-.03.21-.04.44-.06.65-.39,13.01.61,26.11.49,39.16-.28,29.13-2.66,58.25-7.14,87.02-.82,5.25-2.32,11.03,2.84,14.2,1.87,2.49,4.86,4.42,7.8,5.56Z"/>
  <path class="cls-15" d="m372.58,463.52l-6.5-16.06-11.72-24.1-14.97-31.81-8.2-17.76c-.61.67-1.25,1.3-1.9,1.92-.16.5-.38,1.01-.67,1.52-2.82,4.92-9.03,7.79-13.2,11.46-6.31,5.55-12.42,11.31-18.9,16.66-.62.51-1.96,2.25-1.96,2.25l24.01,32.48,2.37,4.55,1.34,6-1.68,9.03-5.31,13.32-.98,1.86,2.22-.03,4.82.73,2.9-1.3,2.64-1.5,1.58-3.37,2.32-6.54,1.54-6.61,1.41.68,1.12,3.97-.52,4.75.03,22.12-.11,3.21,2.08.84,2.6-.05,1.92-.63.71-2.37,1.77-7.91,1-6.64,1.39-9.07.4,20.39,1.01,3.82,2.44,1.74,3.69-.24,1.14-.7-.05-3.1.05-10.94.32-8.28,3.47,13.17,1.4,4.42,3.59,1.32,2.39-1.05.36-3.42-1.04-7.22-3.36-16.63,8.66,15.77,3,1.21,1.56-3.86-2.18-7.95Z"/>
  <path class="cls-15" d="m128.49,397.16c-4.53-3.52-9.24-6.56-13.87-9.9-4.46-3.21-8.25-7.1-12.88-10.13-.54-.35-.99-.75-1.39-1.16-.5-.42-.94-.89-1.31-1.43-.59-.34-1.18-.68-1.77-1.02-1.48-.58-2.84-1.44-4.03-2.65-.4-.4-.71-.85-.99-1.32l-40.83,98.34-.17,3.18,1.91,2.55,2.7-1.39,6.43-13.79-1.98,10.02-1.6,8.98-.38,4.83,1.64,2.52,2.21.16,3.61-2.03,1.01-4.28,1.24-7.41,1.51-7.34.14-2.13-.73,12.36-.15,3.02.16,3.91-.39,5.22.29,1.82,2.05,1.87,3.42-.3,1.99-1.51.83-3.45-.12-4.88.28-6.93v-5.35l.31-4.58,1.05,7.77.97,7.08.8,5.69.57,3.86,1.04,2.61,3.04,1.08,2.26-.67,1.46-1.44.34-2.57-1.47-27.89.72-3.56.88-.36,1.86,4.37,2.58,6.23.95,5.22,3.78,3.17,2.15-.31h1.86l3.39-.46-.81-4.25-2.48-4.71-2.62-8.84-.69-8.43.69-3.52,1.79-4.44,4.11-5.85,18.45-28.16,4.48-7.22c-.1-.06-.2-.12-.29-.19Z"/>
  <path class="cls-4" d="m64.57,436.56c-.11.24,0,.82,0,1.09,1.69.24,3.99-.31,5.46.64.37.24.69.57,1.09.77,1.4.71,3.27-.41,4.6.44.35.23.62.57.92.86,1.37,1.32,3.67,1.51,5.22.41,1.59,1.54,3.86,2.33,6.05,2.1,0,.49,0,.98,0,1.47,1.73-.15,3.42-.72,4.9-1.64-.16.1,3.37,1.51,3.92,1.49,1.28-.05,2.25-.77,3.39-1.33l-.85,4.16.65,6.12,1.34,5.63,1.45,4.29,2.05,5.02,1.31,3.02v1.98l-2.76.5-3.89.6-3.64-1.6-1.18-2.9-3.32-8.58-1.35-4.98-.61-1.24-1,1.61-.35,5.28.55,9.64.29,5.73.21,4.72.14,4.95-.34,2.57-2.07,1.63h-3.95l-1.69-2.66-.64-4.63-1.84-12.81-.61-2.61-.58,5.84-.07,5.1-.09,3.48-.24,4.08-1.92,2.89-2.61.58-2.36-.19-1.54-2.93.08-5.8v-5.35l.12-7.21-1.29,6.15-1.38,7.79-3.94,2.68-2.21-.16-1.64-2.52v-3.86l.76-4.98,1.47-6.59.76-3.54-1.62.67-1.74,3.73-2.56,4.96-2.25.95-2.06-.92-.8-3.33.68-4.51s13.43-28.43,13.59-28.78Z"/>
  <path class="cls-4" d="m321.11,456.1c-.24,1.11-.56,2.2-.95,3.26-.75,2.04-1.77,3.97-2.56,5.99-.59,1.51-1.06,3.07-1.84,4.49-.86,1.56-2.14,3.29-1.47,4.95,2.24.83,4.62,1.42,6.99,1.18,2.37-.24,4.74-1.42,5.97-3.48.45-.76.74-1.6,1.03-2.44,1.5-4.4,2.99-8.81,4.53-13.2,1.6,1.52,1.3,3.62,1.35,5.77.07,2.84-.05,5.68-.22,8.51-.35,5.59-.96,11.18-.96,16.79,0,1.43.1,3.03,1.12,4.02.5.49,1.18.77,1.86.94,1.8.45,3.95.12,5.07-1.38.68-.91.88-2.09,1.06-3.22,1.12-7.06,2.29-14.12,3.36-21.19-.15,1.02.2,2.48.23,3.56.05,1.6.09,3.2.14,4.8.09,3.2.19,6.39.28,9.59.07,2.38.35,5.15,2.34,6.41.73.46,1.6.64,2.46.71,1.3.1,2.72-.11,3.64-1.05,1.09-1.12,1.13-2.87,1.09-4.45-.16-5.95-.64-11.88-.75-17.82.03,1.9.91,4.12,1.33,5.99.56,2.55,1.12,5.09,1.68,7.64.24,1.1.51,2.25,1.26,3.08.83.92,2.1,1.29,3.32,1.48,1.3.21,2.84.17,3.65-.87.62-.79.6-1.9.52-2.91-.28-3.72-.88-7.41-1.64-11.06-.72-3.44-2.3-7.23-2.51-10.7.03.55,1.33,1.86,1.64,2.38.55.91,1.04,1.84,1.52,2.78,1.02,1.98,2,3.98,2.99,5.97.38.75.76,1.52,1.36,2.1,1.08,1.04,2.83,1.3,4.16.6.18-.1.36-.21.5-.37.15-.18.23-.4.3-.62.95-2.8.03-4.86-.88-7.51-1.02-2.98-2.12-5.94-3.31-8.85l-4.96-11.04-1.96-4.21-.9-1.66-1.89-.07-1.05,1.23-2.91.66-1.81-.41-1.76.99h-2.27l-2.51-.66v1.58s-1.78,1.29-1.78,1.29l-2.51-1.29-2.28-.35-1.12,1.8-1.86.16-2.27-.49-.89,1.07-1.7.66-2.33-.53-.75-.53-.73.9-2.18.61h-2.35l-1.54-.2h-.97c-.61,0-1.23-.09-1.83-.15-.39,1.74.04,3.71-.11,5.51-.09,1.1-.25,2.2-.49,3.28Z"/>
  <path class="cls-4" d="m136.44,578.77c-.94,0-1.91.08-2.84,0-1.4-.11-2.64-.84-3.94-1.4-.14-.06-.29-.13-.4-.24-.11-.12-.15-.29-.2-.45-.26-.95-.88-2.24-.89-3.21,0-1.05.67-2.39.93-3.41-1.72-.98-2.91-2.84-3.1-4.83s.64-4.04,2.14-5.34c-2.23-1.37-2.99-4.22-3.57-6.79-.12-.52-.23-1.06-.11-1.57.33-1.42,2.07-1.83,3.47-2.15,6.1-1.41,10.93-5.95,15.46-10.32.88,1.93,2.06,4.1,4.12,4.5-.47.62-.46,1.57.02,2.17,1.23-.64,2.62.47,3.52,1.53s2.12,2.28,3.44,1.87c.37,1.05.74,2.1,1.1,3.15,1.18-.33,2.43.29,3.37,1.09.94.79,1.74,1.78,2.79,2.41,1.01.6,2.18.83,3.33,1.05,2.48.48,4.97.95,7.45,1.43,1.13.22,2.52.33,3.19-.61,2.08,1.15,4.43,1.79,6.79,1.85.1-.51.19-1.02.29-1.52.87-.14,1.71.54,2.06,1.36s.32,1.75.28,2.64c-.16,4.01-.31,8.02-.47,12.03-.07,1.71-.26,3.67-1.64,4.66-1.65,1.18-3.94.24-5.57-.95-3.18-2.32-5.67-5.58-7.1-9.28-1.79,3.65-4.78,6.61-8.16,8.81-3.39,2.2-7.18,3.7-11.02,4.93-2.41.77-4.85,1.45-7.29,2.11-1.91.52-6,1.62-7.28-.62-.43-.74-.49-1.65-.42-2.51.15-2.03,1.02-6.49,3.15-7.26,2.98-1.08,5.96-2.16,8.94-3.25"/>
  <path class="cls-4" d="m276.65,543.79c.1-.09,7.56,4.11,8.24,4.49,1.13.65,2.28,1.3,3.24,2.19s1.74,2.04,1.95,3.34c.11.7.05,1.44-.17,2.11-.39,1.18-1.35,2.2-2.55,2.5-.77.19-1.58.09-2.37-.04-1.84-.3-3.76-1.03-5.56-1.18.68.06,2.41,1.81,2.92,2.24,1.18.99,2.26,2.11,3.22,3.32.82,1.04,1.59,2.28,1.46,3.61-.06.63-.32,1.24-.74,1.71-1.07,1.2-2.86,1.3-4.46,1.32-.75,0-1.52.02-2.23-.22-.46-.15-.88-.4-1.29-.64-1.79-1.05-3.58-2.3-5.48-3.14.24.69.49,1.39.74,2.08.49,1.37,1.42,2.83,1.04,4.33-.22.87-.75,1.64-1.39,2.27-.14.13-.28.27-.47.32-.17.05-.34.03-.51.01-1.93-.22-3.87-.39-5.79-.7-.02,0,.07,2.23,0,2.43-.48,1.29-2.71,2.71-3.87,3.31-1.36.7-2.93,1.03-4.42.71-1.9-.41-3.45-1.82-4.6-3.4-.92-1.26-1.76-4.44-3.6-4.44l-3.65.45c-2.46.31-5.13.17-7.57-.2-.55-.08-1.1-.19-1.57-.48-.44-.28-.77-.7-1.08-1.13-2.28-3.1-4.05-6.54-5.59-10.07-.8-1.82-1.53-3.66-2.26-5.51-.26-.67-1.78-2.99-1.63-3.65.13-.55-.64-1.17-.5-1.71,2.9.95,6.48,2.18,9.27.05,1.18.98,2.55,1.86,4.07,1.98s3.21-.72,3.63-2.2c.88.36,1.78.71,2.72.81s1.96-.12,2.65-.77c1.33.72,2.78,1.43,4.28,1.25,1.5-.18,2.94-1.63,2.55-3.11,1.74,1.05,3.6,1.91,5.52,2.55.31-.46.63-.93.94-1.39,2.02.24,4.07.23,6.08-.05.17-.38.33-.76.5-1.14.07-.16,3.01-.38,3.37-.46,1.09-.24,2.49-.48,3.43-1.12.93-.63,1.14-1.62,1.53-2.61Z"/>
  <path class="cls-4" d="m125.52,238.72c-5.16-20.58-9.53-41.51-10.83-62.75-1.85-30.33,2.24-64.72,25.18-86.41,4.02-3.8,8.42-7.25,13.31-9.8,10.24-5.34,22.56-6.44,33.57-3.02,6.25,1.94,12.03,5.33,16.88,9.76,2.5,2.28,4.74,4.85,6.68,7.64.89,1.28,1.92,3.57,3.69,2.72,1.24-.59,2.43-3.79,3.25-4.94,2.31-3.23,5.11-6.1,8.22-8.55,6.37-5.02,14.05-8.33,22.01-9.65,13.82-2.3,28.16.98,40.71,7.28,4.61,2.32,9.07,5.06,12.77,8.69,2.77,2.72,5.09,5.88,7.1,9.21,7.93,13.09,11.28,28.54,12.63,43.84,1.27,14.53.83,29.21-1.29,43.64-2.04,13.89-6.16,27.14-10.1,40.5l-.15,1-5.91,5.87-2.19,2.51-5.36,4.61-3.19,2.2-2.84,2.12-4.45,2.38-5.51,3.58-6.57,3.14-9.53,3.9-9.46,3.34-11.42,2.89-11.39,1.74-14.14,1.11-12.42.24-13.69-1.08-15-2.51-11.73-3.1-14.62-5.33-9.49-5.08-12.73-8.46-2.03-3.24Z"/>
  <ellipse class="cls-12" cx="165.73" cy="160.9" rx="7.51" ry="9.34"/>
  <ellipse class="cls-12" cx="263.38" cy="160.9" rx="7.51" ry="9.34"/>
  <line class="cls-3" x1="202.22" y1="199.99" x2="206.58" y2="198.73"/>
  <line class="cls-3" x1="224.33" y1="199.11" x2="228.07" y2="200.86"/>
  <path class="cls-6" d="m175.65,233.99c5.63-5.62,20.05-5.31,27.45-5.31,21.45-.7,43.31-1.06,63.91,5.06-2.09,3.13-4.18,6.27-6.27,9.4-.51.76-1.05,1.55-1.88,1.93-.63.28-1.34.29-2.03.29-21.25,0-42.51,0-63.76,0-1.27,0-2.57,0-3.76-.45-1.11-.42-2.06-1.19-2.98-1.94-3.49-2.88-7.71-5.61-10.69-8.99Z"/>
  <path class="cls-1" d="m246.22,234.03l4.9,3.65c.81.6,1.9.65,2.76.13l3.9-2.37"/>
  <path class="cls-1" d="m178.69,234.03l4.93,2.36c.59.28,1.27.24,1.82-.11l2.52-1.61c.58-.37,1.32-.4,1.92-.06.4.23.95.51,1.66.83,1.84.82,6.06,0,6.06,0"/>
  <polyline class="cls-6" points="163.02 269.86 157.62 278.79 153.32 285.9 148.71 289.37 131.92 302.97 128.44 306.11 120.08 314.87 116.54 319.49 111.98 327.29 109.63 333.34 107.21 340.88 104.9 346.21 99.56 356.44 96.6 359.35 90.57 367.43 89.8 368.63 91.98 370.22 99.06 375.38 103.94 378.94 116.44 388.06 123.39 393.14 135.08 401.67 135.11 392.22 138.2 392.81 152.88 397.7 164.34 400.76 176.31 403.39 194.79 406.78 217.48 408.41 236.48 408.41 249.46 407.15 266.01 403.91 273.61 401.58 279.81 399.17 285.55 396.76 286.28 398.4 288.19 401.75 289.5 404.11 290.92 407.58 292.58 410.59 294.65 408.59 298.17 405.62 302.54 401.75 306.89 397.88 312.83 392.16 318.2 388.02 321.07 385.3 326.02 380.66 331.22 376.29 334.65 373.07 333.82 371.18 329.82 363.68 325.88 356.56 322.85 350.56 320.12 345.85 318.04 342.19 316.63 337.28 314.43 332 311.5 326.79 308.52 322.29 305.3 319.04 302.33 315.63 299.38 312.66 296.04 309.91 293.2 307.39 288.81 304.19 285.22 301.26 281.97 299.2 277.47 296 273.38 293.08 270.13 288.51 266.92 283.99 262.89 278.12 260.48 274.92 253.23 279.84 246.75 284.67 237 291.83 230.05 296.83 225.95 299.78 224.31 301.97 219.79 308.18 218.83 308.85 216.1 306.31 212.23 302.54 206.16 297.03 201.87 293.89 193.11 288.83 185.39 283.38 174.65 276.97 163.02 269.86"/>
  <g>
    <path class="cls-2" d="m153.97,285.1c-9.62,7.97-19.9,15.21-28.73,24.11-4.28,4.32-8.2,9.04-11.31,14.31-2.8,4.75-4.45,10.03-6.03,15.29-1.21,4.02-3.1,7.73-5.08,11.4-1.11,2.06-2.24,4.11-3.26,6.22"/>
    <path class="cls-2" d="m272.42,292.39c19.52,14.11,40.92,26.99,45.86,50.89"/>
    <path class="cls-2" d="m255.1,278.79l5.38-3.87,12.9,18.17s-3.25,1.97-12.42,4.17-26.3,22.48-26.3,20.53-8.93-17.84-8.93-17.84l-6.5,9.29,1.43,8.55"/>
    <line class="cls-2" x1="255.1" y1="278.79" x2="225.73" y2="299.94"/>
    <polyline class="cls-2" points="219.23 309.23 205.5 296.41 206.47 317.91 193.47 312.29 184.55 306.2 158.56 286.95 153.32 285.9 163.02 269.86 205.5 296.41"/>
    <path class="cls-2" d="m135.85,322.3s.3,55.8-10.9,61.32c-11.2,5.52,104.77,45.68,163.81,11.04,0,0,3.94-4.33-1.51-9.52"/>
    <path class="cls-2" d="m282.41,389.65s14.45.8-4.15-51.73"/>
    <polyline class="cls-2" points="285.55 396.43 292.58 410.59 334.96 372.97 318.13 342.57"/>
    <path class="cls-2" d="m136.59,402.76l-46.79-34.13c2.92-4.55,6.04-9.01,10.12-12.59"/>
  </g>
  <g id="Background">
    <path class="cls-6" d="m170.98,303.43l-34.39,1.36v57.47h56.76v-36.69c-6.39-6.95-15.52-15.41-22.36-22.14Z"/>
    <path class="cls-5" d="m182.31,323.68c-.11-.29-.31-.75-.44-1.01-.14-.26-.4-.68-.58-.93-.18-.26-.58-.73-.9-1.04-.31-.32-.82-.75-1.14-.97-.31-.22-.84-.52-1.2-.69s-.77-.34-.92-.39-.33-.11-.39-.13c-.06-.01-.18-.04-.28-.06-.1-.01-.34-.06-.53-.11-.26-.06-2.96-.09-10.57-.11l-10.22-.03-.17.19c-.16.17-.18.25-.17.74,0,.3.02.64.05.75.03.11.11.23.18.27.06.04.83.09,1.7.13.87.03,1.58.07,1.58.09s-.33.27-.72.57c-.4.29-1.04.85-1.43,1.22-.38.38-.89.95-1.14,1.26-.25.32-.61.83-.81,1.13-.21.31-.37.58-.37.61,0,.04-.07.17-.16.31-.09.14-.33.64-.52,1.11s-.47,1.19-.59,1.58-.28,1.09-.37,1.54c-.11.64-.14,1.14-.14,2.26,0,.79.01,1.57.04,1.72.02.16.11.61.18,1.01s.23.99.33,1.33c.11.34.32.92.48,1.29.16.37.48,1.01.71,1.4s.66,1.06.96,1.47c.3.42.84,1.06,1.21,1.42.37.37.69.67.71.66.02,0,.15.1.29.23.13.13.55.45.92.7.37.26.87.59,1.13.75.26.15.78.43,1.17.62.39.19,1.03.45,1.42.57s1.11.3,1.62.4c.5.1.96.21,1.02.24.07.04,2,.07,4.29.07h4.17s0-2.14,0-2.14h-6.74v-23.38c4.04-.09,6.22-.1,7.45-.07,1.54.04,2.39.08,2.73.16.28.06.78.24,1.14.42.35.17.84.47,1.1.66.26.2.65.57.89.83.23.26.55.7.72.96.16.27.38.72.49,1,.11.28.23.71.29.97.06.26.1.85.1,1.33s-.05,1.07-.1,1.33c-.06.26-.23.76-.38,1.11-.16.35-.43.89-.62,1.19-.18.29-.49.7-.67.88-.18.19-.52.49-.76.66s-.7.45-1.03.6c-.33.16-.67.3-.74.32-.08,0-.18.04-.21.06-.04.03-.34.11-.67.19l-.6.14v1.85c1.14,2.06,2.04,3.66,2.73,4.88.7,1.23,1.57,2.79,1.95,3.48.38.69.78,1.36.89,1.47.21.22.22.22.94.22.55,0,.76-.03.85-.11.06-.06.12-.19.11-.29,0-.1-.18-.52-.4-.93s-1.21-2.18-2.19-3.92c-.98-1.74-2.03-3.59-2.33-4.12-.3-.52-.54-.96-.54-.98s.44-.26.97-.52c.54-.27,1.17-.62,1.4-.77s.63-.47.88-.71.57-.62.72-.83c.14-.22.41-.7.6-1.06.18-.36.43-.91.55-1.22.12-.3.3-.89.4-1.31.15-.62.18-.93.18-1.76,0-.78-.04-1.15-.15-1.62-.08-.34-.23-.85-.33-1.15Z"/>
    <path class="cls-10" d="m169.47,332.97c-.03.06-.04.55-.02,1.1l.02,1,2.16.04-.04-2.19c-1.9-.04-2.09-.03-2.13.06Z"/>
    <path class="cls-13" d="m169.83,320.28c.67.01,1.72.01,2.34,0,.62,0,.08-.02-1.21-.02s-1.8.01-1.14.02Z"/>
    <path class="cls-14" d="m156.81,318.2c.76.01,1.97.01,2.7,0,.72,0,.1-.01-1.38-.01s-2.07,0-1.31.01Z"/>
    <path class="cls-14" d="m165.39,318.2c.96.01,2.54.01,3.51,0,.98,0,.19-.01-1.74-.01s-2.73,0-1.77.01Z"/>
    <path class="cls-11" d="m161.56,318.2c.33.01.89.01,1.24,0,.35,0,.08-.02-.6-.02s-.97.01-.64.02Z"/>
    <path class="cls-9" d="m171.42,318.2c.41.01,1.05.01,1.42,0,.37,0,.04-.02-.74-.02s-1.09.01-.67.02Z"/>
    <path class="cls-6" d="m163.63,320.52c-.06,0-.4.09-.75.18s-.93.28-1.28.42c-.35.14-.89.38-1.21.55-.31.16-.71.37-.89.47-.18.1-.61.4-.96.68-.35.27-.91.78-1.24,1.13-.33.35-.78.88-1,1.18-.21.29-.51.73-.65.97-.13.24-.36.68-.5.97-.13.29-.31.67-.37.83-.07.16-.13.32-.14.36-.01.04-.11.38-.21.75-.11.37-.21.78-.23.9-.02.11-.05.32-.06.43s-.05.59-.08,1.04c-.03.52-.01,1.16.04,1.76.04.51.16,1.24.26,1.62.1.37.28.94.4,1.26s.36.87.54,1.22c.18.35.45.85.6,1.11.16.26.49.71.72,1.01.24.29.74.83,1.11,1.18.37.34.97.84,1.34,1.09.37.24,1.07.65,1.56.88.49.23,1.22.52,1.63.65.41.12.79.24.85.27.06.02.22.06.35.07l.25.03c.09-6.05.11-9.5.11-11.57s-.02-5.5-.04-7.6c-.04-3.45-.06-3.82-.16-3.82Z"/>
    <path class="cls-8" d="m163.79,323.75c0,.97.01,1.36.02.86.01-.5.01-1.29,0-1.76,0-.47-.02-.07-.02.9Z"/>
    <path class="cls-8" d="m163.79,340.17c0,.95.01,1.32.02.83.01-.5.01-1.27,0-1.72,0-.45-.02-.05-.02.9Z"/>
  </g>
  <text class="cls-7" transform="translate(149.37 635.81)"><tspan x="0" y="0">Miedo</tspan></text>
</svg>