<?xml version="1.0" encoding="UTF-8"?>
<svg id="Capa_2" data-name="Capa 2" xmlns="http://www.w3.org/2000/svg" xmlns:xlink="http://www.w3.org/1999/xlink" viewBox="0 0 472.03 749.74">
  <defs>
    <style>
      .cls-1, .cls-2, .cls-3 {
        fill: none;
      }

      .cls-2 {
        stroke: #1d1d1b;
      }

      .cls-2, .cls-3 {
        stroke-miterlimit: 10;
        stroke-width: 1.5px;
      }

      .cls-3 {
        stroke: #696961;
      }

      .cls-4 {
        fill: #fad6bd;
      }

      .cls-5 {
        fill: #010101;
      }

      .cls-6, .cls-7 {
        fill: #fff;
      }

      .cls-8 {
        fill: #331f1f;
      }

      .cls-9 {
        fill: #bb5150;
      }

      .cls-10 {
        fill: #bfbebf;
      }

      .cls-11 {
        fill: #c0c0bf;
      }

      .cls-12 {
        fill: #1e2b4f;
      }

      .cls-13 {
        fill: #404040;
      }

      .cls-14 {
        fill: #1d1d1b;
      }

      .cls-15 {
        fill: #3f3f3f;
      }

      .cls-16 {
        fill: #808181;
      }

      .cls-17 {
        fill: #7a5132;
      }

      .cls-18 {
        clip-path: url(#clippath-1);
      }

      .cls-7 {
        font-family: BigCaslon-Medium, 'Big Caslon';
        font-size: 51.08px;
        font-weight: 500;
      }
    </style>
    <clipPath id="clippath-1">
      <path class="cls-8" d="m209.46,244.22c-9.09-3.68.14,25.23,28.16,24.55,28.01-.67,52.57-6.03,57.95-12.27,5.38-6.23-11.65-36.17-54.42-18.34,0,0-19.24,11.1-31.68,6.05Z"/>
    </clipPath>
  </defs>
  <path class="cls-17" d="m312.05,458.48c8.31,13.62,15.12,28.45,22.43,42.61,7.33,14.21,14.61,28.46,21.52,42.88,5.89,12.3,14.85,26.32,16.13,40.09.79,8.51-1.68,16.94-2.67,25.42-.63,5.43-.66,10.94-.07,16.38.18,1.67.57,3.57,2.04,4.39.8.44,1.75.46,2.66.46,6.35.04,13.78-.45,17.34-5.72,1.79-2.66,2.16-6.01,2.4-9.21,1.28-17.05.6-34.25-2.02-51.15-1.77-11.38-6.69-22.53-11.37-33.09l-20.24-43.57-29.92-53.71-23.28-15.87-3.55,25.99s8.61,14.09,8.61,14.09Z"/>
  <path class="cls-17" d="m182.55,272.39s9.75,14.37,3.6,21.78l42.53,25.83,15.37,14.1,7.2-10.22,34.73-24.67s-8.7-5.18-.08-20.34c0,0-32.29,10.76-103.35-6.48Z"/>
  <path class="cls-17" d="m139.21,428.36c-4.89-3.75-9.97-6.99-14.97-10.55-4.81-3.42-8.9-7.56-13.9-10.8-.58-.38-1.07-.79-1.49-1.24-.54-.44-1.02-.95-1.41-1.52-.63-.37-1.27-.73-1.91-1.09-1.6-.62-3.07-1.54-4.35-2.83-.43-.43-.77-.91-1.07-1.41l-44.06,104.8-.19,3.39,2.06,2.71,2.91-1.48,6.93-14.69-2.14,10.68-1.73,9.57-.41,5.15,1.77,2.69,2.39.17,3.9-2.16,1.09-4.56,1.34-7.9,1.63-7.82.15-2.27-.79,13.17-.16,3.21.17,4.17-.42,5.57.31,1.94,2.21,1.99,3.69-.32,2.15-1.6.9-3.68-.13-5.2.3-7.39v-5.71l.34-4.88,1.13,8.28,1.05,7.55.86,6.06.62,4.12,1.12,2.78,3.28,1.15,2.44-.72,1.57-1.54.36-2.74-1.59-29.72.78-3.79.95-.38,2,4.65,2.79,6.64,1.02,5.57,4.08,3.37,2.32-.33h2.01l3.66-.49-.87-4.53-2.68-5.02-2.83-9.42-.74-8.98.75-3.75,1.93-4.73,4.44-6.23,19.91-30.01,4.83-7.7c-.11-.07-.22-.13-.32-.21Z"/>
  <path class="cls-17" d="m414.47,501.73l-7.01-17.12-12.65-25.69-16.16-33.9-8.85-18.93c-.65.71-1.34,1.39-2.05,2.05-.17.53-.41,1.07-.73,1.62-3.05,5.24-9.75,8.3-14.25,12.21-6.81,5.91-13.4,12.06-20.39,17.75-.67.55-2.11,2.4-2.11,2.4l25.91,34.61,2.55,4.85,1.45,6.39-2.32,9.66-6.69,14.4.4,1.73,2.44,1,5.24.3,3.69-.97,2.21-2.57,1.7-3.59,2.5-6.97,1.91-5.63,1.27-.68.46,4.18.19,5.11-1.76,23.69.77,3.7,3.15.49,2.8-.06,2.07-.67,1.34-2.55,1.34-8.4,1.08-7.08,1.5-9.67.43,21.73,1.09,4.07,2.64,1.85,3.98-.26,1.23-.75-.06-3.31.06-11.66.35-8.82,3.74,14.03,1.51,4.71,3.87,1.4,2.58-1.12.39-3.64-1.12-7.7-3.63-17.72,9.34,16.81,3.24,1.29,1.68-4.11-2.35-8.47Z"/>
  <polygon class="cls-17" points="369.74 546.83 368.9 545.18 369.61 545 369.74 546.83"/>
  <polygon class="cls-17" points="369.74 546.83 368.9 545.18 369.61 545 369.74 546.83"/>
  <polygon class="cls-17" points="372.6 509.46 368.48 501.48 372.22 492.45 374.04 500.12 372.6 509.46"/>
  <polygon class="cls-6" points="181.28 290.69 195.81 300.04 210.81 309.15 228.68 320 244.05 334.11 249.44 326.46 255.41 320.51 274.29 307.08 289.09 296.26 290.51 296.26 297.52 306.55 304.53 316.3 323.45 329.82 341 345.53 350.98 359.02 354.3 370.07 369.01 396.76 373.3 404.71 361.85 414.45 342.52 431.43 326.4 445.9 318.72 433.91 317.02 430.5 300.5 437.35 288.95 439.95 273.67 442.58 254.13 444.15 234.52 443.36 209.01 440.45 171.57 432.49 150.53 425.34 147.92 433.38 145.06 432.99 137.03 425.9 106.62 404.85 99.5 399.74 111.25 384.51 116.86 373.91 123.11 356.74 127.58 348.52 137.13 336.09 154.76 320.44 165.43 312.09 171.78 306.19 181.28 290.69"/>
  <g id="Background">
    <path id="Path_0" data-name="Path 0" class="cls-6" d="m151.69,361.08v30.87h61.73v-61.73h-61.73v30.87Z"/>
    <path id="Path_1" data-name="Path 1" class="cls-5" d="m171.67,344.84c-.17.19-.19.27-.19.79,0,.32.02.69.05.8.03.12.12.25.19.29.07.04.9.1,1.85.14.94.03,1.71.08,1.71.1s-.35.29-.79.61c-.44.32-1.13.91-1.56,1.31-.42.41-.97,1.02-1.23,1.36-.27.34-.66.89-.88,1.21-.22.33-.4.63-.4.66,0,.04-.08.19-.18.33s-.35.69-.57,1.2c-.22.51-.51,1.27-.64,1.7s-.31,1.17-.4,1.66c-.12.69-.15,1.23-.15,2.43,0,.85.02,1.68.05,1.85.02.17.12.66.2,1.08s.25,1.06.35,1.43c.12.36.35.99.52,1.39s.52,1.08.77,1.5.72,1.13,1.04,1.58.92,1.13,1.32,1.53c.4.39.75.72.77.71.02,0,.16.11.32.25.15.14.6.48,1,.76s.95.63,1.23.8c.28.16.85.46,1.27.66s1.12.48,1.54.61,1.21.32,1.76.43c.54.11,1.04.22,1.11.25.08.04,2.18.08,4.67.08l4.54.02v-2.31h-7.33v-25.12c4.4-.1,6.77-.11,8.1-.08,1.67.04,2.6.08,2.97.17.3.06.85.26,1.23.45.39.19.92.5,1.2.71.28.22.71.61.96.89s.6.75.78,1.03c.17.29.41.77.53,1.07.12.3.25.76.32,1.04s.11.92.11,1.43-.05,1.15-.11,1.43c-.06.28-.25.82-.41,1.2-.17.38-.47.96-.67,1.27-.2.32-.53.75-.73.95-.2.21-.57.52-.83.71-.25.19-.76.48-1.12.65-.36.17-.73.32-.81.34-.08,0-.19.05-.23.07-.04.03-.37.12-.73.2l-.66.15v1.99c1.24,2.21,2.22,3.93,2.97,5.25.76,1.32,1.71,3,2.12,3.74.41.74.85,1.46.97,1.58.22.23.24.23,1.03.23.59,0,.83-.03.93-.12.07-.06.13-.2.12-.31,0-.11-.2-.56-.44-1-.24-.45-1.31-2.34-2.38-4.21-1.06-1.87-2.21-3.86-2.53-4.42-.32-.56-.59-1.03-.59-1.06s.48-.28,1.06-.56c.59-.29,1.27-.66,1.53-.83s.69-.5.96-.76.62-.66.78-.9c.15-.23.45-.75.65-1.14.19-.39.46-.98.59-1.31.13-.32.32-.96.43-1.4.16-.67.2-1,.2-1.89,0-.83-.04-1.23-.16-1.74-.08-.36-.25-.92-.36-1.23-.12-.32-.33-.8-.48-1.08-.15-.28-.44-.73-.63-1s-.63-.78-.98-1.12c-.34-.34-.9-.81-1.23-1.04-.33-.23-.92-.56-1.3-.74s-.83-.36-1-.42-.36-.12-.42-.14c-.06-.02-.2-.05-.31-.06s-.37-.07-.58-.12c-.29-.07-3.22-.1-11.5-.12l-11.12-.03-.19.2Z"/>
    <path id="Path_2" data-name="Path 2" class="cls-12" d="m187.45,360.49c-.03.06-.04.59-.02,1.18l.02,1.07,2.35.04-.04-2.35c-2.07-.05-2.28-.03-2.31.06h0Z"/>
    <path id="Path_3" data-name="Path 3" class="cls-15" d="m187.84,346.86c.73.02,1.87.02,2.55,0,.68,0,.08-.02-1.31-.02s-1.96.02-1.23.02Z"/>
    <path id="Path_4" data-name="Path 4" class="cls-16" d="m173.68,344.62c.83.02,2.15.02,2.93,0,.79,0,.11-.02-1.5-.02s-2.25,0-1.43.02Zm9.34,0c1.04.02,2.76.02,3.82,0,1.06,0,.21-.02-1.89-.02s-2.97,0-1.93.02Z"/>
    <path id="Path_5" data-name="Path 5" class="cls-13" d="m178.85,344.62c.36.02.97.02,1.35,0,.38,0,.08-.02-.66-.02s-1.06.02-.69.02Z"/>
    <path id="Path_6" data-name="Path 6" class="cls-11" d="m189.58,344.62c.45.02,1.14.02,1.54,0,.4,0,.04-.02-.81-.02s-1.18.02-.73.02Z"/>
    <path id="Path_7" data-name="Path 7" class="cls-6" d="m180.28,347.31c-.38.1-1.01.3-1.39.45-.38.15-.97.41-1.31.59-.34.17-.77.4-.96.51-.19.11-.66.43-1.04.73-.38.29-.99.84-1.35,1.21-.36.38-.85.95-1.09,1.27-.23.32-.56.79-.71,1.04-.15.25-.39.73-.54,1.04s-.33.72-.4.89c-.08.17-.15.34-.15.39-.02.05-.12.41-.22.81-.12.4-.22.84-.25.96s-.05.34-.07.46-.05.63-.08,1.12c-.03.56-.02,1.25.05,1.89.05.55.18,1.33.28,1.74.11.4.3,1.01.43,1.35.13.34.39.93.59,1.31s.49.92.66,1.2c.18.28.53.76.79,1.08.26.32.8.89,1.2,1.27.4.37,1.06.9,1.46,1.17.4.26,1.17.69,1.7.95.53.25,1.33.56,1.77.7.45.13.86.26.93.29s.24.06.39.08l.27.03c.09-6.5.12-10.2.12-12.43s-.02-5.9-.05-8.16c-.05-3.7-.06-4.11-.18-4.11-.07,0-.44.09-.82.19h0Z"/>
    <path id="Path_8" data-name="Path 8" class="cls-10" d="m181.27,350.59c0,1.04.02,1.46.02.93.02-.53.02-1.38,0-1.89,0-.51-.02-.08-.02.96Zm0,17.63c0,1.02.02,1.42.02.89.02-.53.02-1.37,0-1.85,0-.49-.02-.05-.02.96Z"/>
  </g>
  <path class="cls-17" d="m420.62,169c0,35.17-11.48,64.73-36.08,64.73s-27.7-7.32-27.7-7.32c-10.75,18.64-25.84,32.31-47.08,43.01-32.92,16.59-66.54,16.12-74.28,15.87-11.14-.37-56.96-1.89-88.07-28.77-5.24-4.51-10.06-9.76-14.22-15.84-3.64-5.31-6-10.12-7.43-13.37,0,.66-.6,6.42-21.68,6.42-22.34,0-32.77-29.57-32.77-64.73s40.52-26.23,40.52-26.23C115.32-39.72,311.64,11.42,316.04,16.69c4.39,5.27,43.92-16.69,43.92-16.69,0,4.1-15.82,22.56-15.82,22.56,22.84.28,22.23,26.63,22.23,26.63-6.45-16.06-19.4-6.99-19.4-6.99,13.56,22.75,23.52,47.77,27.74,73.98,1.56,9.73,2.32,19.57,2.26,29.39,6.48-1.5,43.65-8.68,43.65,23.43Z"/>
  <path class="cls-17" d="m316.28,596.36c-.91,1.45-1.86,2.92-2.89,4.31-3.17-.34-6.81,1.11-8.44,4.31-3.82-2.5-9.96-1.83-11.63,3.88.42-1.39.24-.39-1.21.15-1.17.43-2.43.61-3.65.76-5.06.58-10.13.31-15.21,1.05-1.9.28-3.37,1.56-4.3,3.19l-1.12-1.93-3.94-9.36-12.02-6.35.54-15.69-1.39-46.08.88-52.76c-9.16,1.98-23.91,3.5-34.18,1.03l.28,1.95-2.78,30.58-5.07,55.48-1.39,27.68c-.4.88-.63,1.87-.63,2.93v7.35l-1.41,2.93-5.64,2.71c-5.54-.33-11.03,1-15.87,3.61l-.16-.42-.18.61c-2.28,1.27-4.42,2.83-6.32,4.66-2.11.15-4.21.3-6.29.45-.33.03-.66.06-1,.09-7.9-6.71-14.57-15.03-24.15-19.79,1.17-1.8,2.22-3.56,3.14-5.4.33.04.66.06.99.04,1.87-.07,3.59-.7,5-1.95.06-.04.12-.07.19-.12.64-.25,1.24-.57,1.75-1.05.82-.52,1.47-1.23,1.93-2.1.54-.85.84-1.77.88-2.75,1.45-1.62,2.2-3.88,1.5-6.65-3.19-12.61-5.22-26.06-6.69-39.34l-.18-8.38-1-46.96-1.23-62.14.78-1.02,18.65,6.14,14.73,3.76,11.18,2.37,31.23,4.43,10.82,1.11,17.68-.58,10.79-.48,15.55-1.29,15.42-3.4,11.54-4.61c-.01.1-.01.21-.01.33.03,2.16.13,4.33.28,6.47-.03.22-.04.46-.06.69-.42,13.86.66,27.83.52,41.74-.3,31.05-2.87,62.08-7.71,92.74-.88,5.6-2.5,11.75,3.07,15.14,2.02,2.65,5.24,4.72,8.41,5.93Z"/>
  <path class="cls-4" d="m146.17,254.64c-5.58-21.96-10.3-44.28-11.7-66.94-2-32.35,2.42-69.03,27.2-92.17,4.35-4.06,9.09-7.74,14.38-10.45,11.06-5.69,24.37-6.87,36.26-3.23,6.75,2.07,13,5.68,18.23,10.41,2.7,2.44,5.12,5.17,7.21,8.14.96,1.37,2.07,3.81,3.99,2.9,1.34-.63,2.62-4.04,3.51-5.27,2.5-3.45,5.52-6.5,8.88-9.12,6.88-5.36,15.18-8.88,23.77-10.29,14.93-2.45,30.41,1.05,43.97,7.77,4.98,2.47,9.79,5.4,13.79,9.27,3,2.9,5.49,6.28,7.67,9.83,8.57,13.97,12.19,30.44,13.64,46.77,1.38,15.5.89,31.16-1.39,46.55-2.2,14.81-6.65,28.95-10.91,43.2l-.16,1.06-6.38,6.26-2.36,2.68-5.79,4.92-3.45,2.35-3.06,2.26-4.81,2.53-5.95,3.82-7.09,3.35-10.29,4.16-10.22,3.57-12.33,3.08-12.3,1.86-15.27,1.19-13.41.26-14.79-1.15-16.2-2.67-12.67-3.31-15.79-5.68-10.25-5.42-13.75-9.03-2.19-3.45Z"/>
  <path class="cls-4" d="m70.23,470.35c-.12.26,0,.87,0,1.17,1.82.25,4.3-.33,5.89.69.4.26.75.61,1.17.82,1.51.75,3.53-.44,4.96.46.38.24.66.61.99.92,1.47,1.41,3.96,1.6,5.64.44,1.71,1.64,4.17,2.49,6.53,2.24,0,.52,0,1.04,0,1.56,1.87-.16,3.69-.76,5.28-1.75-.17.1,3.64,1.61,4.23,1.58,1.38-.05,2.43-.82,3.66-1.41l-.92,4.43.7,6.53,1.44,6,1.57,4.57,2.21,5.35,1.41,3.22v2.11l-2.98.53-4.19.64-3.93-1.71-1.27-3.09-3.58-9.15-1.46-5.3-.66-1.33-1.08,1.72-.38,5.63.59,10.27.32,6.11.23,5.03.16,5.28-.36,2.74-2.23,1.73h-4.26l-1.82-2.83-.69-4.93-1.99-13.65-.66-2.78-.63,6.23-.08,5.44-.1,3.71-.26,4.35-2.07,3.08-2.82.62-2.55-.21-1.66-3.12.08-6.18v-5.7l.13-7.69-1.39,6.55-1.49,8.3-4.25,2.86-2.39-.17-1.77-2.69v-4.12l.82-5.3,1.59-7.03.82-3.77-1.75.71-1.88,3.97-2.76,5.28-2.42,1.01-2.22-.98-.86-3.55.74-4.81s14.49-30.3,14.67-30.68Z"/>
  <path class="cls-4" d="m358.94,493.83c-.26,1.18-.6,2.34-1.02,3.47-.81,2.17-1.91,4.23-2.76,6.38-.64,1.61-1.14,3.27-1.98,4.78-.93,1.67-2.31,3.51-1.58,5.27,2.41.89,4.98,1.52,7.54,1.26,2.56-.26,5.11-1.52,6.44-3.71.49-.81.8-1.71,1.11-2.6,1.62-4.69,3.23-9.39,4.89-14.06,1.73,1.62,1.4,3.85,1.46,6.15.07,3.03-.05,6.05-.24,9.07-.38,5.96-1.03,11.91-1.04,17.89,0,1.53.11,3.23,1.21,4.29.54.52,1.27.82,2,1,1.94.48,4.26.13,5.47-1.47.74-.97.95-2.23,1.14-3.43,1.21-7.53,2.47-15.05,3.63-22.59-.17,1.09.22,2.65.25,3.8.05,1.7.1,3.41.15,5.11.1,3.41.2,6.81.3,10.22.08,2.54.38,5.49,2.53,6.84.79.49,1.73.69,2.65.76,1.4.1,2.94-.12,3.93-1.12,1.18-1.19,1.22-3.06,1.17-4.74-.17-6.34-.69-12.66-.8-18.99.04,2.03.99,4.39,1.43,6.38.61,2.71,1.21,5.43,1.82,8.14.26,1.17.55,2.4,1.36,3.29.89.98,2.26,1.37,3.58,1.58,1.4.22,3.06.19,3.94-.93.67-.84.64-2.03.56-3.1-.3-3.97-.95-7.9-1.77-11.79-.78-3.67-2.48-7.7-2.7-11.41.03.58,1.43,1.98,1.77,2.54.59.97,1.12,1.96,1.64,2.96,1.1,2.11,2.15,4.24,3.23,6.36.4.8.82,1.62,1.47,2.23,1.17,1.11,3.06,1.38,4.49.64.2-.1.39-.23.54-.4.16-.19.25-.43.33-.66,1.03-2.98.03-5.18-.95-8.01-1.1-3.18-2.29-6.33-3.57-9.43l-5.35-11.76-2.12-4.48-.97-1.77-2.04-.07-1.14,1.31-3.14.7-1.95-.44-1.89,1.05h-2.44l-2.71-.7v1.68s-1.92,1.38-1.92,1.38l-2.71-1.38-2.46-.37-1.21,1.92-2.01.17-2.44-.52-.96,1.14-1.83.7-2.51-.57-.81-.57-.79.96-2.36.65h-2.53l-1.66-.21h-1.04c-.65,0-1.33-.09-1.98-.16-.43,1.85.04,3.95-.12,5.87-.1,1.18-.27,2.35-.52,3.5Z"/>
  <path class="cls-4" d="m155.85,629.54c-1.01,0-2.06.08-3.06,0-1.51-.12-2.84-.9-4.26-1.49-.16-.07-.32-.13-.43-.26-.12-.13-.17-.31-.21-.47-.28-1.01-.95-2.39-.96-3.43,0-1.12.72-2.55,1.01-3.64-1.85-1.04-3.14-3.03-3.34-5.15-.2-2.12.69-4.31,2.31-5.69-2.41-1.46-3.23-4.5-3.85-7.24-.12-.55-.25-1.13-.12-1.68.35-1.51,2.23-1.95,3.75-2.3,6.58-1.5,11.8-6.34,16.68-11,.95,2.06,2.22,4.37,4.45,4.8-.51.66-.5,1.67.03,2.31,1.33-.68,2.83.5,3.8,1.63.98,1.13,2.29,2.43,3.72,1.99.4,1.12.79,2.24,1.19,3.35,1.28-.35,2.62.31,3.63,1.16s1.87,1.9,3.01,2.57c1.09.64,2.35.88,3.59,1.12,2.68.51,5.36,1.02,8.04,1.53,1.22.23,2.72.35,3.44-.65,2.24,1.23,4.78,1.91,7.33,1.97.1-.54.21-1.08.31-1.62.94-.15,1.85.58,2.22,1.45s.34,1.87.3,2.82c-.17,4.27-.34,8.54-.51,12.82-.07,1.82-.28,3.91-1.77,4.96-1.78,1.25-4.25.26-6.01-1.01-3.43-2.47-6.12-5.95-7.66-9.89-1.93,3.89-5.15,7.04-8.81,9.39-3.66,2.35-7.74,3.94-11.89,5.26-2.6.82-5.23,1.54-7.87,2.25-2.06.55-6.47,1.72-7.86-.66-.46-.79-.53-1.76-.46-2.67.16-2.17,1.1-6.92,3.39-7.74,3.22-1.15,6.43-2.3,9.65-3.46"/>
  <path class="cls-4" d="m306.41,589.76c.11-.09,8.16,4.38,8.89,4.79,1.22.69,2.46,1.39,3.5,2.33s1.88,2.17,2.1,3.56c.12.75.06,1.53-.19,2.25-.43,1.26-1.46,2.34-2.75,2.66-.83.21-1.71.09-2.55-.04-1.98-.32-4.05-1.1-6-1.26.74.06,2.6,1.93,3.15,2.39,1.27,1.06,2.44,2.24,3.47,3.54.89,1.11,1.71,2.43,1.58,3.85-.06.67-.35,1.32-.8,1.82-1.16,1.28-3.09,1.39-4.81,1.41-.81,0-1.64.02-2.41-.24-.49-.16-.94-.42-1.39-.68-1.94-1.12-3.86-2.45-5.91-3.35.26.73.53,1.48.8,2.21.53,1.46,1.53,3.01,1.12,4.61-.24.93-.81,1.75-1.5,2.41-.15.14-.31.28-.5.34-.18.05-.37.03-.55.01-2.08-.23-4.18-.41-6.25-.75-.02,0,.07,2.37-.01,2.59-.52,1.38-2.92,2.89-4.18,3.53-1.46.74-3.16,1.1-4.77.75-2.05-.44-3.72-1.94-4.96-3.63-.99-1.35-1.9-4.74-3.89-4.74l-3.94.48c-2.65.33-5.54.18-8.16-.22-.59-.09-1.19-.2-1.7-.52-.48-.3-.83-.75-1.17-1.2-2.46-3.3-4.37-6.97-6.04-10.73-.86-1.94-1.65-3.9-2.43-5.87-.28-.72-1.93-3.19-1.76-3.89.14-.59-.69-1.24-.54-1.82,3.12,1.01,6.99,2.32,10.01.05,1.28,1.05,2.75,1.98,4.39,2.11s3.47-.76,3.92-2.35c.95.38,1.92.76,2.94.86s2.12-.13,2.86-.83c1.44.77,3,1.52,4.62,1.34s3.18-1.74,2.75-3.31c1.88,1.12,3.88,2.03,5.96,2.71.34-.49.68-.99,1.02-1.48,2.18.26,4.39.24,6.56-.05.18-.41.36-.81.54-1.22.08-.18,3.24-.4,3.64-.49,1.18-.25,2.68-.51,3.7-1.19,1-.67,1.23-1.72,1.66-2.79Z"/>
  <line class="cls-3" x1="251.31" y1="323.86" x2="284.11" y2="300.54"/>
  <path class="cls-2" d="m125.41,227.29v-.03"/>
  <line class="cls-2" x1="222.02" y1="194.84" x2="227.55" y2="193.26"/>
  <line class="cls-2" x1="247.68" y1="191.87" x2="252.42" y2="194.05"/>
  <g>
    <path class="cls-1" d="m114.21,365.75c-14.66,31.88-26.89,64.23-42.12,95.93,0,0-17,37.38-17.26,43.63-.26,6.24,5.36,5.35,7.01,1.53,1.66-3.82,6.38-14.14,6.38-14.14,0,0-5.1,21.27-4.72,26.37s7.78,2.55,8.42,0c.64-2.55,3.95-23.18,3.95-23.18,0,0-1.53,22.16-1.28,27.89.26,5.73,8.42,3.95,9.05,0,.64-3.95.51-26.75.51-26.75,0,0,3.06,22.67,3.95,28.02s8.42,3.57,8.67,0-1.28-28.4-1.28-28.4c0,0,.13-7.01,1.02-7.64s4.59,17.96,8.29,20,10.7.78,10.71-.89c.01-1.64-13.61-24.17-4.54-36.48,18.51-25.11,33.85-52.21,51.59-79.36l3.42,159.09s-11.2,11.17-17.67,11.52c-6.47.35-2.1,11.35,1.22,11,3.32-.35,10.84-1.75,10.84-1.75"/>
    <path class="cls-3" d="m171.17,307.5c-10.74,8.79-22.22,16.77-32.09,26.6-4.78,4.76-9.15,9.98-12.63,15.78-3.13,5.24-4.97,11.06-6.74,16.87-1.35,4.43-3.46,8.52-5.67,12.58-1.24,2.27-2.5,4.54-3.64,6.86"/>
    <path class="cls-3" d="m303.45,315.53c21.79,15.56,45.7,29.76,51.22,56.13"/>
    <path class="cls-3" d="m284.11,300.54l6.01-4.27,14.41,20.04s-3.63,2.17-13.87,4.6c-10.24,2.43-29.38,24.79-29.38,22.64s-9.97-19.67-9.97-19.67l-7.26,10.24,1.6,9.43"/>
    <polyline class="cls-3" points="244.05 334.11 228.72 319.97 229.8 343.69 215.28 337.48 205.32 330.76 176.29 309.53 170.44 308.38 181.28 290.69 228.72 319.97"/>
    <line class="cls-3" x1="147.59" y1="434.27" x2="150.93" y2="425.34"/>
    <path class="cls-3" d="m150.93,348.52s.34,61.54-12.17,67.63c-12.51,6.09,117,50.38,182.94,12.17,0,0,4.4-4.78-1.69-10.5"/>
    <path class="cls-3" d="m314.6,422.8s16.14.88-4.63-57.06"/>
    <polyline class="cls-3" points="318.26 432.58 325.97 445.9 373.3 404.41 354.49 370.88"/>
    <path class="cls-3" d="m110.8,385.74c-4.55,3.94-8.04,8.86-11.3,13.88l48.09,34.65"/>
  </g>
  <path class="cls-17" d="m330.31,443.06l-2.12,1.32,2.12-1.32Z"/>
  <g>
    <path class="cls-8" d="m209.46,244.22c-9.09-3.68.14,25.23,28.16,24.55,28.01-.67,52.57-6.03,57.95-12.27,5.38-6.23-11.65-36.17-54.42-18.34,0,0-19.24,11.1-31.68,6.05Z"/>
    <g class="cls-18">
      <path class="cls-6" d="m234.08,243.13s31.24-.25,32.12-1.26c.66-.76,4.35,3.02,6.16,4.96.56.6,1.5.64,2.11.09l5.85-5.23c.23-.21.53-.34.84-.38l6.41-.73c.85-.1,1.45-.88,1.32-1.73l-1-6.52c-.1-.63-.57-1.13-1.19-1.25l-27.98-5.74c-.3-.06-.61-.03-.9.09l-19.97,8.53c-.16.07-.31.17-.44.28l-5.78,5.39c-.77.72-.59,1.99.35,2.46l2.08,1.04"/>
      <path class="cls-9" d="m257.44,268.2s6.19-18.02,38.25-21.32c32.06-3.3-12.24,20.64-12.24,20.64l-26,.69"/>
    </g>
  </g>
  <ellipse class="cls-6" cx="186.14" cy="169.82" rx="33.69" ry="27.14"/>
  <ellipse class="cls-14" cx="187.31" cy="164.02" rx="28.73" ry="23.47"/>
  <ellipse class="cls-6" cx="294.73" cy="167.7" rx="33.69" ry="27.14"/>
  <ellipse class="cls-14" cx="294.73" cy="163.01" rx="28.73" ry="23.47"/>
  <path class="cls-17" d="m255.42,129.74s-6.36,34.2,82.32,20.28c0,0-21.96-22.27-33.45-22.27s-41.31,5.17-48.87,1.99Z"/>
  <path class="cls-17" d="m221.73,131.87s6.06,34.2-78.45,20.28c0,0,20.92-22.27,31.87-22.27s39.37,5.17,46.57,1.99Z"/>
  <text class="cls-7" transform="translate(184.2 715.19)"><tspan x="0" y="0">Asco</tspan></text>
</svg>