<?xml version="1.0" encoding="UTF-8"?>
<svg id="Capa_1" data-name="Capa 1" xmlns="http://www.w3.org/2000/svg" viewBox="0 0 457.69 752.42">
  <defs>
    <style>
      .cls-1, .cls-2, .cls-3 {
        fill: none;
      }

      .cls-4 {
        fill: #fad6bd;
      }

      .cls-5 {
        fill: #010101;
      }

      .cls-6, .cls-7 {
        fill: #fff;
      }

      .cls-8 {
        fill: #fcc658;
      }

      .cls-9 {
        fill: #bfbebf;
      }

      .cls-10 {
        fill: #c0c0bf;
      }

      .cls-11 {
        fill: #1e2b4f;
      }

      .cls-12 {
        fill: #404040;
      }

      .cls-13 {
        fill: #1d1d1b;
      }

      .cls-14 {
        fill: #3f3f3f;
      }

      .cls-15 {
        fill: #808181;
      }

      .cls-16 {
        fill: #7a5132;
      }

      .cls-17 {
        fill: #512c2c;
      }

      .cls-7 {
        font-family: BigCaslon-Medium, 'Big Caslon';
        font-size: 49.53px;
        font-weight: 500;
      }

      .cls-2 {
        stroke: #1d1d1b;
      }

      .cls-2, .cls-3 {
        stroke-miterlimit: 10;
        stroke-width: 1.36px;
      }

      .cls-3 {
        stroke: #696961;
      }

      .cls-18 {
        fill: #683c11;
        opacity: .65;
      }
    </style>
  </defs>
  <path class="cls-16" d="m177.04,306.31s9.74,14.36,3.59,21.76l42.48,25.8,15.35,14.08,7.19-10.21,34.69-24.64s-8.69-5.17-.08-20.32c0,0-32.25,10.75-103.23-6.47Z"/>
  <path class="cls-6" d="m314.74,440.34l-.58,10.2,2.16,3.24,1.22,4.45-1.17,4.04-6.78,3.15-15.02,6.24-15.4,3.39-10.51,1.18-39.66.53-19.92-2.64-8.74-1.24-21.73-3.81-31.57-9.45-2.05-.68-.57,2.3-1.22,2.69-1.2,3.39-.8.17-5.28-3.96-9.69-7.43-10.31-7.28-12.62-8.73-9.22-7.4,5.79-7.57,4.66-4.75,2.37-4.12,5-10.3,2.62-7.55,2.8-8.14s2.85-6.51,3.57-7.33c.72-.81,2.23-4.21,3.17-4.69s4.39-5.62,4.39-5.62l5.29-5.25,9.59-8.77,7.42-5.97,6.56-5.16,5.11-4.03,2.22-1.81,1.85-1.91,2.99-5.78,5.65-8.91.95-.9,3.98,2.71,6.87,4.63,11.67,6.81,11.4,7.06,11.71,7.19,6.98,5.79,9.26,8.64.51.32,2.93-4.3,5.16-6.29,4.07-2.86.52.03,16.63,26.51,12.16,19.42,10.96,17.51,4.68,7.9,3.08,4.59,3.09,3.41s7.62,5.75,13.01,7.13c5.39,1.38,0,0,0,0"/>
  <g id="Background">
    <path id="Path_0" data-name="Path 0" class="cls-6" d="m146.21,394.89v30.83h61.66v-61.66h-61.66v30.83Z"/>
    <path id="Path_1" data-name="Path 1" class="cls-5" d="m166.17,378.67c-.17.18-.19.27-.18.79,0,.32.02.69.05.8.03.12.12.25.19.29.07.04.9.1,1.85.14.94.03,1.71.08,1.71.1s-.35.29-.79.61c-.44.32-1.13.91-1.56,1.31-.42.41-.97,1.02-1.23,1.36-.27.34-.66.89-.88,1.21-.22.33-.4.62-.4.66,0,.04-.08.18-.18.33s-.35.69-.57,1.19c-.22.51-.51,1.27-.64,1.7s-.31,1.17-.4,1.66c-.12.69-.15,1.23-.15,2.43,0,.85.02,1.68.05,1.85.02.17.12.66.2,1.08s.25,1.06.35,1.43c.12.36.35.99.52,1.39s.52,1.08.77,1.5.72,1.13,1.04,1.58c.32.45.92,1.13,1.32,1.53.4.39.75.72.77.71.02,0,.16.11.32.25.15.14.6.48,1,.76s.95.63,1.23.8c.28.16.85.46,1.27.66s1.12.48,1.54.61,1.21.32,1.76.43c.54.11,1.04.22,1.11.25.08.04,2.17.08,4.66.08l4.53.02v-2.31h-7.32v-25.09c4.39-.1,6.76-.11,8.09-.08,1.67.04,2.6.08,2.97.17.3.06.85.26,1.23.45.39.18.92.5,1.19.71.28.22.71.61.96.89s.6.75.78,1.03c.17.29.41.77.53,1.07.12.3.25.76.32,1.04s.11.92.11,1.43-.05,1.15-.11,1.43c-.06.28-.25.82-.41,1.19-.17.38-.47.96-.67,1.27-.2.32-.53.75-.72.95-.2.21-.57.52-.82.71-.25.18-.76.48-1.12.65-.36.17-.72.32-.81.34-.08,0-.19.05-.23.07-.04.03-.37.12-.73.2l-.66.15v1.99c1.24,2.21,2.22,3.92,2.97,5.24.76,1.32,1.7,3,2.12,3.74.41.74.85,1.46.97,1.58.22.23.24.23,1.03.23.59,0,.82-.03.92-.12.07-.06.13-.2.12-.31,0-.11-.2-.55-.44-1-.24-.45-1.31-2.34-2.38-4.2-1.06-1.87-2.2-3.85-2.53-4.42-.32-.55-.59-1.03-.59-1.06s.48-.28,1.06-.56c.59-.29,1.27-.66,1.53-.82s.69-.5.96-.76.62-.66.78-.89c.15-.23.45-.75.65-1.14.19-.39.46-.98.59-1.31.13-.32.32-.96.43-1.4.16-.67.2-.99.2-1.89,0-.83-.04-1.23-.16-1.73-.08-.36-.25-.92-.36-1.23-.12-.32-.33-.8-.48-1.08-.15-.28-.44-.72-.63-1s-.63-.78-.98-1.12c-.34-.34-.89-.81-1.23-1.04-.33-.23-.92-.56-1.3-.74s-.83-.36-1-.42-.36-.12-.42-.14c-.06-.02-.2-.05-.31-.06s-.37-.07-.58-.12c-.29-.07-3.21-.1-11.48-.12l-11.11-.03-.18.2Z"/>
    <path id="Path_2" data-name="Path 2" class="cls-11" d="m181.93,394.3c-.03.06-.04.59-.02,1.18l.02,1.07,2.35.04-.04-2.35c-2.07-.05-2.27-.03-2.31.06h0Z"/>
    <path id="Path_3" data-name="Path 3" class="cls-14" d="m182.32,380.69c.72.02,1.87.02,2.54,0,.68,0,.08-.02-1.31-.02s-1.96.02-1.23.02Z"/>
    <path id="Path_4" data-name="Path 4" class="cls-15" d="m168.17,378.45c.82.02,2.14.02,2.93,0,.79,0,.11-.02-1.5-.02s-2.25,0-1.43.02Zm9.33,0c1.04.02,2.76.02,3.82,0,1.06,0,.21-.02-1.89-.02s-2.97,0-1.93.02Z"/>
    <path id="Path_5" data-name="Path 5" class="cls-12" d="m173.34,378.45c.36.02.97.02,1.35,0,.38,0,.08-.02-.66-.02s-1.06.02-.69.02Z"/>
    <path id="Path_6" data-name="Path 6" class="cls-10" d="m184.05,378.45c.45.02,1.14.02,1.54,0,.4,0,.04-.02-.81-.02s-1.18.02-.73.02Z"/>
    <path id="Path_7" data-name="Path 7" class="cls-6" d="m174.76,381.13c-.38.1-1.01.3-1.39.45-.38.15-.97.41-1.31.59-.34.17-.77.4-.96.51-.19.11-.66.43-1.04.72-.38.29-.99.84-1.35,1.21-.36.38-.85.95-1.09,1.26-.23.32-.55.79-.71,1.04-.15.25-.39.72-.54,1.04s-.33.72-.4.89c-.08.17-.15.34-.15.39-.02.05-.12.41-.22.81-.12.4-.22.84-.25.96s-.05.34-.07.46-.05.63-.08,1.12c-.03.56-.02,1.25.05,1.89.05.55.18,1.33.28,1.73.11.4.3,1.01.43,1.35.13.34.39.93.59,1.31s.49.92.66,1.19c.18.28.53.76.79,1.08.26.32.8.89,1.2,1.26.4.37,1.06.9,1.46,1.17.4.26,1.16.69,1.7.95.53.25,1.33.56,1.77.7.45.13.86.26.92.29s.24.06.39.08l.27.03c.09-6.49.12-10.19.12-12.42s-.02-5.9-.05-8.15c-.05-3.7-.06-4.1-.18-4.1-.07,0-.44.09-.82.19h0Z"/>
    <path id="Path_8" data-name="Path 8" class="cls-9" d="m175.76,384.41c0,1.04.02,1.46.02.92.02-.53.02-1.38,0-1.89,0-.51-.02-.08-.02.96Zm0,17.61c0,1.02.02,1.42.02.89.02-.53.02-1.36,0-1.85,0-.49-.02-.05-.02.96Z"/>
  </g>
  <path class="cls-16" d="m133.74,462.08c-4.88-3.74-9.95-6.98-14.95-10.54-4.8-3.42-8.89-7.55-13.88-10.78-.58-.37-1.07-.79-1.49-1.24-.54-.44-1.02-.95-1.41-1.52-.63-.37-1.27-.72-1.91-1.08-1.6-.62-3.07-1.53-4.35-2.82-.43-.43-.77-.91-1.06-1.41l-44.01,104.68-.19,3.38,2.06,2.71,2.91-1.47,6.93-14.67-2.13,10.67-1.73,9.56-.41,5.14,1.77,2.68,2.39.17,3.89-2.16,1.09-4.56,1.34-7.89,1.63-7.81.15-2.27-.79,13.15-.16,3.21.17,4.16-.42,5.56.31,1.94,2.21,1.99,3.68-.32,2.15-1.6.89-3.68-.13-5.19.3-7.38v-5.7l.34-4.87,1.13,8.27,1.05,7.54.86,6.05.62,4.11,1.12,2.78,3.28,1.15,2.44-.72,1.57-1.54.36-2.74-1.59-29.68.78-3.79.95-.38,2,4.65,2.78,6.63,1.02,5.56,4.07,3.37,2.32-.33h2.01l3.65-.49-.87-4.52-2.67-5.01-2.82-9.41-.74-8.97.74-3.74,1.93-4.72,4.43-6.22,19.89-29.97,4.82-7.69c-.11-.07-.22-.13-.32-.21Z"/>
  <polygon class="cls-16" points="371.79 609.04 370.96 607.39 371.66 607.21 371.79 609.04"/>
  <polygon class="cls-16" points="371.79 609.04 370.96 607.39 371.66 607.21 371.79 609.04"/>
  <path class="cls-16" d="m414.82,203.04c0,35.12-11.47,64.65-36.03,64.65s-27.66-7.31-27.66-7.31c-10.74,18.62-25.81,32.27-47.02,42.96-32.88,16.57-66.46,16.1-74.19,15.85-11.12-.37-56.89-1.88-87.96-28.74-5.23-4.5-10.05-9.75-14.2-15.82-3.63-5.31-6-10.11-7.42-13.35,0,.66-.6,6.41-21.65,6.41-22.31,0-32.73-29.53-32.73-64.65s40.48-26.2,40.48-26.2C109.88-5.42,305.96,45.65,310.36,50.92c4.38,5.26,43.87-16.67,43.87-16.67,0,4.1-15.8,22.53-15.8,22.53,22.82.28,22.2,26.6,22.2,26.6-6.44-16.04-19.38-6.98-19.38-6.98,13.55,22.73,23.49,47.71,27.71,73.89,1.56,9.72,2.32,19.54,2.26,29.35,6.47-1.5,43.6-8.67,43.6,23.4Z"/>
  <path class="cls-16" d="m310.6,629.89c-.91,1.45-1.85,2.92-2.89,4.31-3.17-.34-6.8,1.11-8.43,4.31-3.81-2.5-9.94-1.82-11.62,3.87.42-1.39.24-.39-1.21.15-1.17.43-2.42.61-3.65.76-5.05.58-10.12.31-15.19,1.05-1.9.28-3.36,1.56-4.29,3.18l-1.12-1.93-3.93-9.35-12.01-6.34.54-15.67-1.39-46.02.88-52.69c-9.15,1.97-23.88,3.5-34.14,1.03l.28,1.94-2.78,30.55-5.07,55.41-1.39,27.65c-.4.88-.63,1.87-.63,2.93v7.34l-1.41,2.93-5.64,2.71c-5.53-.33-11.02,1-15.85,3.6l-.16-.42-.18.61c-2.27,1.27-4.41,2.83-6.31,4.65-2.11.15-4.2.3-6.28.45-.33.03-.66.06-1,.09-7.89-6.7-14.55-15.01-24.12-19.77,1.17-1.79,2.21-3.56,3.14-5.4.33.04.66.06.99.04,1.87-.07,3.59-.7,4.99-1.94.06-.04.12-.07.19-.12.64-.25,1.24-.57,1.75-1.05.82-.52,1.47-1.23,1.93-2.09.54-.85.84-1.76.88-2.75,1.45-1.61,2.2-3.87,1.5-6.64-3.18-12.59-5.22-26.03-6.68-39.29l-.18-8.37-1-46.91-1.23-62.07.78-1.02,18.63,6.13,14.71,3.75,11.17,2.36,31.19,4.43,10.81,1.11,17.66-.58,10.78-.48,15.54-1.29,15.4-3.39,11.53-4.61c-.01.1-.01.21-.01.33.03,2.15.13,4.32.28,6.46-.03.22-.04.46-.06.69-.42,13.85.66,27.8.52,41.69-.3,31.01-2.87,62.01-7.7,92.63-.88,5.59-2.5,11.74,3.07,15.12,2.02,2.65,5.23,4.71,8.4,5.92Z"/>
  <path class="cls-4" d="m140.7,288.58c-5.57-21.93-10.28-44.22-11.68-66.86-2-32.31,2.42-68.95,27.17-92.06,4.34-4.05,9.08-7.73,14.36-10.44,11.05-5.68,24.34-6.87,36.22-3.22,6.74,2.07,12.98,5.68,18.21,10.4,2.69,2.43,5.12,5.16,7.2,8.13.96,1.37,2.07,3.8,3.99,2.9,1.34-.63,2.62-4.04,3.51-5.26,2.5-3.44,5.51-6.5,8.87-9.11,6.87-5.35,15.16-8.87,23.75-10.28,14.91-2.45,30.38,1.05,43.91,7.76,4.98,2.47,9.78,5.39,13.78,9.25,2.99,2.89,5.49,6.27,7.66,9.82,8.56,13.95,12.17,30.41,13.62,46.71,1.37,15.48.89,31.12-1.39,46.5s-6.65,28.91-10.89,43.15l-.16,1.06-6.37,6.25-2.36,2.67-5.78,4.92-3.44,2.35-3.06,2.26-4.81,2.53-5.94,3.82-7.08,3.34-10.28,4.16-10.2,3.56-12.32,3.08-12.28,1.86-15.25,1.19-13.4.26-14.77-1.15-16.18-2.67-12.65-3.3-15.77-5.68-10.24-5.42-13.73-9.02-2.19-3.45Z"/>
  <path class="cls-4" d="m64.85,504.02c-.12.25,0,.87,0,1.17,1.82.25,4.3-.33,5.89.69.4.26.74.61,1.17.82,1.51.75,3.53-.44,4.95.46.38.24.66.6.99.92,1.47,1.41,3.96,1.6,5.63.44,1.71,1.64,4.16,2.48,6.52,2.24,0,.52,0,1.04,0,1.56,1.86-.16,3.69-.76,5.28-1.75-.17.1,3.63,1.6,4.22,1.58,1.38-.05,2.43-.82,3.65-1.41l-.92,4.43.7,6.52,1.44,6,1.57,4.57,2.21,5.35,1.41,3.22v2.11l-2.97.53-4.19.64-3.93-1.7-1.27-3.09-3.57-9.14-1.46-5.3-.66-1.32-1.08,1.72-.38,5.63.59,10.26.32,6.1.23,5.03.16,5.27-.36,2.74-2.23,1.73h-4.26l-1.82-2.83-.69-4.93-1.99-13.64-.66-2.78-.63,6.22-.08,5.43-.1,3.71-.26,4.35-2.07,3.07-2.81.62-2.55-.21-1.66-3.11.08-6.17v-5.69l.13-7.68-1.39,6.54-1.49,8.29-4.25,2.85-2.39-.17-1.77-2.68v-4.11l.82-5.3,1.59-7.02.82-3.76-1.75.71-1.87,3.97-2.76,5.27-2.42,1.01-2.22-.98-.86-3.54.74-4.8s14.47-30.26,14.65-30.64Z"/>
  <path class="cls-4" d="m150.37,663.02c-1.01,0-2.05.08-3.06,0-1.51-.12-2.84-.89-4.25-1.49-.15-.07-.32-.13-.43-.26-.12-.13-.17-.31-.21-.47-.28-1.01-.95-2.39-.96-3.42,0-1.12.72-2.54,1.01-3.63-1.85-1.04-3.14-3.02-3.34-5.14-.2-2.11.68-4.3,2.3-5.68-2.4-1.46-3.23-4.49-3.85-7.23-.12-.55-.25-1.13-.12-1.68.35-1.51,2.23-1.95,3.74-2.29,6.57-1.5,11.78-6.33,16.66-10.98.95,2.06,2.22,4.37,4.44,4.79-.51.66-.5,1.67.03,2.31,1.33-.68,2.82.5,3.8,1.63s2.29,2.43,3.71,1.99c.4,1.12.79,2.23,1.19,3.35,1.27-.35,2.61.31,3.63,1.16,1.02.84,1.87,1.9,3.01,2.57,1.09.64,2.35.88,3.59,1.12,2.68.51,5.36,1.02,8.03,1.52,1.21.23,2.72.35,3.44-.65,2.24,1.23,4.77,1.91,7.32,1.97.1-.54.21-1.08.31-1.62.94-.15,1.84.57,2.22,1.45.37.88.34,1.86.3,2.81-.17,4.27-.34,8.53-.51,12.8-.07,1.82-.28,3.91-1.77,4.96-1.77,1.25-4.24.26-6-1.01-3.42-2.47-6.11-5.94-7.65-9.87-1.93,3.89-5.15,7.04-8.8,9.38-3.65,2.35-7.74,3.94-11.87,5.25-2.6.82-5.23,1.54-7.86,2.25-2.06.55-6.46,1.72-7.85-.66-.46-.79-.53-1.76-.46-2.67.16-2.16,1.1-6.91,3.39-7.73,3.21-1.15,6.42-2.3,9.63-3.46"/>
  <path class="cls-4" d="m300.74,623.29c.11-.09,8.15,4.37,8.88,4.78,1.22.69,2.46,1.39,3.49,2.33,1.04.94,1.88,2.17,2.1,3.56.12.75.06,1.53-.19,2.25-.43,1.26-1.45,2.34-2.74,2.66-.83.21-1.71.09-2.55-.04-1.98-.32-4.05-1.1-5.99-1.26.74.06,2.6,1.93,3.15,2.38,1.27,1.06,2.44,2.24,3.47,3.53.89,1.11,1.71,2.43,1.58,3.84-.06.67-.35,1.32-.8,1.82-1.16,1.27-3.09,1.38-4.81,1.4-.81,0-1.64.02-2.41-.24-.49-.16-.94-.42-1.39-.68-1.93-1.12-3.85-2.45-5.9-3.34.26.73.53,1.48.8,2.21.53,1.46,1.53,3.01,1.12,4.6-.24.93-.81,1.75-1.5,2.41-.15.14-.31.28-.5.34-.18.05-.37.03-.55.01-2.08-.23-4.17-.41-6.24-.74-.02,0,.07,2.37-.01,2.58-.52,1.38-2.92,2.88-4.18,3.52-1.46.74-3.16,1.09-4.76.75-2.05-.44-3.71-1.94-4.95-3.62-.99-1.34-1.9-4.73-3.88-4.73,0,0-3.91.48-3.93.48-2.65.33-5.53.18-8.15-.22-.59-.09-1.19-.2-1.69-.52-.48-.3-.83-.75-1.17-1.2-2.46-3.3-4.36-6.96-6.03-10.71-.86-1.93-1.65-3.9-2.43-5.86-.28-.72-1.92-3.18-1.76-3.89.14-.59-.69-1.24-.54-1.82,3.12,1.01,6.98,2.32,9.99.05,1.27,1.05,2.74,1.98,4.39,2.11,1.64.13,3.46-.76,3.91-2.35.95.38,1.92.76,2.93.86,1.02.1,2.11-.13,2.86-.82,1.43.77,3,1.52,4.61,1.34s3.17-1.74,2.75-3.31c1.88,1.12,3.88,2.03,5.95,2.71.34-.49.68-.99,1.01-1.48,2.18.26,4.38.24,6.56-.05.18-.41.36-.81.54-1.22.08-.18,3.24-.4,3.63-.49,1.18-.25,2.68-.51,3.69-1.19s1.23-1.72,1.65-2.78Z"/>
  <path class="cls-1" d="m108.77,399.55c-14.64,31.84-26.86,64.15-42.07,95.82,0,0-16.98,37.34-17.23,43.57s5.35,5.34,7.01,1.53,6.37-14.12,6.37-14.12c0,0-5.09,21.25-4.71,26.33.38,5.09,7.77,2.54,8.41,0s3.95-23.15,3.95-23.15c0,0-1.53,22.14-1.27,27.86.25,5.72,8.41,3.94,9.04,0,.64-3.94.51-26.72.51-26.72,0,0,3.06,22.64,3.95,27.99.89,5.34,8.41,3.56,8.66,0,.25-3.56-1.27-28.37-1.27-28.37,0,0,.13-7,1.02-7.63s4.59,17.94,8.28,19.97c3.69,2.04,10.69.78,10.7-.89.01-1.64-13.6-24.14-4.54-36.44,18.49-25.08,33.81-52.15,51.52-79.27l3.41,158.9s-11.18,11.16-17.65,11.51c-6.46.35-2.1,11.34,1.22,10.99s10.83-1.74,10.83-1.74"/>
  <path class="cls-3" d="m165.67,341.37c-10.73,8.78-22.2,16.75-32.05,26.57-4.78,4.76-9.14,9.96-12.61,15.76-3.13,5.23-4.96,11.05-6.73,16.85-1.35,4.43-3.46,8.51-5.67,12.56-1.24,2.27-2.5,4.53-3.63,6.85"/>
  <path class="cls-3" d="m278.47,334.42l6-4.27,14.39,20.01s-3.63,2.17-13.86,4.59c-10.23,2.42-29.34,24.76-29.34,22.61s-9.96-19.65-9.96-19.65l-7.25,10.23,1.6,9.42"/>
  <path class="cls-16" d="m162.15,503.27c-31.51-13.35-64.3-32.79-83.97-61.71-10.37-15.25-15.79-35.02-9.69-52.42,3.93-11.21,12.18-20.39,21.27-28.04,9.8-8.26,22.52-15.4,34.91-12.1,7.15,1.91,13.07,7.15,17.07,13.38,2.11,3.3,3.79,7.07,3.62,10.98-.38,8.89-12.33,14.81-19.63,9.72-3.28-2.29-5.34-6.06-8.68-8.25-4.97-3.26-11.93-2.21-16.64,1.41-4.71,3.62-7.42,9.32-8.77,15.1-4.14,17.67,4.25,32.04,13.97,45.98,14.53,20.84,36.92,35.85,60.95,43.57-1.43,7.48-2.87,14.95-4.4,22.39Z"/>
  <line class="cls-3" x1="278.47" y1="334.42" x2="245.71" y2="357.72"/>
  <polyline class="cls-3" points="238.46 367.95 223.14 353.83 224.22 377.51 209.73 371.32 199.78 364.61 170.78 343.41 164.94 342.25 175.76 324.58 223.14 353.83"/>
  <path class="cls-2" d="m119.96,261.26v-.03"/>
  <line class="cls-2" x1="222.08" y1="244.77" x2="227.6" y2="243.19"/>
  <line class="cls-2" x1="245.71" y1="241.8" x2="250.44" y2="243.98"/>
  <path class="cls-16" d="m149.78,148.53s43.99.61,61.66-.53c17.67-1.16-39.1,55.97-61.66.53Z"/>
  <path class="cls-16" d="m327.82,145.52s-45.52,1.48-63.73.58c-18.2-.91,37.1,58.99,63.73-.58Z"/>
  <line class="cls-3" x1="145.45" y1="459.07" x2="142.11" y2="467.99"/>
  <path class="cls-3" d="m145.45,382.35s.34,61.47-12.16,67.55c-12.5,6.08,116.86,50.32,182.72,12.16,0,0,4.39-4.77-1.69-10.49"/>
  <path class="cls-3" d="m308.93,456.54s16.12.88-4.63-56.99"/>
  <line class="cls-3" x1="305.16" y1="402" x2="328.59" y2="406.9"/>
  <path class="cls-3" d="m105.37,419.52c-4.55,3.94-8.03,8.85-11.29,13.86l48.03,34.6"/>
  <path class="cls-16" d="m324.62,476.77l-2.11,1.32,2.11-1.32Z"/>
  <path class="cls-16" d="m348.41,416.6l.48,5.82c.73,8.91-5.96,16.81-14.88,17.54-7.05.58-14.65,2.39-21.44-.34-1.46-.59-2.86-1.34-4.25-2.08-1.75-.94-3.52-1.89-5.1-3.09-5.46-4.14-8.4-10.86-11.96-16.54-2.67-4.27-5.34-8.53-8.01-12.8-6.41-10.24-12.82-20.48-19.23-30.72-7.52-12.01-15.09-23.98-22.55-36.03-1.05-1.69-1.77-3.51-2.14-5.37-11.42-1.95-20.29-10.1-21.14-20.52-1.05-12.76,10.27-24.09,25.28-25.32,15-1.23,28.02,8.1,29.07,20.86.1,1.24.08,2.47-.04,3.67,1.68,1.19,3.15,2.72,4.3,4.57l53.52,85.52.55-.05c8.91-.73,16.81,5.96,17.54,14.88Z"/>
  <ellipse class="cls-17" cx="241.12" cy="287.03" rx="16.13" ry="19.17"/>
  <polygon class="cls-6" points="297.78 349.79 329.79 407.25 350.29 410.88 347.35 400.86 344.52 392.09 339.84 384.51 333.95 377.51 324.03 369.11 315.65 362.52 309.6 357.71 297.78 349.79"/>
  <polyline class="cls-3" points="328.59 406.9 352.01 411.81 346.79 399.55"/>
  <path class="cls-3" d="m297.78,349.39c21.77,15.55,45.64,29.73,51.15,56.06"/>
  <path class="cls-4" d="m231.43,333.22s-.66-11.41,6.17-5.77c0,0-.66-11.36,8.15-3.46,0,0,1.32-8.69,7.93-3.87,0,0-.22-13.13,4.85-4.51,0,0-.88-8.14,5.95-.72,0,0,1.98-8.08,5.51-1.53,0,0,1.59-7.85,3.22-2.56,0,0,1.67-22.56-21.59-25.4-23.27-2.83-32.3,13.92-32.3,17.99s-6.61,14.64,12.12,29.82Z"/>
  <ellipse class="cls-13" cx="181.9" cy="209.36" rx="3.9" ry="12.79"/>
  <ellipse class="cls-13" cx="294.15" cy="209.36" rx="3.9" ry="12.79"/>
  <path class="cls-8" d="m353.9,125.78h-5.89c-8.94,0-9.93-5.83-9.93-14.77l-6.33-94.75c0-8.94,7.32-16.26,16.26-16.26h5.89c8.94,0,16.26,7.32,16.26,16.26l-5.49,93.06c0,8.94-1.83,16.46-10.77,16.46Z"/>
  <rect class="cls-8" x="331.75" y="132.01" width="40.52" height="34.19" rx="16.26" ry="16.26"/>
  <text class="cls-7" transform="translate(158.2 718.93)"><tspan x="0" y="0">Interes</tspan></text>
  <polygon class="cls-6" points="99.1 427.35 94.93 433.19 111.88 445.4 112.17 442.93 99.1 427.35"/>
  <path class="cls-18" d="m121.56,482.15l11.27-17.91s-2.64,19.05-11.27,17.91Z"/>
  <path class="cls-18" d="m86.1,451.9l8.83-16.27-1.97-2.02,5.36-7.6s-16.95,14.27-12.22,25.89Z"/>
</svg>