<?xml version="1.0" encoding="UTF-8"?>
<svg id="Capa_1" data-name="Capa 1" xmlns="http://www.w3.org/2000/svg" viewBox="0 0 461.26 705.75">
  <defs>
    <style>
      .cls-1, .cls-2, .cls-3, .cls-4 {
        fill: none;
      }

      .cls-5 {
        fill: #fad6bd;
      }

      .cls-6 {
        fill: #010101;
      }

      .cls-7, .cls-8 {
        fill: #fff;
      }

      .cls-9 {
        fill: #bfbebf;
      }

      .cls-10 {
        fill: #c0c0bf;
      }

      .cls-11 {
        fill: #1e2b4f;
      }

      .cls-12 {
        fill: #404040;
      }

      .cls-13 {
        fill: #3f3f3f;
      }

      .cls-14 {
        fill: #808181;
      }

      .cls-15 {
        fill: #7a5132;
      }

      .cls-16 {
        fill: #1d1d1b;
      }

      .cls-16, .cls-2, .cls-3, .cls-4 {
        stroke-miterlimit: 10;
        stroke-width: 1.62px;
      }

      .cls-16, .cls-3 {
        stroke: #1d1d1b;
      }

      .cls-8 {
        font-family: BigCaslon-Medium, 'Big Caslon';
        font-size: 49.91px;
        font-weight: 500;
      }

      .cls-2 {
        stroke: #b2b2aa;
      }

      .cls-4 {
        stroke: #696961;
      }
    </style>
  </defs>
  <path class="cls-15" d="m172.09,258.15s9.24,13.62,3.41,20.64l40.3,24.48,14.57,13.36,6.83-9.68,32.92-23.38s-8.24-4.91-.08-19.28c0,0-30.6,10.2-97.95-6.14Z"/>
  <path class="cls-15" d="m131.02,405.95c-4.63-3.55-9.45-6.62-14.19-10-4.56-3.24-8.43-7.17-13.17-10.23-.55-.36-1.01-.75-1.42-1.18-.51-.42-.97-.9-1.34-1.44-.6-.35-1.21-.69-1.81-1.03-1.51-.59-2.91-1.46-4.13-2.68-.4-.41-.73-.86-1.01-1.33l-41.75,99.32-.18,3.21,1.95,2.57,2.76-1.4,6.57-13.92-2.02,10.12-1.64,9.07-.39,4.88,1.68,2.55,2.26.16,3.7-2.05,1.03-4.32,1.27-7.48,1.54-7.41.14-2.15-.75,12.48-.15,3.05.16,3.95-.4,5.28.29,1.84,2.1,1.88,3.49-.31,2.04-1.52.85-3.49-.12-4.93.29-7v-5.41l.32-4.62,1.07,7.84.99,7.15.82,5.74.59,3.9,1.06,2.64,3.11,1.09,2.31-.68,1.49-1.46.34-2.6-1.51-28.16.74-3.59.9-.36,1.9,4.41,2.64,6.29.97,5.28,3.86,3.2,2.2-.32h1.9l3.47-.47-.82-4.29-2.54-4.76-2.68-8.93-.7-8.51.71-3.55,1.83-4.48,4.21-5.9,18.87-28.44,4.58-7.29c-.1-.06-.2-.12-.3-.19Z"/>
  <path class="cls-15" d="m391.88,475.49l-6.64-16.22-11.99-24.34-15.31-32.13-8.39-17.94c-.62.68-1.27,1.32-1.94,1.94-.16.51-.39,1.02-.69,1.53-2.89,4.97-9.24,7.87-13.5,11.57-6.45,5.6-12.7,11.43-19.33,16.82-.64.52-2,2.27-2,2.27l24.56,32.8,2.42,4.6,1.37,6.06-2.2,9.16-6.34,13.65.38,1.64,2.31.95,4.97.29,3.5-.92,2.09-2.43,1.61-3.4,2.37-6.6,1.81-5.34,1.2-.64.44,3.96.18,4.84-1.67,22.45.73,3.51,2.98.47,2.66-.05,1.97-.64,1.27-2.42,1.27-7.96,1.03-6.71,1.42-9.16.41,20.59,1.04,3.86,2.5,1.75,3.77-.25,1.17-.71-.05-3.14.05-11.05.33-8.36,3.55,13.3,1.43,4.46,3.67,1.33,2.44-1.06.37-3.45-1.06-7.29-3.44-16.8,8.85,15.93,3.07,1.22,1.59-3.9-2.23-8.03Z"/>
  <polygon class="cls-15" points="349.49 518.23 348.7 516.66 349.36 516.49 349.49 518.23"/>
  <polygon class="cls-15" points="349.49 518.23 348.7 516.66 349.36 516.49 349.49 518.23"/>
  <polygon class="cls-7" points="95.61 375.39 105.88 361.84 113.32 345.05 117.12 335 127.6 320.07 139.82 308.51 155.73 295.87 164.22 286.37 170.82 276.24 172.29 276.35 180.02 281.12 197.37 291.98 215.84 303.24 228.85 315.22 230.77 316.07 237.65 306.06 255.53 294.03 274.44 280.31 285.04 295.33 287.69 299.76 297.25 306.48 306.54 312.63 318.48 322.87 324.83 329.84 331.53 339.45 334.17 346.29 335.73 351.79 341.46 361.85 353.1 382.91 334.57 399.31 316.51 415.45 308.01 422.57 304.75 415.72 302.9 413.13 300.71 409.51 299.48 407.58 296.07 410.16 282.95 414.75 267.88 418.35 248.2 420.15 222.68 419.97 208.55 418.63 183.59 414.43 158.71 408.07 142.34 402.67 138.96 410.18 137.69 411.03 122 399.13 93.27 378.67 95.61 375.39"/>
  <polyline class="cls-15" points="349.42 517.6 338.5 515.76 338.5 504.97 343.96 503.04 349.33 504.97"/>
  <path class="cls-15" d="m398.02,595.23c-18.83,13.3-42.82,2.59-46,1.11-20.45-9.52-27.69-29.37-29.94-36.08-5.1-15.2-5.06-31.81-1.72-47.49,1.5-7.05,3.66-14.01,4.16-21.2.61-8.73-1.27-17.48-4.17-25.74-3.9-11.09-9.63-21.44-16.18-31.17-3.05-4.54-8.22-9.33-10.38-14.28-.35-.79-1.41-9.27-.81-9.53.33-.14.67-.28,1.01-.44l.57,1.06v-.5s5.04-2.71,5.04-2.71l2.94,4.82,5.48,9.48,2.11-1.43.1.13-.1-.16,1.97-2.11,8.47,10.67,8.9,11.89,7.21,9.82,3.49,7.08-.54,4.34,16.13,22.77,1.9,8.21c-2.37,8.74-5.19,17.27-6.56,26.25-1.2,7.87-2.09,15.87-1.07,23.77s4.13,15.74,9.92,21.2c5.79,5.46,14.51,8.12,22.02,5.5,4.92-1.71,9.27-6.2,9.09-11.41-.16-4.63-3.68-9.54-1.24-13.49,1.26-2.04,3.47-2.78,5-3.27,6.08-1.95,13.48.49,16.85,3.78,8.76,8.56,4.17,36.54-13.63,49.12Z"/>
  <polygon class="cls-15" points="352.2 482.81 348.3 475.25 351.84 466.7 353.56 473.96 352.2 482.81"/>
  <g id="Background">
    <path id="Path_0" data-name="Path 0" class="cls-7" d="m142.84,342.19v29.25h58.5v-58.5h-58.5v29.25Z"/>
    <path id="Path_1" data-name="Path 1" class="cls-6" d="m161.78,326.8c-.16.18-.18.26-.18.75,0,.31.02.65.05.76.03.12.11.23.18.27.07.04.86.1,1.76.13.89.03,1.62.07,1.62.1s-.34.28-.75.58c-.42.3-1.08.86-1.48,1.24-.39.39-.92.97-1.17,1.29-.26.32-.63.84-.83,1.15-.21.31-.38.59-.38.62,0,.04-.07.18-.17.31s-.34.65-.54,1.13c-.2.48-.48,1.21-.61,1.61s-.29,1.11-.38,1.57c-.11.65-.15,1.16-.15,2.3,0,.8.01,1.59.04,1.76.02.16.11.62.19,1.02s.23,1.01.34,1.35c.11.34.33.94.5,1.32s.5,1.02.73,1.43.68,1.08.99,1.5.87,1.08,1.25,1.45c.38.37.71.68.73.67.02,0,.15.1.3.23.14.13.57.45.95.72s.9.6,1.16.76c.26.15.8.44,1.21.63.4.19,1.06.45,1.46.58s1.15.31,1.67.41c.51.1.99.21,1.05.24.07.04,2.06.07,4.42.07h4.3s0-2.18,0-2.18h-6.95v-23.8c4.17-.1,6.41-.1,7.68-.07,1.59.04,2.46.08,2.82.16.29.06.8.25,1.17.42.37.18.87.48,1.13.67.26.2.67.58.91.84s.57.71.74.98c.16.28.39.73.5,1.02.11.29.24.72.3.99s.1.87.1,1.35-.05,1.09-.1,1.35c-.06.26-.23.78-.39,1.13-.16.36-.45.91-.64,1.21-.19.3-.5.71-.69.9-.19.2-.54.5-.78.67-.24.18-.72.45-1.06.61-.34.16-.69.31-.77.32-.08,0-.18.04-.22.07-.04.03-.35.12-.69.19l-.62.14v1.89c1.18,2.1,2.11,3.72,2.82,4.97.72,1.25,1.62,2.84,2.01,3.55.39.7.8,1.38.92,1.5.21.22.23.22.97.22.56,0,.78-.03.88-.11.07-.06.12-.19.12-.29,0-.1-.19-.53-.42-.95-.23-.42-1.24-2.22-2.26-3.99-1.01-1.77-2.09-3.66-2.4-4.19-.31-.53-.56-.98-.56-1s.45-.26,1-.53c.56-.28,1.21-.63,1.45-.78s.65-.48.91-.72.59-.63.74-.85c.15-.22.42-.71.61-1.08.18-.37.44-.93.56-1.24.12-.31.31-.91.41-1.33.15-.64.19-.94.19-1.79,0-.79-.04-1.17-.15-1.65-.08-.34-.24-.87-.34-1.17-.11-.3-.31-.76-.45-1.02-.15-.26-.42-.69-.6-.95s-.6-.74-.93-1.06c-.32-.32-.85-.77-1.17-.99-.31-.22-.87-.53-1.24-.7s-.79-.34-.95-.39-.34-.11-.4-.13c-.06-.01-.19-.04-.29-.06s-.35-.07-.55-.11c-.27-.07-3.05-.1-10.9-.12l-10.54-.03-.18.19Z"/>
    <path id="Path_2" data-name="Path 2" class="cls-11" d="m176.74,341.63c-.03.06-.04.56-.02,1.12l.02,1.02,2.23.04-.04-2.23c-1.96-.04-2.16-.03-2.19.06h0Z"/>
    <path id="Path_3" data-name="Path 3" class="cls-13" d="m177.1,328.72c.69.01,1.77.01,2.41,0,.64,0,.08-.02-1.24-.02s-1.86.01-1.17.02Z"/>
    <path id="Path_4" data-name="Path 4" class="cls-14" d="m163.69,326.6c.78.01,2.03.01,2.78,0,.75,0,.1-.01-1.43-.01s-2.14,0-1.35.01Zm8.85,0c.99.01,2.62.01,3.62,0,1.01,0,.2-.01-1.79-.01s-2.82,0-1.83.01Z"/>
    <path id="Path_5" data-name="Path 5" class="cls-12" d="m168.58,326.6c.34.01.92.01,1.28,0,.36,0,.08-.02-.62-.02s-1,.01-.66.02Z"/>
    <path id="Path_6" data-name="Path 6" class="cls-10" d="m178.75,326.6c.42.01,1.08.01,1.46,0,.38,0,.04-.02-.77-.02s-1.12.01-.69.02Z"/>
    <path id="Path_7" data-name="Path 7" class="cls-7" d="m169.94,329.14c-.36.1-.96.29-1.32.42-.36.14-.92.39-1.24.56-.32.16-.73.38-.91.48-.18.1-.63.41-.99.69-.36.28-.94.8-1.28,1.15-.34.36-.8.9-1.03,1.2-.22.3-.53.75-.67.99-.14.24-.37.69-.51.99s-.31.68-.38.84c-.07.16-.14.32-.15.37-.01.04-.11.39-.21.77-.11.38-.21.8-.23.91s-.05.32-.07.44-.05.6-.08,1.06c-.03.53-.01,1.18.04,1.79.04.52.17,1.27.26,1.65.1.38.29.96.41,1.28.12.32.37.88.56,1.24s.46.87.62,1.13c.17.26.5.72.75,1.02.25.3.76.84,1.14,1.2.38.35,1,.86,1.38,1.11.38.25,1.1.66,1.61.9.5.23,1.26.53,1.68.67.42.12.82.25.88.27s.23.06.37.07l.26.03c.09-6.16.11-9.67.11-11.78s-.02-5.59-.04-7.74c-.04-3.51-.06-3.89-.17-3.89-.07,0-.42.09-.78.18h0Z"/>
    <path id="Path_8" data-name="Path 8" class="cls-9" d="m170.88,332.25c0,.99.01,1.38.02.88.01-.5.01-1.31,0-1.79,0-.48-.02-.07-.02.91Zm0,16.71c0,.97.01,1.35.02.84.01-.5.01-1.29,0-1.76,0-.46-.02-.05-.02.91Z"/>
  </g>
  <path class="cls-15" d="m397.71,160.16c0,33.33-10.88,61.35-34.19,61.35s-26.25-6.94-26.25-6.94c-10.19,17.66-24.49,30.62-44.62,40.76-31.2,15.72-63.06,15.28-70.4,15.04-10.56-.35-53.98-1.79-83.46-27.27-4.97-4.27-9.53-9.25-13.48-15.01-3.45-5.04-5.69-9.59-7.04-12.67,0,.62-.57,6.09-20.54,6.09-21.17,0-31.06-28.02-31.06-61.35s38.41-24.86,38.41-24.86C108.37-37.64,294.43,10.82,298.6,15.82c4.16,4.99,41.63-15.82,41.63-15.82,0,3.89-15,21.38-15,21.38,21.65.27,21.07,25.24,21.07,25.24-6.11-15.22-18.39-6.63-18.39-6.63,12.85,21.56,22.29,45.27,26.29,70.11,1.48,9.22,2.2,18.54,2.14,27.85,6.14-1.42,41.37-8.23,41.37,22.2"/>
  <path class="cls-15" d="m298.83,565.17c-.87,1.38-1.76,2.77-2.74,4.09-3.01-.33-6.46,1.05-8,4.09-3.62-2.37-9.43-1.73-11.02,3.67.4-1.32.23-.37-1.15.14-1.11.41-2.3.58-3.46.72-4.8.55-9.6.3-14.41.99-1.8.27-3.19,1.48-4.07,3.02l-1.06-1.83-3.73-8.87-11.39-6.02.51-14.87-1.32-43.67.84-50c-8.68,1.87-22.66,3.32-32.39.98l.27,1.84-2.64,28.98-4.81,52.58-1.32,26.23c-.38.84-.6,1.77-.6,2.78v6.97l-1.33,2.78-5.35,2.57c-5.25-.31-10.46.95-15.04,3.42l-.16-.4-.17.58c-2.16,1.21-4.19,2.68-5.99,4.41-2,.14-3.99.28-5.96.43-.31.03-.62.06-.95.09-7.49-6.36-13.8-14.24-22.88-18.76,1.11-1.7,2.1-3.38,2.98-5.12.31.04.62.06.94.04,1.77-.07,3.4-.67,4.74-1.84.06-.04.11-.07.18-.11.61-.24,1.18-.54,1.66-.99.78-.5,1.39-1.16,1.83-1.99.51-.81.79-1.67.84-2.61,1.38-1.53,2.09-3.67,1.42-6.3-3.02-11.95-4.95-24.7-6.34-37.28l-.17-7.94-.95-44.51-1.16-58.89.74-.96,17.68,5.82,13.96,3.56,10.6,2.24,29.59,4.2,10.26,1.05,16.76-.55,10.23-.45,14.74-1.22,14.61-3.22,10.94-4.37c-.01.1-.01.2-.01.31.03,2.04.13,4.1.27,6.13-.03.21-.04.44-.06.65-.4,13.14.62,26.37.5,39.55-.28,29.42-2.72,58.83-7.31,87.89-.84,5.31-2.37,11.14,2.91,14.34,1.92,2.51,4.97,4.47,7.97,5.62Z"/>
  <path class="cls-5" d="m137.62,241.32c-5.29-20.81-9.76-41.96-11.09-63.43-1.9-30.66,2.29-65.42,25.78-87.35,4.12-3.85,8.62-7.33,13.63-9.91,10.48-5.39,23.09-6.51,34.36-3.06,6.39,1.96,12.32,5.38,17.28,9.87,2.55,2.31,4.86,4.9,6.84,7.72.91,1.3,1.97,3.61,3.78,2.75,1.27-.6,2.48-3.83,3.33-4.99,2.37-3.27,5.23-6.16,8.41-8.64,6.52-5.08,14.38-8.42,22.53-9.76,14.15-2.33,28.82.99,41.67,7.36,4.72,2.34,9.28,5.12,13.07,8.78,2.84,2.74,5.21,5.95,7.27,9.31,8.12,13.24,11.55,28.85,12.92,44.32,1.3,14.69.85,29.53-1.32,44.12-2.09,14.04-6.31,27.43-10.34,40.94l-.15,1.01-6.05,5.93-2.24,2.54-5.49,4.66-3.27,2.23-2.9,2.14-4.56,2.4-5.64,3.62-6.72,3.17-9.75,3.94-9.68,3.38-11.69,2.92-11.65,1.76-14.47,1.13-12.71.25-14.01-1.09-15.35-2.53-12.01-3.13-14.96-5.39-9.72-5.14-13.03-8.56-2.07-3.27Z"/>
  <path class="cls-5" d="m65.65,445.74c-.12.24,0,.82,0,1.11,1.73.24,4.08-.31,5.58.65.38.24.71.58,1.11.78,1.43.71,3.35-.42,4.7.44.36.23.63.57.94.87,1.4,1.34,3.75,1.52,5.34.42,1.62,1.56,3.95,2.36,6.19,2.12,0,.49,0,.99,0,1.48,1.77-.15,3.5-.72,5.01-1.66-.16.1,3.45,1.52,4.01,1.5,1.31-.05,2.3-.78,3.46-1.34l-.87,4.2.66,6.18,1.37,5.69,1.49,4.33,2.1,5.07,1.34,3.05v2l-2.82.5-3.97.61-3.73-1.62-1.21-2.93-3.39-8.67-1.38-5.02-.63-1.26-1.02,1.63-.36,5.34.56,9.74.3,5.79.22,4.77.15,5-.34,2.6-2.12,1.64h-4.04l-1.73-2.68-.66-4.68-1.88-12.94-.63-2.64-.59,5.9-.07,5.15-.09,3.52-.25,4.12-1.96,2.91-2.67.58-2.42-.19-1.57-2.96.08-5.85v-5.4l.13-7.29-1.32,6.21-1.42,7.87-4.03,2.71-2.26-.16-1.68-2.55v-3.9l.78-5.02,1.51-6.66.78-3.57-1.66.68-1.78,3.77-2.62,5-2.3.96-2.11-.93-.82-3.36.7-4.56s13.73-28.72,13.9-29.07Z"/>
  <path class="cls-5" d="m339.25,468c-.25,1.12-.57,2.22-.97,3.29-.77,2.06-1.81,4.01-2.62,6.05-.6,1.52-1.08,3.1-1.88,4.53-.88,1.58-2.19,3.32-1.5,5,2.29.84,4.72,1.44,7.15,1.19s4.84-1.44,6.11-3.52c.46-.76.76-1.62,1.05-2.46,1.54-4.44,3.06-8.9,4.63-13.33,1.64,1.53,1.33,3.65,1.38,5.83.07,2.87-.05,5.74-.23,8.6-.36,5.65-.98,11.29-.99,16.96,0,1.45.1,3.06,1.15,4.06.52.5,1.2.77,1.9.95,1.84.46,4.04.12,5.18-1.39.7-.92.9-2.11,1.08-3.25,1.14-7.14,2.34-14.26,3.44-21.41-.16,1.03.21,2.51.24,3.6.05,1.61.1,3.23.14,4.84.1,3.23.19,6.46.29,9.69.07,2.4.36,5.2,2.4,6.48.75.47,1.64.65,2.51.72,1.33.1,2.79-.11,3.72-1.06,1.12-1.13,1.16-2.9,1.11-4.49-.16-6-.66-12-.76-18,.03,1.92.93,4.16,1.36,6.05l1.72,7.72c.25,1.11.52,2.27,1.29,3.11.85.93,2.15,1.3,3.39,1.5,1.33.21,2.9.18,3.73-.88.63-.8.61-1.92.53-2.94-.28-3.76-.9-7.49-1.68-11.17-.74-3.47-2.35-7.3-2.56-10.81.03.55,1.36,1.88,1.68,2.41.56.91,1.06,1.86,1.56,2.81,1.04,2,2.04,4.02,3.06,6.03.38.76.78,1.53,1.39,2.12,1.11,1.05,2.9,1.31,4.26.61.19-.1.37-.21.51-.38.15-.18.23-.41.31-.63.97-2.83.03-4.91-.9-7.59-1.04-3.01-2.17-6-3.39-8.94l-5.07-11.15-2.01-4.25-.92-1.68-1.93-.07-1.08,1.24-2.98.66-1.85-.42-1.8,1h-2.32l-2.57-.66v1.59s-1.82,1.3-1.82,1.3l-2.57-1.3-2.33-.35-1.15,1.82-1.9.17-2.32-.5-.91,1.08-1.74.66-2.38-.54-.76-.54-.74.91-2.23.61h-2.4l-1.57-.2h-.99c-.62,0-1.26-.09-1.87-.15-.4,1.76.04,3.74-.11,5.57-.09,1.11-.26,2.22-.5,3.32Z"/>
  <path class="cls-5" d="m146.79,596.61c-.96,0-1.95.08-2.9,0-1.43-.12-2.7-.85-4.03-1.41-.15-.06-.3-.13-.41-.25-.11-.12-.16-.29-.2-.45-.26-.96-.9-2.26-.91-3.25,0-1.06.69-2.41.96-3.45-1.76-.99-2.98-2.87-3.17-4.88-.19-2.01.65-4.08,2.19-5.39-2.28-1.38-3.06-4.26-3.65-6.86-.12-.52-.24-1.07-.11-1.59.34-1.43,2.12-1.85,3.55-2.18,6.23-1.42,11.18-6.01,15.8-10.42.9,1.95,2.1,4.14,4.22,4.54-.48.62-.47,1.58.02,2.19,1.26-.65,2.68.47,3.6,1.54.93,1.07,2.17,2.3,3.52,1.88.38,1.06.75,2.12,1.13,3.18,1.21-.33,2.48.3,3.44,1.1.96.8,1.78,1.8,2.86,2.44,1.03.61,2.23.84,3.4,1.06,2.54.48,5.08.96,7.62,1.45,1.15.22,2.58.34,3.26-.61,2.12,1.16,4.53,1.81,6.95,1.87.1-.51.2-1.03.29-1.54.89-.14,1.75.55,2.1,1.38s.32,1.77.29,2.67c-.16,4.05-.32,8.1-.48,12.15-.07,1.73-.27,3.71-1.68,4.7-1.68,1.19-4.03.25-5.7-.96-3.25-2.34-5.8-5.64-7.26-9.37-1.83,3.69-4.89,6.68-8.35,8.9s-7.34,3.74-11.26,4.98c-2.46.78-4.96,1.46-7.46,2.13-1.95.52-6.13,1.63-7.45-.62-.44-.75-.5-1.67-.43-2.53.16-2.05,1.04-6.56,3.22-7.33,3.05-1.09,6.1-2.18,9.14-3.28"/>
  <path class="cls-5" d="m289.47,558.91c.1-.09,7.73,4.15,8.42,4.54,1.16.65,2.33,1.32,3.32,2.21.99.9,1.78,2.06,1.99,3.37.11.71.05,1.45-.18,2.13-.4,1.19-1.38,2.22-2.6,2.52-.79.19-1.62.09-2.42-.04-1.88-.3-3.84-1.04-5.68-1.2.7.06,2.46,1.83,2.99,2.26,1.21,1,2.31,2.13,3.29,3.35.84,1.05,1.62,2.3,1.5,3.65-.06.64-.33,1.25-.76,1.72-1.1,1.21-2.93,1.31-4.56,1.33-.77,0-1.55.02-2.28-.22-.47-.15-.9-.4-1.32-.65-1.83-1.06-3.66-2.33-5.6-3.17.25.7.5,1.4.75,2.1.5,1.39,1.45,2.86,1.06,4.37-.23.88-.77,1.66-1.42,2.29-.14.13-.29.27-.48.32-.17.05-.35.03-.53.01-1.97-.22-3.96-.39-5.92-.71-.02,0,.07,2.25,0,2.45-.49,1.31-2.77,2.74-3.96,3.34-1.39.71-3,1.04-4.52.71-1.94-.41-3.52-1.84-4.7-3.44-.94-1.28-1.8-4.49-3.69-4.49,0,0-3.71.46-3.73.46-2.51.31-5.25.17-7.74-.2-.56-.08-1.13-.19-1.61-.49-.45-.28-.79-.71-1.11-1.14-2.33-3.13-4.14-6.61-5.72-10.17-.81-1.83-1.57-3.7-2.31-5.56-.27-.68-1.83-3.02-1.67-3.69.13-.56-.66-1.18-.51-1.73,2.96.96,6.62,2.2,9.48.05,1.21.99,2.6,1.88,4.16,2s3.28-.72,3.71-2.23c.9.36,1.82.72,2.78.81.97.09,2.01-.12,2.71-.78,1.36.73,2.84,1.44,4.38,1.27,1.53-.18,3.01-1.65,2.61-3.14,1.78,1.06,3.68,1.92,5.65,2.57.32-.47.64-.94.96-1.4,2.06.25,4.16.23,6.22-.05.17-.38.34-.77.51-1.15.07-.17,3.07-.38,3.45-.46,1.12-.24,2.54-.48,3.5-1.13s1.17-1.63,1.57-2.64Z"/>
  <path class="cls-1" d="m107.32,346.62c-13.89,30.21-25.49,60.87-39.92,90.92,0,0-16.11,35.43-16.35,41.34-.24,5.91,5.08,5.07,6.65,1.45,1.57-3.62,6.04-13.4,6.04-13.4,0,0-4.83,20.16-4.47,24.99s7.37,2.41,7.98,0c.6-2.41,3.75-21.97,3.75-21.97,0,0-1.45,21-1.21,26.43.24,5.43,7.98,3.74,8.58,0,.6-3.74.48-25.35.48-25.35,0,0,2.9,21.49,3.75,26.56.85,5.07,7.98,3.38,8.22,0s-1.21-26.92-1.21-26.92c0,0,.12-6.64.97-7.24s4.35,17.02,7.86,18.95c3.5,1.93,10.14.74,10.15-.84.01-1.56-12.9-22.91-4.3-34.57,17.55-23.8,32.08-49.48,48.89-75.21l3.24,150.77s-10.61,10.59-16.74,10.92c-6.13.33-1.99,10.76,1.16,10.43,3.15-.33,10.28-1.66,10.28-1.66"/>
  <path class="cls-4" d="m161.31,291.41c-10.18,8.33-21.06,15.9-30.41,25.21-4.53,4.51-8.68,9.45-11.96,14.95-2.97,4.96-4.71,10.49-6.39,15.98-1.28,4.2-3.28,8.08-5.38,11.92-1.17,2.15-2.37,4.3-3.45,6.5"/>
  <path class="cls-4" d="m286.66,299.02c20.65,14.75,43.31,28.21,48.54,53.2"/>
  <path class="cls-4" d="m268.34,284.82l5.69-4.05,13.66,18.99s-3.44,2.06-13.15,4.36c-9.71,2.3-27.84,23.5-27.84,21.45s-9.45-18.65-9.45-18.65l-6.88,9.71,1.51,8.94"/>
  <line class="cls-4" x1="268.34" y1="284.82" x2="237.25" y2="306.92"/>
  <polyline class="cls-4" points="230.38 316.63 215.84 303.24 216.87 325.71 203.11 319.83 193.67 313.46 166.16 293.34 160.62 292.25 170.88 275.48 215.84 303.24"/>
  <path class="cls-3" d="m117.94,215.4v-.03"/>
  <path class="cls-1" d="m397.37,160.17c0,33.33-10.88,61.35-34.19,61.35s-26.25-6.94-26.25-6.94c-10.19,17.66-24.49,30.62-44.62,40.76-31.2,15.72-63.06,15.28-70.4,15.04-10.56-.35-53.98-1.79-83.46-27.27-4.97-4.27-9.53-9.25-13.48-15.01-3.45-5.04-5.69-9.59-7.04-12.67,0,.62-.57,6.09-20.54,6.09-21.17,0-31.06-28.02-31.06-61.35s38.41-24.86,38.41-24.86C108.04-37.63,294.09,10.83,298.26,15.82,302.42,20.82,339.89,0,339.89,0c0,3.89-15,21.38-15,21.38,21.65.27,21.07,25.24,21.07,25.24-6.11-15.22-18.39-6.63-18.39-6.63,12.85,21.56,22.29,45.27,26.29,70.11,1.48,9.22,2.2,18.54,2.14,27.85,6.14-1.42,41.37-8.23,41.37,22.2"/>
  <path class="cls-7" d="m202.97,160.31c5.15,5.79,7.37,12.35,7.37,20.7,0,18.08-14.66,32.74-32.74,32.74s-32.74-14.66-32.74-32.74c0-13.36,8.01-24.86,19.49-29.95"/>
  <path class="cls-7" d="m298.45,148.35c12.27,4.73,20.98,16.63,20.98,30.57,0,18.08-14.66,32.74-32.74,32.74s-32.74-14.66-32.74-32.74c0-9.38,3.13-17.22,9.45-23.19"/>
  <line class="cls-3" x1="217.45" y1="213.08" x2="222.69" y2="211.58"/>
  <line class="cls-3" x1="241.77" y1="210.26" x2="246.26" y2="212.33"/>
  <path class="cls-7" d="m271.47,253.8c-32.47,19.68-69.04,5.14-71.5,4.11-3.77-1.57-17.1-7.11-23.85-15.55-.01-.03-.03-.03-.04-.04h-.01c-2.28-2.87-3.82-6.06-3.96-9.53-.14-3.46.99-9.18,4.8-11.19,4.13-2.18,9.65.91,11.87,2.06,26.45,13.59,72.07.52,79.26-2.51,11.08-4.68,12.34-5.49,12.34-5.49,1.42-.91,2.17-1.52,3.42-1.59,4.48-.28,9.34,6.67,10.29,11.42,2.53,12.78-19.95,26.7-22.61,28.32Z"/>
  <path class="cls-16" d="m200.85,160.1c3.5,4.68,5.59,10.56,5.59,16.95,0,15.23-11.85,27.57-26.46,27.57s-26.46-12.34-26.46-27.57c0-10.26,5.37-19.2,13.35-23.95"/>
  <path class="cls-16" d="m296.37,150.13c8.94,4.43,15.12,13.92,15.12,24.92,0,15.23-11.85,27.57-26.46,27.57s-26.46-12.34-26.46-27.57c0-7.61,2.21-13.69,7-18.68"/>
  <path class="cls-2" d="m176.12,242.37c.67.52,6.21,4.91,8.07,4.6,1.96-.34,6.4-3.86,6.4-3.86,0,0,2.81,4.06,4.91,3.87,2.09-.18,46.12,2.87,51.76-2.33"/>
  <path class="cls-2" d="m267.05,240.14s13.31-5.46,14.51-5.12,3.9,1.88,5.11.85,3.09-4.1,3.09-4.1l4.33-2.18"/>
  <path class="cls-15" d="m159.1,121.46s34.67,23.24,49.33,31.47c14.66,8.21-60.05,24.3-49.33-31.47Z"/>
  <path class="cls-15" d="m307.6,121.46s-38.34,23.24-54.54,31.46c-16.21,8.22,66.4,24.31,54.54-31.46Z"/>
  <line class="cls-4" x1="142.12" y1="403.09" x2="138.96" y2="411.55"/>
  <circle class="cls-7" cx="168.05" cy="168.05" r="4.05"/>
  <circle class="cls-7" cx="177.04" cy="175.76" r="2"/>
  <circle class="cls-7" cx="273.1" cy="168.05" r="4.05"/>
  <circle class="cls-7" cx="282.79" cy="176.63" r="2.23"/>
  <path class="cls-4" d="m142.12,330.29s.32,58.32-11.54,64.09c-11.86,5.77,110.88,47.75,173.37,11.54,0,0,4.17-4.53-1.6-9.95"/>
  <path class="cls-4" d="m297.24,400.69s15.3.83-4.39-54.07"/>
  <polyline class="cls-4" points="300.71 409.95 308.01 422.58 352.86 383.25 335.04 351.48"/>
  <path class="cls-4" d="m104.1,365.56c-4.32,3.74-7.62,8.39-10.71,13.16l45.57,32.83"/>
  <path class="cls-15" d="m312.13,419.89l-2.01,1.25,2.01-1.25Z"/>
  <text class="cls-8" transform="translate(156.53 671.98)"><tspan x="0" y="0">Alegría</tspan></text>
</svg>